<?xml version="1.0" encoding="UTF-8" standalone="no"?>
<svg
   xmlns:dc="http://purl.org/dc/elements/1.1/"
   xmlns:cc="http://creativecommons.org/ns#"
   xmlns:rdf="http://www.w3.org/1999/02/22-rdf-syntax-ns#"
   xmlns:svg="http://www.w3.org/2000/svg"
   xmlns="http://www.w3.org/2000/svg"
   xmlns:sodipodi="http://sodipodi.sourceforge.net/DTD/sodipodi-0.dtd"
   xmlns:inkscape="http://www.inkscape.org/namespaces/inkscape"
   width="310"
   height="301"
   viewBox="0 0 310 301"
   id="svg3227"
   version="1.1"
   inkscape:version="0.91 r13725"
   sodipodi:docname="blue_flower.svg">
  <metadata
     id="metadata3255">
    <rdf:RDF>
      <cc:Work
         rdf:about="">
        <dc:format>image/svg+xml</dc:format>
        <dc:type
           rdf:resource="http://purl.org/dc/dcmitype/StillImage" />
        <dc:title>Retro-looking abstract flower patterns in late 60's - early 70's style.</dc:title>
      </cc:Work>
    </rdf:RDF>
  </metadata>
  <defs
     id="defs3253" />
  <sodipodi:namedview
     pagecolor="#ffffff"
     bordercolor="#666666"
     borderopacity="1"
     objecttolerance="10"
     gridtolerance="10"
     guidetolerance="10"
     inkscape:pageopacity="0"
     inkscape:pageshadow="2"
     inkscape:window-width="1280"
     inkscape:window-height="975"
     id="namedview3251"
     showgrid="false"
     inkscape:zoom="0.43369216"
     inkscape:cx="76.849308"
     inkscape:cy="581.73997"
     inkscape:window-x="0"
     inkscape:window-y="0"
     inkscape:window-maximized="1"
     inkscape:current-layer="svg3227" />
  <title
     id="title3229">Retro-looking abstract flower patterns in late 60's - early 70's style.</title>
  <path
     style="fill:#0055d4;stroke:#000000;stroke-width:10;stroke-miterlimit:4;stroke-dasharray:none;stroke-opacity:1"
     inkscape:connector-curvature="0"
     id="path3233"
     d="m 5,129.79389 c 0,-31.8636 25.83075,-57.6945 57.6945,-57.6945 16.0674,0 30.6009,6.5682 41.0619,17.1657 -4.122,-7.9437 -6.4509,-16.9674 -6.4509,-26.535 0,-31.8639 25.8309,-57.6945 57.6945,-57.6945 31.8636,0 57.6945,25.8306 57.6945,57.6945 0,9.5676 -2.3289,18.5913 -6.4509,26.5353 10.461,-10.5978 24.9945,-17.166 41.0619,-17.166 31.8636,0 57.6945,25.8309 57.6945,57.6945 0,31.8639 -25.8309,57.6945 -57.6945,57.6945 -3.1902,0 -6.3198,-0.2589 -9.3693,-0.7569 18.8637,9.4872 31.8063,29.0193 31.8063,51.5739 C 269.7425,270.16923 243.9116,296 212.048,296 183.1295,296 159.1805,274.72395 155,246.97119 150.8195,274.72395 126.8705,296 97.952,296 66.0884,296 40.2575,270.16923 40.2575,238.30539 c 0,-22.5546 12.9426,-42.0867 31.8063,-51.5739 -3.0495,0.498 -6.1791,0.7569 -9.3693,0.7569 C 30.83075,187.48839 5,161.65779 5,129.79389 Z m 116.0304,29.9919 c 0,18.7608 15.2088,33.9696 33.9696,33.9696 18.7608,0 33.9696,-15.2088 33.9696,-33.9696 0,-18.7608 -15.2088,-33.9696 -33.9696,-33.9696 -18.7608,0 -33.9696,15.2088 -33.9696,33.9696 z" />
  <circle
     style="fill:#ffcc00;stroke:#000000;stroke-width:10;stroke-miterlimit:4;stroke-dasharray:none;stroke-opacity:1"
     id="path3266"
     cx="156.48912"
     cy="160.29015"
     r="56.25" />
</svg>
