<?xml version="1.0" encoding="UTF-8" standalone="no"?>
<svg
   xmlns:dc="http://purl.org/dc/elements/1.1/"
   xmlns:cc="http://creativecommons.org/ns#"
   xmlns:rdf="http://www.w3.org/1999/02/22-rdf-syntax-ns#"
   xmlns:svg="http://www.w3.org/2000/svg"
   xmlns="http://www.w3.org/2000/svg"
   xmlns:sodipodi="http://sodipodi.sourceforge.net/DTD/sodipodi-0.dtd"
   xmlns:inkscape="http://www.inkscape.org/namespaces/inkscape"
   width="554"
   height="218"
   viewBox="0 0 554 218"
   id="svg3227"
   version="1.1"
   inkscape:version="0.91 r13725"
   sodipodi:docname="car.svg">
  <metadata
     id="metadata3255">
    <rdf:RDF>
      <cc:Work
         rdf:about="">
        <dc:format>image/svg+xml</dc:format>
        <dc:type
           rdf:resource="http://purl.org/dc/dcmitype/StillImage" />
        <dc:title>Retro-looking abstract flower patterns in late 60's - early 70's style.</dc:title>
      </cc:Work>
    </rdf:RDF>
  </metadata>
  <defs
     id="defs3253" />
  <sodipodi:namedview
     pagecolor="#ffffff"
     bordercolor="#666666"
     borderopacity="1"
     objecttolerance="10"
     gridtolerance="10"
     guidetolerance="10"
     inkscape:pageopacity="0"
     inkscape:pageshadow="2"
     inkscape:window-width="1280"
     inkscape:window-height="975"
     id="namedview3251"
     showgrid="false"
     inkscape:zoom="0.86738432"
     inkscape:cx="179.50519"
     inkscape:cy="359.94071"
     inkscape:window-x="0"
     inkscape:window-y="0"
     inkscape:window-maximized="1"
     inkscape:current-layer="svg3227" />
  <title
     id="title3229">Retro-looking abstract flower patterns in late 60's - early 70's style.</title>
  <g
     id="g3345">
    <path
       sodipodi:nodetypes="ccccccc"
       inkscape:connector-curvature="0"
       id="path3248"
       d="M 172.52359,176.81521 C 113.03737,156.88336 155.63777,38.70748 176.19207,14.17934 229.43758,2.0011204 291.83193,-4.2197296 391.40946,13.77173 c 11.40345,18.38928 16.55457,27.29051 33.42391,74.18478 l 1.63044,0.81522 c 90.4617,5.74617 118.14488,-13.60903 124.72826,75.81522 l -86.82065,-0.40761"
       style="fill:#aa0000;fill-rule:evenodd;stroke:#000000;stroke-width:4;stroke-linecap:butt;stroke-linejoin:miter;stroke-miterlimit:4;stroke-dasharray:none;stroke-opacity:1" />
    <circle
       r="39.945652"
       cy="175.55435"
       cx="223.84424"
       id="path3240"
       style="fill:#1a1a1a;stroke:#000000;stroke-width:5;stroke-miterlimit:4;stroke-dasharray:none;stroke-opacity:1" />
    <circle
       style="fill:#4d4d4d;stroke:#000000;stroke-width:5;stroke-miterlimit:4;stroke-dasharray:none;stroke-opacity:1"
       id="circle3242"
       cx="223.84424"
       cy="175.55435"
       r="20.788044" />
    <circle
       style="fill:#1a1a1a;stroke:#000000;stroke-width:5;stroke-miterlimit:4;stroke-dasharray:none;stroke-opacity:1"
       id="circle3244"
       cx="415.49643"
       cy="173.55435"
       r="39.945652" />
    <circle
       r="20.788044"
       cy="173.55435"
       cx="415.49643"
       id="circle3246"
       style="fill:#4d4d4d;stroke:#000000;stroke-width:5;stroke-miterlimit:4;stroke-dasharray:none;stroke-opacity:1" />
    <ellipse
       ry="14.699367"
       rx="12.681807"
       cy="128.8284"
       cx="523.97461"
       id="path3250"
       style="fill:#ffff00;stroke:#000000;stroke-width:5;stroke-miterlimit:4;stroke-dasharray:none;stroke-opacity:1" />
    <path
       sodipodi:nodetypes="ccccc"
       inkscape:connector-curvature="0"
       id="path3254"
       d="m 183.29522,36.30885 c -20.1837,40.91637 -5.89917,40.60166 -2.30578,51.88011 36.17279,-5.0708 71.23285,-6.24703 104.33668,-0.57644 -0.81733,-19.11489 -17.51391,-32.55435 -0.57645,-73.20861 -45.04236,2.41152 -96.3197,5.19235 -101.45445,21.90494 z"
       style="fill:#aaccff;fill-rule:evenodd;stroke:#000000;stroke-width:5;stroke-linecap:butt;stroke-linejoin:miter;stroke-miterlimit:4;stroke-dasharray:none;stroke-opacity:1" />
    <path
       sodipodi:nodetypes="ccccc"
       inkscape:connector-curvature="0"
       id="path3256"
       d="m 298.58437,83.00095 c -7.34149,-15.37422 -5.52981,-38.2374 4.03512,-67.44415 l 74.3615,5.76446 c 15.94153,19.31263 26.89751,39.87165 30.55163,62.25614 -37.16443,1.50455 -74.73919,3.82974 -108.94825,-0.57645 z"
       style="fill:#80b3ff;fill-rule:evenodd;stroke:#000000;stroke-width:5;stroke-linecap:butt;stroke-linejoin:miter;stroke-miterlimit:4;stroke-dasharray:none;stroke-opacity:1" />
    <path
       inkscape:connector-curvature="0"
       id="path3258"
       d="m 141.95294,138.9076 -44.836961,-11.41304 -0.407608,22.01086 48.505439,-0.81521"
       style="fill:#333333;fill-rule:evenodd;stroke:#000000;stroke-width:5;stroke-linecap:butt;stroke-linejoin:miter;stroke-miterlimit:4;stroke-dasharray:none;stroke-opacity:1" />
    <g
       transform="translate(162.00185,244.51086)"
       id="g3270">
      <circle
         style="fill:none;stroke:#000000;stroke-width:5;stroke-miterlimit:4;stroke-dasharray:none;stroke-opacity:1"
         id="path3260"
         cx="117.09783"
         cy="-118.20108"
         r="23.759172" />
      <path
         style="fill:none;fill-rule:evenodd;stroke:#000000;stroke-width:5;stroke-linecap:butt;stroke-linejoin:miter;stroke-miterlimit:4;stroke-dasharray:none;stroke-opacity:1"
         d="m 106.64246,-138.7403 19.59916,40.351199"
         id="path3262"
         inkscape:connector-curvature="0" />
      <path
         sodipodi:nodetypes="cc"
         style="fill:none;fill-rule:evenodd;stroke:#000000;stroke-width:5;stroke-linecap:butt;stroke-linejoin:miter;stroke-miterlimit:4;stroke-dasharray:none;stroke-opacity:1"
         d="M 114.71271,-120.87048 104.6249,-98.965547"
         id="path3266"
         inkscape:connector-curvature="0" />
      <path
         sodipodi:nodetypes="cc"
         style="fill:none;fill-rule:evenodd;stroke:#000000;stroke-width:5;stroke-linecap:butt;stroke-linejoin:miter;stroke-miterlimit:4;stroke-dasharray:none;stroke-opacity:1"
         d="m 115.57737,-121.44693 24.21072,6.91735"
         id="path3268"
         inkscape:connector-curvature="0" />
    </g>
    <path
       sodipodi:nodetypes="cc"
       inkscape:connector-curvature="0"
       id="path3310"
       d="m 273.20293,172.73912 93.3424,-5.29891"
       style="fill:none;fill-rule:evenodd;stroke:#000000;stroke-width:5;stroke-linecap:butt;stroke-linejoin:miter;stroke-miterlimit:4;stroke-dasharray:none;stroke-opacity:1" />
    <path
       inkscape:connector-curvature="0"
       id="path3312"
       d="m 316.81707,106.2989 c 0,1.90218 0,3.80435 0,5.70653 0,0.54347 -0.0674,1.09115 0,1.63043 0.0695,0.55588 0.32838,1.07586 0.40761,1.63044 0.54292,3.80048 -1.00274,-2.38052 0.4076,3.26086 0.10421,0.41683 0.33698,0.79902 0.40761,1.22283 0.067,0.40206 -0.0576,0.81931 0,1.22283 0.0792,0.55457 0.25371,1.09178 0.40761,1.63043 0.11804,0.41313 0.34685,0.79749 0.40761,1.22283 0.0769,0.53801 0,1.08695 0,1.63043 0,0.13587 -0.0329,0.2758 0,0.40761 0.10421,0.41683 0.3034,0.806 0.40761,1.22283 0.11349,0.45397 -0.31454,0.86175 0.40761,1.22282 0.85284,0.42642 3.42772,-0.77007 3.66848,-0.81521 1.34208,-0.25164 2.71739,-0.27174 4.07608,-0.40761 1.63044,-0.27174 3.27048,-0.49105 4.89131,-0.81522 2.1973,-0.43946 4.33066,-1.16092 6.52174,-1.63043 0.80811,-0.17317 1.62258,-0.33279 2.44565,-0.40761 0.67656,-0.0615 1.38483,0.18663 2.03804,0 0.36951,-0.10558 0.54348,-0.54348 0.81522,-0.81522"
       style="fill:none;fill-rule:evenodd;stroke:#000000;stroke-width:5;stroke-linecap:butt;stroke-linejoin:miter;stroke-miterlimit:4;stroke-dasharray:none;stroke-opacity:1" />
    <path
       inkscape:connector-curvature="0"
       id="path3314"
       d="m 343.71924,103.03803 c -0.0432,0.10801 -0.85541,2.30215 -1.22282,2.85327 -0.10659,0.15987 -0.36101,0.22119 -0.40761,0.4076 0,0.40761 0,0.81522 0,1.22283 -0.13587,0.13587 -0.34685,0.22532 -0.40761,0.40761 -0.0859,0.25779 0.0859,0.55742 0,0.81522 -0.0608,0.18228 -0.34685,0.22532 -0.40761,0.4076 -0.12565,0.37695 0.13427,2.17711 0,2.44566 -0.0859,0.17186 -0.34685,0.22532 -0.40761,0.40761 -0.0622,0.18658 0,1.81053 0,2.03804 0,0.40042 -0.0899,2.17606 0,2.44565 0.0961,0.28822 0.23908,0.56243 0.40761,0.81522 0.10658,0.15988 0.27174,0.27174 0.40761,0.40761 0.40761,0.40761 0.81522,0.81521 1.22282,1.22282 0.13587,0.13587 0.30103,0.24773 0.40761,0.40761 0.16853,0.25279 0.23909,0.56243 0.40761,0.81522 0.10659,0.15988 0.27174,0.27174 0.40761,0.40761 0.27174,0.27174 0.54348,0.54348 0.81522,0.81522 0.13587,0.13587 0.24773,0.30102 0.40761,0.4076 0.25278,0.16853 0.56243,0.23909 0.81521,0.40761 0.74582,0.49721 0.0407,0.51968 1.22283,0.81522 0.26363,0.0659 0.57217,-0.12153 0.81522,0 0.34372,0.17186 0.49546,0.60205 0.81521,0.81522 0.11305,0.0754 0.27174,0 0.40761,0 0.27174,0 0.55743,-0.0859 0.81522,0 0.18229,0.0608 0.23575,0.32167 0.40761,0.40761 0.12393,0.062 1.34897,0 1.63043,0 0.40042,0 2.17606,0.0899 2.44566,0 0.27174,-0.13587 0.54347,-0.27174 0.81521,-0.40761 0,-0.13587 -0.0961,-0.31154 0,-0.40761 0.0961,-0.0961 0.28609,0.0608 0.40761,0 0.17186,-0.0859 0.24773,-0.30102 0.40761,-0.40761 0.25279,-0.16853 0.60039,-0.19278 0.81522,-0.40761 0.0961,-0.0961 -0.043,-0.27871 0,-0.40761 0.0961,-0.28822 0.23908,-0.56243 0.40761,-0.81521 0.29397,-0.44096 0.52124,-0.37426 0.81521,-0.81522 0.16853,-0.25279 0.23909,-0.56243 0.40761,-0.81522 0.21317,-0.31975 0.69369,-0.45064 0.81522,-0.81522 0.0859,-0.25779 -0.0859,-0.55742 0,-0.81521 0.0608,-0.18229 0.30102,-0.24774 0.40761,-0.40761 1.18683,-1.78025 -0.18066,0.13435 0.40761,-1.63044 0.0608,-0.18229 0.34684,-0.22532 0.40761,-0.40761 0.0859,-0.25779 0,-0.54347 0,-0.81521 0,-0.81522 0,-1.63044 0,-2.44566 0,-0.0969 0.0457,-1.53907 0,-1.63043 -0.0859,-0.17186 -0.32168,-0.23575 -0.40761,-0.40761 -0.0608,-0.12152 0.0608,-0.28608 0,-0.40761 -0.0859,-0.17186 -0.27174,-0.27174 -0.40761,-0.40761 -0.13587,-0.13587 -0.23575,-0.32167 -0.40761,-0.40761 -0.12153,-0.0608 -0.28608,0.0608 -0.40761,0 -0.46729,-0.23364 -0.56699,-0.85048 -0.81522,-1.22282 -0.10658,-0.15988 -0.27173,-0.27174 -0.4076,-0.40761 -0.13587,-0.13587 -0.24774,-0.30102 -0.40761,-0.40761 -0.25279,-0.16852 -0.56243,-0.23908 -0.81522,-0.40761 -0.15988,-0.10658 -0.25389,-0.29232 -0.40761,-0.40761 -0.39191,-0.29393 -0.83092,-0.52128 -1.22283,-0.81521 -0.81521,-0.61142 0,-0.40761 -1.22282,-1.22283 -0.11305,-0.0754 -0.28608,0.0608 -0.40761,0 -0.34373,-0.17186 -0.49546,-0.60205 -0.81522,-0.81522 -0.25279,-0.16852 -0.56243,-0.23908 -0.81521,-0.40761 -0.15988,-0.10658 -0.23575,-0.32167 -0.40761,-0.4076 -0.24305,-0.12153 -0.55743,0.0859 -0.81522,0 -0.28822,-0.0961 -0.527,-0.31154 -0.81522,-0.40761 -0.1289,-0.043 -0.28608,0.0608 -0.40761,0 -1.86546,-0.93274 1.72966,0.16894 -1.22282,-0.81522 -0.25584,-0.0853 -1.3023,0 -1.63044,0 -0.14969,0 -1.61403,-0.0164 -1.63043,0 -0.48037,0.48037 -0.81522,1.08696 -1.22283,1.63043 z"
       style="fill:none;fill-rule:evenodd;stroke:#000000;stroke-width:5;stroke-linecap:butt;stroke-linejoin:miter;stroke-miterlimit:4;stroke-dasharray:none;stroke-opacity:1" />
    <path
       inkscape:connector-curvature="0"
       id="path3316"
       d="m 363.28446,101.81521 c 1.45993,0.36498 1.60703,0.10466 2.44565,1.22282 0.18229,0.24306 0.27174,0.54348 0.40761,0.81522 0.40761,0.81522 0.88432,1.5994 1.22283,2.44565 0.46661,1.16655 0.24166,1.08213 0.81521,2.03805 0.25205,0.42007 0.56318,0.80275 0.81522,1.22282 0.31262,0.52104 0.47817,1.12486 0.81522,1.63044 0.10658,0.15988 0.34684,0.22532 0.40761,0.40761 0.0859,0.25779 -0.12153,0.57216 0,0.81521 0.17186,0.34373 0.58464,0.50778 0.81521,0.81522 0.18229,0.24305 0.23909,0.56243 0.40761,0.81522 0.10659,0.15988 0.30103,0.24773 0.40761,0.40761 0.16853,0.25279 0.31154,0.52699 0.40761,0.81522 0.043,0.12889 -0.0961,0.31153 0,0.4076 0.0961,0.0961 0.31153,-0.0961 0.40761,0 0.0961,0.0961 -0.0608,0.28609 0,0.40761 0.0859,0.17187 0.30102,0.24773 0.40761,0.40761 0.16852,0.25279 0.23908,0.56243 0.40761,0.81522 0.10658,0.15988 0.32167,0.23574 0.4076,0.40761 0.0608,0.12152 -0.0754,0.29456 0,0.40761 0.21317,0.31975 0.60205,0.49546 0.81522,0.81521 0.0754,0.11305 -0.043,0.27871 0,0.40761 0.0961,0.28822 0.31154,0.527 0.40761,0.81522 0.043,0.1289 -0.0608,0.28608 0,0.40761 0.2723,0.54459 0.54292,0.27062 0.81522,0.81522 0.21817,0.43634 -0.35296,0.86986 0.40761,1.63043 0.0961,0.0961 0.34684,0.12153 0.40761,0 0.13864,-0.27729 -0.10779,-2.42213 0,-2.85326 0.46837,-1.87349 0.4076,-0.0925 0.4076,-1.22283 0,-0.40761 0,-0.81521 0,-1.22282 0.13587,-0.13587 0.34685,-0.22532 0.40761,-0.40761 0.0859,-0.2578 -0.0859,-0.55742 0,-0.81522 0.0608,-0.18229 0.27174,-0.27174 0.40761,-0.40761 0.13587,-0.27174 0.33392,-0.52047 0.40761,-0.81521 0.0659,-0.26363 -0.0859,-0.55743 0,-0.81522 0.0608,-0.18229 0.30102,-0.24773 0.40761,-0.40761 0.16852,-0.25279 0.31153,-0.527 0.40761,-0.81522 0.40446,-1.21338 -0.96517,0.83634 0.40761,-1.22282 0.62182,-0.93274 0.32265,0.25487 0.81521,-1.22283 0.043,-0.1289 -0.043,-0.27871 0,-0.40761 0.0961,-0.28822 0.31154,-0.52699 0.40761,-0.81522 0.043,-0.12889 -0.0608,-0.28608 0,-0.40761 0.0859,-0.17186 0.34685,-0.22532 0.40761,-0.4076 0.0859,-0.2578 -0.0859,-0.55743 0,-0.81522 0.0608,-0.18229 0.34685,-0.22532 0.40761,-0.40761 0.0859,-0.25779 -0.0859,-0.55742 0,-0.81522 0.0608,-0.18229 0.34685,-0.22532 0.40761,-0.40761 0.0859,-0.25779 -0.0859,-0.55742 0,-0.81521 0.12152,-0.36458 0.64335,-0.4715 0.81522,-0.81522 0.0608,-0.12153 -0.043,-0.27871 0,-0.40761 0.0961,-0.28822 0.31153,-0.52699 0.4076,-0.81522 0.043,-0.12889 -0.0608,-0.28608 0,-0.40761 0.0859,-0.17186 0.32168,-0.23574 0.40761,-0.4076 0.0808,-0.16162 -0.0833,-1.1395 0,-1.22283 0.0961,-0.0961 0.31154,0.0961 0.40761,0 0.0833,-0.0833 -0.0808,-1.06121 0,-1.22283 0.0859,-0.17186 0.32168,-0.23574 0.40761,-0.40761 0.0608,-0.12152 -0.0329,-0.27579 0,-0.4076 0.10421,-0.41683 0.3034,-0.806 0.40761,-1.22283 0.35571,-1.42284 -0.85616,1.30471 0.40761,-1.22283"
       style="fill:none;fill-rule:evenodd;stroke:#000000;stroke-width:5;stroke-linecap:butt;stroke-linejoin:miter;stroke-miterlimit:4;stroke-dasharray:none;stroke-opacity:1" />
    <path
       inkscape:connector-curvature="0"
       id="path3318"
       d="m 392.63228,98.96195 c 0,0.54348 0.0893,1.09435 0,1.63043 -0.0499,0.29968 -0.34802,0.51731 -0.4076,0.81522 -0.0684,0.34197 0,3.39218 0,3.66848 0,2.58152 0,5.16304 0,7.74456 0,0.95109 0,1.90218 0,2.85326 0,0.0969 0.0457,1.53908 0,1.63044 -0.0859,0.17186 -0.32168,0.23574 -0.40761,0.40761 -0.0608,0.12152 0,0.27174 0,0.40761 0,0.27174 0.0859,0.55742 0,0.81521 -0.0608,0.18229 -0.34685,0.22532 -0.40761,0.40761 -0.0622,0.18659 0,1.81054 0,2.03805 0,0.13587 0.0961,0.31153 0,0.4076 -0.0961,0.0961 -0.31154,-0.0961 -0.40761,0 -0.0961,0.0961 -0.0961,0.31154 0,0.40761 0.23501,0.23501 0.81148,-0.27049 1.22283,-0.40761 0.12889,-0.043 0.28608,0.0608 0.4076,0 0.17187,-0.0859 0.22533,-0.34684 0.40761,-0.4076 0.2578,-0.0859 0.5516,0.0659 0.81522,0 2.30938,-1.1547 -0.60763,0.1519 1.63044,-0.40761 1.0874,-0.27185 0.54302,-0.54337 1.63043,-0.81522 0.26363,-0.0659 0.57217,0.12152 0.81522,0 0.34372,-0.17186 0.49546,-0.60205 0.81522,-0.81522 0.0692,-0.0462 2.18469,0 2.44565,0 2.03804,0 4.07608,0 6.11413,0"
       style="fill:none;fill-rule:evenodd;stroke:#000000;stroke-width:5;stroke-linecap:butt;stroke-linejoin:miter;stroke-miterlimit:4;stroke-dasharray:none;stroke-opacity:1" />
    <path
       inkscape:connector-curvature="0"
       id="path3320"
       d="m 392.22468,109.96738 c 2.17391,0 4.34782,0 6.52174,0 0.28146,0 1.5065,0.062 1.63043,0 0.17186,-0.0859 0.23575,-0.32168 0.40761,-0.40761 0.12152,-0.0608 0.27174,0 0.40761,0 0.13587,0 0.27174,0 0.40761,0 0.81521,0 1.63043,0 2.44565,0"
       style="fill:none;fill-rule:evenodd;stroke:#000000;stroke-width:5;stroke-linecap:butt;stroke-linejoin:miter;stroke-miterlimit:4;stroke-dasharray:none;stroke-opacity:1" />
    <path
       inkscape:connector-curvature="0"
       id="path3322"
       d="m 391.81707,99.36956 c 0.54348,0 1.09435,0.0893 1.63043,0 0.29968,-0.0499 0.527,-0.31154 0.81522,-0.40761 0.27689,-0.0923 2.3275,0 2.85326,0 2.17391,0 4.34783,0 6.52174,0"
       style="fill:none;fill-rule:evenodd;stroke:#000000;stroke-width:5;stroke-linecap:butt;stroke-linejoin:miter;stroke-miterlimit:4;stroke-dasharray:none;stroke-opacity:1" />
    <path
       sodipodi:nodetypes="csssssssscsssssscsssssc"
       inkscape:connector-curvature="0"
       id="path3343"
       d="m 89.369532,128.52319 c 6.250438,-15.7052 -9.074591,-11.96637 -8.510312,-14.00628 2.959362,-10.69833 -3.090645,-8.82305 -5.191735,-10.54519 -8.507155,-6.97282 -9.507734,-2.57847 -10.247256,-6.84059 -0.89105,-5.13551 -3.63672,-6.47718 -8.69457,-5.97459 -4.22722,0.42005 -5.24636,-6.96575 -10.80816,-5.79676 -3.14773,0.66159 -3.43477,-6.85901 -11.62005,-2.68929 -2.73633,1.39394 -3.17981,-1.80992 -10.36079,2.033 -2.10521,1.12661 -5.40914,-3.21461 -7.45445,3.78836 -1.57614,5.39655 -8.8535205,1.25851 -9.0029405,5.93911 -6.11214,2.75984 -4.00697,5.50525 -2.35075,9.79489 1.16825,3.02581 -6.86747,6.47058 0.53493,10.51955 2.1374,1.16911 -4.91938995,7.75672 3.8257,10.37773 2.1484405,0.64391 1.2709505,1.47425 4.2056705,6.74124 1.13693,2.04048 5.30106,0.35309 5.59123,3.20455 0.27636,2.71575 3.86107,-2.04736 7.9194,2.06138 2.3484,2.37759 4.91767,4.83201 8.23143,4.28099 3.09607,3.98842 7.16345,-2.37523 9.83638,-0.22722 1.417,1.13872 3.45468,2.35165 6.78453,1.36301 1.87865,-0.55777 3.34336,2.28534 5.82781,0.43748 2.46108,-1.83049 5.10864,3.74209 9.629652,1.75838 2.52367,-1.10732 4.727339,3.02744 6.427007,4.39233 2.992873,2.4034 13.912781,-1.96802 18.100214,-0.20722"
       style="fill:#808080;fill-rule:evenodd;stroke:#000000;stroke-width:5;stroke-linecap:butt;stroke-linejoin:miter;stroke-miterlimit:4;stroke-dasharray:none;stroke-opacity:1" />
  </g>
</svg>
