<svg version="1.1" viewBox="0.0 0.0 600.0 249.0" fill="none" stroke="none" stroke-linecap="square" stroke-miterlimit="10" width="600" height="249" xmlns:xlink="http://www.w3.org/1999/xlink" xmlns="http://www.w3.org/2000/svg"><path fill="#ffffff" d="M0 0L600.0 0L600.0 249.0L0 249.0L0 0Z" fill-rule="nonzero"/><path stroke="#333333" stroke-width="1.0" stroke-linecap="butt" d="M43.5 216.5L452.5 216.5" fill-rule="nonzero"/><path stroke="#cccccc" stroke-width="1.0" stroke-linecap="butt" d="M43.5 169.5L452.5 169.5" fill-rule="nonzero"/><path stroke="#cccccc" stroke-width="1.0" stroke-linecap="butt" d="M43.5 122.5L452.5 122.5" fill-rule="nonzero"/><path stroke="#cccccc" stroke-width="1.0" stroke-linecap="butt" d="M43.5 75.5L452.5 75.5" fill-rule="nonzero"/><clipPath id="id_0"><path d="M43.45 51.75L452.76334 51.75L452.76334 216.55L43.45 216.55L43.45 51.75Z" clip-rule="nonzero"/></clipPath><path stroke="#000000" stroke-width="2.0" stroke-linecap="butt" stroke-opacity="0.0" clip-path="url(#id_0)" d="M101.0 217.0L87.0 217.0L87.0 175.0C87.0 173.89543 87.89543 173.0 89.0 173.0L99.0 173.0C100.10457 173.0 101.0 173.89543 101.0 175.0Z" fill-rule="nonzero"/><path fill="#4285f4" clip-path="url(#id_0)" d="M101.0 217.0L87.0 217.0L87.0 175.0C87.0 173.89543 87.89543 173.0 89.0 173.0L99.0 173.0C100.10457 173.0 101.0 173.89543 101.0 175.0Z" fill-rule="nonzero"/><path stroke="#000000" stroke-width="2.0" stroke-linecap="butt" stroke-opacity="0.0" clip-path="url(#id_0)" d="M223.0 217.0L209.0 217.0L209.0 109.0C209.0 107.89543 209.89543 107.0 211.0 107.0L221.0 107.0C222.10457 107.0 223.0 107.89543 223.0 109.0Z" fill-rule="nonzero"/><path fill="#4285f4" clip-path="url(#id_0)" d="M223.0 217.0L209.0 217.0L209.0 109.0C209.0 107.89543 209.89543 107.0 211.0 107.0L221.0 107.0C222.10457 107.0 223.0 107.89543 223.0 109.0Z" fill-rule="nonzero"/><path stroke="#000000" stroke-width="2.0" stroke-linecap="butt" stroke-opacity="0.0" clip-path="url(#id_0)" d="M345.0 217.0L331.0 217.0L331.0 71.0C331.0 69.89543 331.89542 69.0 333.0 69.0L343.0 69.0C344.10458 69.0 345.0 69.89543 345.0 71.0Z" fill-rule="nonzero"/><path fill="#4285f4" clip-path="url(#id_0)" d="M345.0 217.0L331.0 217.0L331.0 71.0C331.0 69.89543 331.89542 69.0 333.0 69.0L343.0 69.0C344.10458 69.0 345.0 69.89543 345.0 71.0Z" fill-rule="nonzero"/><path stroke="#000000" stroke-width="2.0" stroke-linecap="butt" stroke-opacity="0.0" clip-path="url(#id_0)" d="M117.0 217.0L103.0 217.0L103.0 105.0C103.0 103.89543 103.89543 103.0 105.0 103.0L115.0 103.0C116.10457 103.0 117.0 103.89543 117.0 105.0Z" fill-rule="nonzero"/><path fill="#ea4335" clip-path="url(#id_0)" d="M117.0 217.0L103.0 217.0L103.0 105.0C103.0 103.89543 103.89543 103.0 105.0 103.0L115.0 103.0C116.10457 103.0 117.0 103.89543 117.0 105.0Z" fill-rule="nonzero"/><path stroke="#000000" stroke-width="2.0" stroke-linecap="butt" stroke-opacity="0.0" clip-path="url(#id_0)" d="M239.0 217.0L225.0 217.0L225.0 145.0C225.0 143.89543 225.89543 143.0 227.0 143.0L237.0 143.0C238.10457 143.0 239.0 143.89543 239.0 145.0Z" fill-rule="nonzero"/><path fill="#ea4335" clip-path="url(#id_0)" d="M239.0 217.0L225.0 217.0L225.0 145.0C225.0 143.89543 225.89543 143.0 227.0 143.0L237.0 143.0C238.10457 143.0 239.0 143.89543 239.0 145.0Z" fill-rule="nonzero"/><path stroke="#000000" stroke-width="2.0" stroke-linecap="butt" stroke-opacity="0.0" clip-path="url(#id_0)" d="M361.0 217.0L347.0 217.0L347.0 167.0C347.0 165.89543 347.89542 165.0 349.0 165.0L359.0 165.0C360.10458 165.0 361.0 165.89543 361.0 167.0Z" fill-rule="nonzero"/><path fill="#ea4335" clip-path="url(#id_0)" d="M361.0 217.0L347.0 217.0L347.0 167.0C347.0 165.89543 347.89542 165.0 349.0 165.0L359.0 165.0C360.10458 165.0 361.0 165.89543 361.0 167.0Z" fill-rule="nonzero"/><path stroke="#000000" stroke-width="2.0" stroke-linecap="butt" stroke-opacity="0.0" clip-path="url(#id_0)" d="M133.0 217.0L119.0 217.0L119.0 184.0C119.0 182.89543 119.89543 182.0 121.0 182.0L131.0 182.0C132.10457 182.0 133.0 182.89543 133.0 184.0Z" fill-rule="nonzero"/><path fill="#fbbc04" clip-path="url(#id_0)" d="M133.0 217.0L119.0 217.0L119.0 184.0C119.0 182.89543 119.89543 182.0 121.0 182.0L131.0 182.0C132.10457 182.0 133.0 182.89543 133.0 184.0Z" fill-rule="nonzero"/><path stroke="#000000" stroke-width="2.0" stroke-linecap="butt" stroke-opacity="0.0" clip-path="url(#id_0)" d="M255.0 217.0L241.0 217.0L241.0 198.0C241.0 196.89543 241.89543 196.0 243.0 196.0L253.0 196.0C254.10457 196.0 255.0 196.89543 255.0 198.0Z" fill-rule="nonzero"/><path fill="#fbbc04" clip-path="url(#id_0)" d="M255.0 217.0L241.0 217.0L241.0 198.0C241.0 196.89543 241.89543 196.0 243.0 196.0L253.0 196.0C254.10457 196.0 255.0 196.89543 255.0 198.0Z" fill-rule="nonzero"/><path stroke="#000000" stroke-width="2.0" stroke-linecap="butt" stroke-opacity="0.0" clip-path="url(#id_0)" d="M377.0 217.0L363.0 217.0L363.0 86.0C363.0 84.89543 363.89542 84.0 365.0 84.0L375.0 84.0C376.10458 84.0 377.0 84.89543 377.0 86.0Z" fill-rule="nonzero"/><path fill="#fbbc04" clip-path="url(#id_0)" d="M377.0 217.0L363.0 217.0L363.0 86.0C363.0 84.89543 363.89542 84.0 365.0 84.0L375.0 84.0C376.10458 84.0 377.0 84.89543 377.0 86.0Z" fill-rule="nonzero"/><path stroke="#000000" stroke-width="2.0" stroke-linecap="butt" stroke-opacity="0.0" clip-path="url(#id_0)" d="M149.0 217.0L135.0 217.0L135.0 175.0C135.0 173.89543 135.89543 173.0 137.0 173.0L147.0 173.0C148.10457 173.0 149.0 173.89543 149.0 175.0Z" fill-rule="nonzero"/><path fill="#34a853" clip-path="url(#id_0)" d="M149.0 217.0L135.0 217.0L135.0 175.0C135.0 173.89543 135.89543 173.0 137.0 173.0L147.0 173.0C148.10457 173.0 149.0 173.89543 149.0 175.0Z" fill-rule="nonzero"/><path stroke="#000000" stroke-width="2.0" stroke-linecap="butt" stroke-opacity="0.0" clip-path="url(#id_0)" d="M271.0 217.0L257.0 217.0L257.0 198.0C257.0 196.89543 257.89542 196.0 259.0 196.0L269.0 196.0C270.10458 196.0 271.0 196.89543 271.0 198.0Z" fill-rule="nonzero"/><path fill="#34a853" clip-path="url(#id_0)" d="M271.0 217.0L257.0 217.0L257.0 198.0C257.0 196.89543 257.89542 196.0 259.0 196.0L269.0 196.0C270.10458 196.0 271.0 196.89543 271.0 198.0Z" fill-rule="nonzero"/><path stroke="#000000" stroke-width="2.0" stroke-linecap="butt" stroke-opacity="0.0" clip-path="url(#id_0)" d="M393.0 217.0L379.0 217.0L379.0 211.0C379.0 209.89543 379.89542 209.0 381.0 209.0L391.0 209.0C392.10458 209.0 393.0 209.89543 393.0 211.0Z" fill-rule="nonzero"/><path fill="#34a853" clip-path="url(#id_0)" d="M393.0 217.0L379.0 217.0L379.0 211.0C379.0 209.89543 379.89542 209.0 381.0 209.0L391.0 209.0C392.10458 209.0 393.0 209.89543 393.0 211.0Z" fill-rule="nonzero"/><path stroke="#000000" stroke-width="2.0" stroke-linecap="butt" stroke-opacity="0.0" clip-path="url(#id_0)" d="M165.0 217.0L151.0 217.0L151.0 184.0C151.0 182.89543 151.89543 182.0 153.0 182.0L163.0 182.0C164.10457 182.0 165.0 182.89543 165.0 184.0Z" fill-rule="nonzero"/><path fill="#ff6d01" clip-path="url(#id_0)" d="M165.0 217.0L151.0 217.0L151.0 184.0C151.0 182.89543 151.89543 182.0 153.0 182.0L163.0 182.0C164.10457 182.0 165.0 182.89543 165.0 184.0Z" fill-rule="nonzero"/><path stroke="#000000" stroke-width="2.0" stroke-linecap="butt" stroke-opacity="0.0" clip-path="url(#id_0)" d="M287.0 217.0L273.0 217.0L273.0 217.0L287.0 217.0Z" fill-rule="nonzero"/><path fill="#ff6d01" clip-path="url(#id_0)" d="M287.0 217.0L273.0 217.0L273.0 217.0L287.0 217.0Z" fill-rule="nonzero"/><path stroke="#000000" stroke-width="2.0" stroke-linecap="butt" stroke-opacity="0.0" clip-path="url(#id_0)" d="M409.0 217.0L395.0 217.0L395.0 217.0L409.0 217.0Z" fill-rule="nonzero"/><path fill="#ff6d01" clip-path="url(#id_0)" d="M409.0 217.0L395.0 217.0L395.0 217.0L409.0 217.0Z" fill-rule="nonzero"/><path fill="#000000" d="M19.95 216.31563Q19.95 214.78438 20.2625 213.8625Q20.575 212.925 21.184376 212.425Q21.809376 211.925 22.746876 211.925Q23.434376 211.925 23.95 212.20625Q24.48125 212.4875 24.825 213.01875Q25.16875 213.53438 25.35625 214.28438Q25.54375 215.03438 25.54375 216.31563Q25.54375 217.83125 25.23125 218.75313Q24.934376 219.675 24.309376 220.19063Q23.7 220.69063 22.746876 220.69063Q21.5125 220.69063 20.79375 219.8Q19.95 218.7375 19.95 216.31563ZM21.028126 216.31563Q21.028126 218.425 21.528126 219.12813Q22.028126 219.83125 22.746876 219.83125Q23.48125 219.83125 23.965626 219.12813Q24.465626 218.425 24.465626 216.31563Q24.465626 214.19063 23.965626 213.50313Q23.48125 212.8 22.73125 212.8Q22.0125 212.8 21.575 213.40938Q21.028126 214.19063 21.028126 216.31563ZM27.153126 214.01875Q27.153126 213.09688 27.60625 212.45625Q28.075 211.81563 28.95 211.81563Q29.7625 211.81563 30.29375 212.39375Q30.825 212.97188 30.825 214.08125Q30.825 215.175 30.278126 215.76875Q29.746876 216.34688 28.965626 216.34688Q28.184376 216.34688 27.66875 215.76875Q27.153126 215.19063 27.153126 214.01875ZM28.98125 212.53438Q28.590626 212.53438 28.325 212.87813Q28.075 213.22188 28.075 214.12813Q28.075 214.95625 28.325 215.3Q28.590626 215.62813 28.98125 215.62813Q29.3875 215.62813 29.6375 215.28438Q29.903126 214.94063 29.903126 214.05Q29.903126 213.20625 29.6375 212.87813Q29.371876 212.53438 28.98125 212.53438ZM28.98125 220.8625L33.684376 211.81563L34.54375 211.81563L29.85625 220.8625L28.98125 220.8625ZM32.7 218.53438Q32.7 217.6125 33.153126 216.97188Q33.621876 216.33125 34.5125 216.33125Q35.325 216.33125 35.85625 216.90938Q36.3875 217.47188 36.3875 218.59688Q36.3875 219.69063 35.840626 220.28438Q35.309376 220.8625 34.5125 220.8625Q33.746876 220.8625 33.215626 220.28438Q32.7 219.70625 32.7 218.53438ZM34.54375 217.05Q34.1375 217.05 33.871876 217.39375Q33.621876 217.7375 33.621876 218.64375Q33.621876 219.45625 33.8875 219.8Q34.153126 220.14375 34.54375 220.14375Q34.934376 220.14375 35.2 219.8Q35.465626 219.45625 35.465626 218.55Q35.465626 217.72188 35.2 217.39375Q34.934376 217.05 34.54375 217.05Z" fill-rule="nonzero"/><path fill="#000000" d="M18.496876 172.44865L18.496876 173.46428L12.809375 173.46428Q12.809375 173.08928 12.934375 172.7299Q13.153125 172.15178 13.621875 171.58928Q14.10625 171.02678 15.0125 170.2924Q16.41875 169.13615 16.903126 168.46428Q17.403126 167.7924 17.403126 167.19865Q17.403126 166.57365 16.95 166.15178Q16.496876 165.71428 15.778125 165.71428Q15.0125 165.71428 14.559375 166.1674Q14.10625 166.62053 14.090625 167.43303L13.0125 167.32365Q13.121875 166.1049 13.840625 165.4799Q14.575 164.83928 15.809375 164.83928Q17.04375 164.83928 17.7625 165.52678Q18.48125 166.21428 18.48125 167.2299Q18.48125 167.74553 18.2625 168.24553Q18.059376 168.7299 17.559376 169.2924Q17.075 169.83928 15.95 170.7924Q14.996875 171.58928 14.715625 171.88615Q14.45 172.1674 14.278125 172.44865L18.496876 172.44865ZM19.95 169.2299Q19.95 167.69865 20.2625 166.77678Q20.575 165.83928 21.184376 165.33928Q21.809376 164.83928 22.746876 164.83928Q23.434376 164.83928 23.95 165.12053Q24.48125 165.40178 24.825 165.93303Q25.16875 166.44865 25.35625 167.19865Q25.54375 167.94865 25.54375 169.2299Q25.54375 170.74553 25.23125 171.6674Q24.934376 172.58928 24.309376 173.1049Q23.7 173.6049 22.746876 173.6049Q21.5125 173.6049 20.79375 172.71428Q19.95 171.65178 19.95 169.2299ZM21.028126 169.2299Q21.028126 171.33928 21.528126 172.0424Q22.028126 172.74553 22.746876 172.74553Q23.48125 172.74553 23.965626 172.0424Q24.465626 171.33928 24.465626 169.2299Q24.465626 167.1049 23.965626 166.4174Q23.48125 165.71428 22.73125 165.71428Q22.0125 165.71428 21.575 166.32365Q21.028126 167.1049 21.028126 169.2299ZM27.153126 166.93303Q27.153126 166.01115 27.60625 165.37053Q28.075 164.7299 28.95 164.7299Q29.7625 164.7299 30.29375 165.30803Q30.825 165.88615 30.825 166.99553Q30.825 168.08928 30.278126 168.68303Q29.746876 169.26115 28.965626 169.26115Q28.184376 169.26115 27.66875 168.68303Q27.153126 168.1049 27.153126 166.93303ZM28.98125 165.44865Q28.590626 165.44865 28.325 165.7924Q28.075 166.13615 28.075 167.0424Q28.075 167.87053 28.325 168.21428Q28.590626 168.5424 28.98125 168.5424Q29.3875 168.5424 29.6375 168.19865Q29.903126 167.8549 29.903126 166.96428Q29.903126 166.12053 29.6375 165.7924Q29.371876 165.44865 28.98125 165.44865ZM28.98125 173.77678L33.684376 164.7299L34.54375 164.7299L29.85625 173.77678L28.98125 173.77678ZM32.7 171.44865Q32.7 170.52678 33.153126 169.88615Q33.621876 169.24553 34.5125 169.24553Q35.325 169.24553 35.85625 169.82365Q36.3875 170.38615 36.3875 171.51115Q36.3875 172.6049 35.840626 173.19865Q35.309376 173.77678 34.5125 173.77678Q33.746876 173.77678 33.215626 173.19865Q32.7 172.62053 32.7 171.44865ZM34.54375 169.96428Q34.1375 169.96428 33.871876 170.30803Q33.621876 170.65178 33.621876 171.55803Q33.621876 172.37053 33.8875 172.71428Q34.153126 173.05803 34.54375 173.05803Q34.934376 173.05803 35.2 172.71428Q35.465626 172.37053 35.465626 171.46428Q35.465626 170.63615 35.2 170.30803Q34.934376 169.96428 34.54375 169.96428Z" fill-rule="nonzero"/><path fill="#000000" d="M16.325 126.37857L16.325 124.31607L12.60625 124.31607L12.60625 123.34732L16.528126 117.78482L17.3875 117.78482L17.3875 123.34732L18.54375 123.34732L18.54375 124.31607L17.3875 124.31607L17.3875 126.37857L16.325 126.37857ZM16.325 123.34732L16.325 119.487946L13.6375 123.34732L16.325 123.34732ZM19.95 122.144196Q19.95 120.612946 20.2625 119.69107Q20.575 118.75357 21.184376 118.25357Q21.809376 117.75357 22.746876 117.75357Q23.434376 117.75357 23.95 118.03482Q24.48125 118.31607 24.825 118.84732Q25.16875 119.362946 25.35625 120.112946Q25.54375 120.862946 25.54375 122.144196Q25.54375 123.65982 25.23125 124.581696Q24.934376 125.50357 24.309376 126.019196Q23.7 126.519196 22.746876 126.519196Q21.5125 126.519196 20.79375 125.62857Q19.95 124.56607 19.95 122.144196ZM21.028126 122.144196Q21.028126 124.25357 21.528126 124.956696Q22.028126 125.65982 22.746876 125.65982Q23.48125 125.65982 23.965626 124.956696Q24.465626 124.25357 24.465626 122.144196Q24.465626 120.019196 23.965626 119.331696Q23.48125 118.62857 22.73125 118.62857Q22.0125 118.62857 21.575 119.237946Q21.028126 120.019196 21.028126 122.144196ZM27.153126 119.84732Q27.153126 118.925446 27.60625 118.28482Q28.075 117.644196 28.95 117.644196Q29.7625 117.644196 30.29375 118.22232Q30.825 118.800446 30.825 119.90982Q30.825 121.00357 30.278126 121.59732Q29.746876 122.175446 28.965626 122.175446Q28.184376 122.175446 27.66875 121.59732Q27.153126 121.019196 27.153126 119.84732ZM28.98125 118.362946Q28.590626 118.362946 28.325 118.706696Q28.075 119.050446 28.075 119.956696Q28.075 120.78482 28.325 121.12857Q28.590626 121.456696 28.98125 121.456696Q29.3875 121.456696 29.6375 121.112946Q29.903126 120.769196 29.903126 119.87857Q29.903126 119.03482 29.6375 118.706696Q29.371876 118.362946 28.98125 118.362946ZM28.98125 126.69107L33.684376 117.644196L34.54375 117.644196L29.85625 126.69107L28.98125 126.69107ZM32.7 124.362946Q32.7 123.44107 33.153126 122.800446Q33.621876 122.15982 34.5125 122.15982Q35.325 122.15982 35.85625 122.737946Q36.3875 123.300446 36.3875 124.425446Q36.3875 125.519196 35.840626 126.112946Q35.309376 126.69107 34.5125 126.69107Q33.746876 126.69107 33.215626 126.112946Q32.7 125.53482 32.7 124.362946ZM34.54375 122.87857Q34.1375 122.87857 33.871876 123.22232Q33.621876 123.56607 33.621876 124.47232Q33.621876 125.28482 33.8875 125.62857Q34.153126 125.97232 34.54375 125.97232Q34.934376 125.97232 35.2 125.62857Q35.465626 125.28482 35.465626 124.37857Q35.465626 123.550446 35.2 123.22232Q34.934376 122.87857 34.54375 122.87857Z" fill-rule="nonzero"/><path fill="#000000" d="M18.41875 72.80848L17.371876 72.886604Q17.23125 72.261604 16.98125 71.980354Q16.54375 71.52723 15.91875 71.52723Q15.41875 71.52723 15.028125 71.80848Q14.54375 72.18348 14.246875 72.886604Q13.965625 73.574104 13.95 74.855354Q14.325 74.27723 14.871875 73.99598Q15.434375 73.71473 16.04375 73.71473Q17.090626 73.71473 17.825 74.49598Q18.575 75.27723 18.575 76.49598Q18.575 77.30848 18.215626 78.011604Q17.871876 78.699104 17.2625 79.074104Q16.653126 79.43348 15.8875 79.43348Q14.559375 79.43348 13.73125 78.46473Q12.903125 77.49598 12.903125 75.27723Q12.903125 72.77723 13.825 71.65223Q14.621875 70.667854 15.98125 70.667854Q16.996876 70.667854 17.6375 71.24598Q18.29375 71.80848 18.41875 72.80848ZM14.121875 76.511604Q14.121875 77.05848 14.340625 77.55848Q14.575 78.042854 14.98125 78.30848Q15.403125 78.574104 15.871875 78.574104Q16.528126 78.574104 17.0125 78.042854Q17.496876 77.49598 17.496876 76.574104Q17.496876 75.68348 17.0125 75.167854Q16.54375 74.65223 15.825 74.65223Q15.10625 74.65223 14.60625 75.167854Q14.121875 75.68348 14.121875 76.511604ZM19.95 75.05848Q19.95 73.52723 20.2625 72.605354Q20.575 71.667854 21.184376 71.167854Q21.809376 70.667854 22.746876 70.667854Q23.434376 70.667854 23.95 70.949104Q24.48125 71.230354 24.825 71.761604Q25.16875 72.27723 25.35625 73.02723Q25.54375 73.77723 25.54375 75.05848Q25.54375 76.574104 25.23125 77.49598Q24.934376 78.417854 24.309376 78.93348Q23.7 79.43348 22.746876 79.43348Q21.5125 79.43348 20.79375 78.542854Q19.95 77.480354 19.95 75.05848ZM21.028126 75.05848Q21.028126 77.167854 21.528126 77.87098Q22.028126 78.574104 22.746876 78.574104Q23.48125 78.574104 23.965626 77.87098Q24.465626 77.167854 24.465626 75.05848Q24.465626 72.93348 23.965626 72.24598Q23.48125 71.542854 22.73125 71.542854Q22.0125 71.542854 21.575 72.15223Q21.028126 72.93348 21.028126 75.05848ZM27.153126 72.761604Q27.153126 71.83973 27.60625 71.199104Q28.075 70.55848 28.95 70.55848Q29.7625 70.55848 30.29375 71.136604Q30.825 71.71473 30.825 72.824104Q30.825 73.917854 30.278126 74.511604Q29.746876 75.08973 28.965626 75.08973Q28.184376 75.08973 27.66875 74.511604Q27.153126 73.93348 27.153126 72.761604ZM28.98125 71.27723Q28.590626 71.27723 28.325 71.62098Q28.075 71.96473 28.075 72.87098Q28.075 73.699104 28.325 74.042854Q28.590626 74.37098 28.98125 74.37098Q29.3875 74.37098 29.6375 74.02723Q29.903126 73.68348 29.903126 72.792854Q29.903126 71.949104 29.6375 71.62098Q29.371876 71.27723 28.98125 71.27723ZM28.98125 79.605354L33.684376 70.55848L34.54375 70.55848L29.85625 79.605354L28.98125 79.605354ZM32.7 77.27723Q32.7 76.355354 33.153126 75.71473Q33.621876 75.074104 34.5125 75.074104Q35.325 75.074104 35.85625 75.65223Q36.3875 76.21473 36.3875 77.33973Q36.3875 78.43348 35.840626 79.02723Q35.309376 79.605354 34.5125 79.605354Q33.746876 79.605354 33.215626 79.02723Q32.7 78.449104 32.7 77.27723ZM34.54375 75.792854Q34.1375 75.792854 33.871876 76.136604Q33.621876 76.480354 33.621876 77.386604Q33.621876 78.199104 33.8875 78.542854Q34.153126 78.886604 34.54375 78.886604Q34.934376 78.886604 35.2 78.542854Q35.465626 78.199104 35.465626 77.292854Q35.465626 76.46473 35.2 76.136604Q34.934376 75.792854 34.54375 75.792854Z" fill-rule="nonzero"/><path fill="#000000" d="M117.97046 232.53438L117.97046 233.55L112.28296 233.55Q112.28296 233.175 112.40796 232.81563Q112.62671 232.2375 113.09546 231.675Q113.579834 231.1125 114.486084 230.37813Q115.892334 229.22188 116.37671 228.55Q116.87671 227.87813 116.87671 227.28438Q116.87671 226.65938 116.423584 226.2375Q115.97046 225.8 115.25171 225.8Q114.486084 225.8 114.03296 226.25313Q113.579834 226.70625 113.56421 227.51875L112.486084 227.40938Q112.59546 226.19063 113.31421 225.56563Q114.048584 224.925 115.28296 224.925Q116.517334 224.925 117.236084 225.6125Q117.954834 226.3 117.954834 227.31563Q117.954834 227.83125 117.736084 228.33125Q117.53296 228.81563 117.03296 229.37813Q116.548584 229.925 115.423584 230.87813Q114.47046 231.675 114.18921 231.97188Q113.923584 232.25313 113.75171 232.53438L117.97046 232.53438ZM119.423584 229.31563Q119.423584 227.78438 119.736084 226.8625Q120.048584 225.925 120.65796 225.425Q121.28296 224.925 122.22046 224.925Q122.90796 224.925 123.423584 225.20625Q123.954834 225.4875 124.298584 226.01875Q124.642334 226.53438 124.829834 227.28438Q125.017334 228.03438 125.017334 229.31563Q125.017334 230.83125 124.704834 231.75313Q124.40796 232.675 123.78296 233.19063Q123.173584 233.69063 122.22046 233.69063Q120.986084 233.69063 120.267334 232.8Q119.423584 231.7375 119.423584 229.31563ZM120.50171 229.31563Q120.50171 231.425 121.00171 232.12813Q121.50171 232.83125 122.22046 232.83125Q122.954834 232.83125 123.43921 232.12813Q123.93921 231.425 123.93921 229.31563Q123.93921 227.19063 123.43921 226.50313Q122.954834 225.8 122.204834 225.8Q121.486084 225.8 121.048584 226.40938Q120.50171 227.19063 120.50171 229.31563ZM130.39233 233.55L129.34546 233.55L129.34546 226.83125Q128.95483 227.19063 128.32983 227.56563Q127.72046 227.925 127.236084 228.09688L127.236084 227.08125Q128.11108 226.65938 128.76733 226.08125Q129.43921 225.4875 129.72046 224.925L130.39233 224.925L130.39233 233.55ZM135.04858 228.89375Q134.39233 228.64375 134.06421 228.20625Q133.75171 227.75313 133.75171 227.14375Q133.75171 226.20625 134.42358 225.56563Q135.11108 224.925 136.22046 224.925Q137.34546 224.925 138.03296 225.58125Q138.72046 226.2375 138.72046 227.175Q138.72046 227.76875 138.40796 228.20625Q138.09546 228.64375 137.45483 228.89375Q138.25171 229.14375 138.65796 229.72188Q139.06421 230.3 139.06421 231.09688Q139.06421 232.19063 138.28296 232.94063Q137.51733 233.69063 136.23608 233.69063Q134.97046 233.69063 134.18921 232.94063Q133.40796 232.19063 133.40796 231.06563Q133.40796 230.22188 133.82983 229.65938Q134.26733 229.09688 135.04858 228.89375ZM134.82983 227.09688Q134.82983 227.70625 135.22046 228.09688Q135.62671 228.4875 136.25171 228.4875Q136.86108 228.4875 137.25171 228.1125Q137.64233 227.72188 137.64233 227.15938Q137.64233 226.58125 137.23608 226.19063Q136.82983 225.78438 136.23608 225.78438Q135.62671 225.78438 135.22046 226.175Q134.82983 226.56563 134.82983 227.09688ZM134.50171 231.06563Q134.50171 231.51875 134.70483 231.94063Q134.92358 232.3625 135.34546 232.59688Q135.76733 232.83125 136.25171 232.83125Q137.00171 232.83125 137.48608 232.34688Q137.98608 231.8625 137.98608 231.1125Q137.98608 230.34688 137.48608 229.84688Q136.98608 229.34688 136.22046 229.34688Q135.47046 229.34688 134.98608 229.84688Q134.50171 230.33125 134.50171 231.06563Z" fill-rule="nonzero"/><path fill="#000000" d="M240.15355 232.53438L240.15355 233.55L234.46605 233.55Q234.46605 233.175 234.59105 232.81563Q234.8098 232.2375 235.27855 231.675Q235.76292 231.1125 236.66917 230.37813Q238.07542 229.22188 238.5598 228.55Q239.0598 227.87813 239.0598 227.28438Q239.0598 226.65938 238.60667 226.2375Q238.15355 225.8 237.4348 225.8Q236.66917 225.8 236.21605 226.25313Q235.76292 226.70625 235.7473 227.51875L234.66917 227.40938Q234.77855 226.19063 235.4973 225.56563Q236.23167 224.925 237.46605 224.925Q238.70042 224.925 239.41917 225.6125Q240.13792 226.3 240.13792 227.31563Q240.13792 227.83125 239.91917 228.33125Q239.71605 228.81563 239.21605 229.37813Q238.73167 229.925 237.60667 230.87813Q236.65355 231.675 236.3723 231.97188Q236.10667 232.25313 235.9348 232.53438L240.15355 232.53438ZM241.60667 229.31563Q241.60667 227.78438 241.91917 226.8625Q242.23167 225.925 242.84105 225.425Q243.46605 224.925 244.40355 224.925Q245.09105 224.925 245.60667 225.20625Q246.13792 225.4875 246.48167 226.01875Q246.82542 226.53438 247.01292 227.28438Q247.20042 228.03438 247.20042 229.31563Q247.20042 230.83125 246.88792 231.75313Q246.59105 232.675 245.96605 233.19063Q245.35667 233.69063 244.40355 233.69063Q243.16917 233.69063 242.45042 232.8Q241.60667 231.7375 241.60667 229.31563ZM242.6848 229.31563Q242.6848 231.425 243.1848 232.12813Q243.6848 232.83125 244.40355 232.83125Q245.13792 232.83125 245.6223 232.12813Q246.1223 231.425 246.1223 229.31563Q246.1223 227.19063 245.6223 226.50313Q245.13792 225.8 244.38792 225.8Q243.66917 225.8 243.23167 226.40938Q242.6848 227.19063 242.6848 229.31563ZM252.57542 233.55L251.52855 233.55L251.52855 226.83125Q251.13792 227.19063 250.51292 227.56563Q249.90355 227.925 249.41917 228.09688L249.41917 227.08125Q250.29417 226.65938 250.95042 226.08125Q251.6223 225.4875 251.90355 224.925L252.57542 224.925L252.57542 233.55ZM255.76292 231.56563L256.77856 231.47188Q256.90356 232.19063 257.26294 232.51875Q257.63794 232.83125 258.20044 232.83125Q258.6848 232.83125 259.0442 232.6125Q259.4192 232.37813 259.65356 232.01875Q259.88794 231.64375 260.0442 231.01875Q260.20044 230.37813 260.20044 229.72188Q260.20044 229.64375 260.20044 229.50313Q259.88794 230.00313 259.34106 230.33125Q258.7942 230.64375 258.15356 230.64375Q257.07544 230.64375 256.34106 229.87813Q255.60667 229.09688 255.60667 227.83125Q255.60667 226.51875 256.3723 225.72188Q257.15356 224.925 258.3098 224.925Q259.13794 224.925 259.82544 225.37813Q260.52856 225.83125 260.88794 226.675Q261.2473 227.50313 261.2473 229.08125Q261.2473 230.72188 260.88794 231.70625Q260.5442 232.675 259.82544 233.19063Q259.1223 233.69063 258.1848 233.69063Q257.1692 233.69063 256.52856 233.14375Q255.88792 232.58125 255.76292 231.56563ZM260.07544 227.76875Q260.07544 226.8625 259.59106 226.33125Q259.1223 225.8 258.4348 225.8Q257.7317 225.8 257.20044 226.37813Q256.6848 226.94063 256.6848 227.8625Q256.6848 228.675 257.1848 229.19063Q257.6848 229.70625 258.40356 229.70625Q259.13794 229.70625 259.6067 229.19063Q260.07544 228.675 260.07544 227.76875Z" fill-rule="nonzero"/><path fill="#000000" d="M362.33664 232.53438L362.33664 233.55L356.64914 233.55Q356.64914 233.175 356.77414 232.81563Q356.9929 232.2375 357.46164 231.675Q357.946 231.1125 358.85226 230.37813Q360.2585 229.22188 360.7429 228.55Q361.2429 227.87813 361.2429 227.28438Q361.2429 226.65938 360.78976 226.2375Q360.33664 225.8 359.6179 225.8Q358.85226 225.8 358.39914 226.25313Q357.946 226.70625 357.9304 227.51875L356.85226 227.40938Q356.96164 226.19063 357.6804 225.56563Q358.41476 224.925 359.64914 224.925Q360.8835 224.925 361.60226 225.6125Q362.321 226.3 362.321 227.31563Q362.321 227.83125 362.10226 228.33125Q361.89914 228.81563 361.39914 229.37813Q360.91476 229.925 359.78976 230.87813Q358.83664 231.675 358.5554 231.97188Q358.28976 232.25313 358.1179 232.53438L362.33664 232.53438ZM363.78976 229.31563Q363.78976 227.78438 364.10226 226.8625Q364.41476 225.925 365.02414 225.425Q365.64914 224.925 366.58664 224.925Q367.27414 224.925 367.78976 225.20625Q368.321 225.4875 368.66476 226.01875Q369.0085 226.53438 369.196 227.28438Q369.3835 228.03438 369.3835 229.31563Q369.3835 230.83125 369.071 231.75313Q368.77414 232.675 368.14914 233.19063Q367.53976 233.69063 366.58664 233.69063Q365.35226 233.69063 364.6335 232.8Q363.78976 231.7375 363.78976 229.31563ZM364.8679 229.31563Q364.8679 231.425 365.3679 232.12813Q365.8679 232.83125 366.58664 232.83125Q367.321 232.83125 367.8054 232.12813Q368.3054 231.425 368.3054 229.31563Q368.3054 227.19063 367.8054 226.50313Q367.321 225.8 366.571 225.8Q365.85226 225.8 365.41476 226.40938Q364.8679 227.19063 364.8679 229.31563ZM376.33664 232.53438L376.33664 233.55L370.64914 233.55Q370.64914 233.175 370.77414 232.81563Q370.9929 232.2375 371.46164 231.675Q371.946 231.1125 372.85226 230.37813Q374.2585 229.22188 374.7429 228.55Q375.2429 227.87813 375.2429 227.28438Q375.2429 226.65938 374.78976 226.2375Q374.33664 225.8 373.6179 225.8Q372.85226 225.8 372.39914 226.25313Q371.946 226.70625 371.9304 227.51875L370.85226 227.40938Q370.96164 226.19063 371.6804 225.56563Q372.41476 224.925 373.64914 224.925Q374.8835 224.925 375.60226 225.6125Q376.321 226.3 376.321 227.31563Q376.321 227.83125 376.10226 228.33125Q375.89914 228.81563 375.39914 229.37813Q374.91476 229.925 373.78976 230.87813Q372.83664 231.675 372.5554 231.97188Q372.28976 232.25313 372.1179 232.53438L376.33664 232.53438ZM377.78976 229.31563Q377.78976 227.78438 378.10226 226.8625Q378.41476 225.925 379.02414 225.425Q379.64914 224.925 380.58664 224.925Q381.27414 224.925 381.78976 225.20625Q382.321 225.4875 382.66476 226.01875Q383.0085 226.53438 383.196 227.28438Q383.3835 228.03438 383.3835 229.31563Q383.3835 230.83125 383.071 231.75313Q382.77414 232.675 382.14914 233.19063Q381.53976 233.69063 380.58664 233.69063Q379.35226 233.69063 378.6335 232.8Q377.78976 231.7375 377.78976 229.31563ZM378.8679 229.31563Q378.8679 231.425 379.3679 232.12813Q379.8679 232.83125 380.58664 232.83125Q381.321 232.83125 381.8054 232.12813Q382.3054 231.425 382.3054 229.31563Q382.3054 227.19063 381.8054 226.50313Q381.321 225.8 380.571 225.8Q379.85226 225.8 379.41476 226.40938Q378.8679 227.19063 378.8679 229.31563Z" fill-rule="nonzero"/><path fill="#4285f4" d="M465.55 46.75C465.55 46.197716 465.9977 45.75 466.55 45.75L476.55 45.75C477.1023 45.75 477.55 46.197716 477.55 46.75L477.55 56.75C477.55 57.302284 477.1023 57.75 476.55 57.75L466.55 57.75C465.9977 57.75 465.55 57.302284 465.55 56.75Z" fill-rule="nonzero"/><path fill="#1a1a1a" d="M488.65936 55.75L488.65936 48.171875L485.83124 48.171875L485.83124 47.15625L492.64374 47.15625L492.64374 48.171875L489.8 48.171875L489.8 55.75L488.65936 55.75ZM493.33124 55.75L493.33124 49.53125L494.28436 49.53125L494.28436 50.46875Q494.64374 49.8125 494.9406 49.609375Q495.2531 49.390625 495.6281 49.390625Q496.15936 49.390625 496.70624 49.71875L496.34686 50.703125Q495.95624 50.46875 495.58124 50.46875Q495.22186 50.46875 494.9406 50.6875Q494.675 50.890625 494.5656 51.265625Q494.3781 51.828125 494.3781 52.484375L494.3781 55.75L493.33124 55.75ZM501.40936 54.984375Q500.8156 55.484375 500.26874 55.6875Q499.7375 55.890625 499.1125 55.890625Q498.08124 55.890625 497.53436 55.390625Q496.9875 54.890625 496.9875 54.109375Q496.9875 53.65625 497.1906 53.28125Q497.39374 52.890625 497.7375 52.671875Q498.08124 52.4375 498.5031 52.328125Q498.8 52.234375 499.4406 52.15625Q500.70624 52.015625 501.3156 51.796875Q501.3156 51.578125 501.3156 51.53125Q501.3156 50.875 501.01874 50.609375Q500.6125 50.265625 499.8156 50.265625Q499.08124 50.265625 498.72186 50.53125Q498.3625 50.78125 498.1906 51.4375L497.15936 51.296875Q497.3 50.640625 497.6281 50.234375Q497.95624 49.828125 498.5656 49.609375Q499.175 49.390625 499.97186 49.390625Q500.76874 49.390625 501.26874 49.578125Q501.76874 49.765625 502.0031 50.046875Q502.2375 50.328125 502.33124 50.765625Q502.3781 51.03125 502.3781 51.734375L502.3781 53.140625Q502.3781 54.609375 502.4406 55.0Q502.51874 55.390625 502.72186 55.75L501.6125 55.75Q501.45624 55.421875 501.40936 54.984375ZM501.3156 52.625Q500.7375 52.859375 499.59686 53.03125Q498.9406 53.125 498.675 53.25Q498.40936 53.359375 498.2531 53.578125Q498.1125 53.796875 498.1125 54.078125Q498.1125 54.5 498.425 54.78125Q498.7531 55.0625 499.3625 55.0625Q499.97186 55.0625 500.4406 54.796875Q500.925 54.53125 501.14374 54.0625Q501.3156 53.703125 501.3156 53.015625L501.3156 52.625ZM504.34686 55.75L504.34686 49.53125L505.28436 49.53125L505.28436 50.40625Q505.97186 49.390625 507.26874 49.390625Q507.83124 49.390625 508.3 49.59375Q508.78436 49.796875 509.01874 50.125Q509.2531 50.453125 509.34686 50.890625Q509.39374 51.1875 509.39374 51.921875L509.39374 55.75L508.34686 55.75L508.34686 51.96875Q508.34686 51.3125 508.22186 51.0Q508.09686 50.6875 507.78436 50.5Q507.47186 50.296875 507.05 50.296875Q506.3781 50.296875 505.8781 50.734375Q505.39374 51.15625 505.39374 52.34375L505.39374 55.75L504.34686 55.75ZM510.925 53.890625L511.95624 53.734375Q512.05 54.359375 512.4406 54.6875Q512.84686 55.015625 513.58124 55.015625Q514.3 55.015625 514.64374 54.734375Q515.0031 54.4375 515.0031 54.03125Q515.0031 53.671875 514.6906 53.46875Q514.47186 53.328125 513.6125 53.109375Q512.45624 52.8125 512.0031 52.609375Q511.5656 52.390625 511.33124 52.015625Q511.09686 51.640625 511.09686 51.171875Q511.09686 50.765625 511.28436 50.40625Q511.47186 50.046875 511.8 49.8125Q512.05 49.640625 512.47186 49.515625Q512.89374 49.390625 513.39374 49.390625Q514.1125 49.390625 514.65936 49.609375Q515.22186 49.8125 515.4875 50.171875Q515.7531 50.53125 515.84686 51.125L514.8156 51.265625Q514.7531 50.796875 514.40936 50.53125Q514.08124 50.25 513.45624 50.25Q512.7375 50.25 512.425 50.5Q512.1125 50.734375 512.1125 51.0625Q512.1125 51.265625 512.2375 51.421875Q512.3781 51.59375 512.64374 51.703125Q512.8 51.765625 513.58124 51.96875Q514.70624 52.28125 515.14374 52.46875Q515.58124 52.65625 515.83124 53.015625Q516.08124 53.375 516.08124 53.921875Q516.08124 54.453125 515.76874 54.921875Q515.47186 55.375 514.89374 55.640625Q514.3156 55.890625 513.58124 55.890625Q512.3625 55.890625 511.72186 55.390625Q511.09686 54.875 510.925 53.890625ZM518.59686 55.75L518.59686 50.34375L517.65936 50.34375L517.65936 49.53125L518.59686 49.53125L518.59686 48.859375Q518.59686 48.234375 518.70624 47.9375Q518.8625 47.515625 519.2375 47.265625Q519.6281 47.015625 520.3156 47.015625Q520.76874 47.015625 521.3 47.125L521.14374 48.03125Q520.8156 47.984375 520.51874 47.984375Q520.03436 47.984375 519.83124 48.1875Q519.64374 48.390625 519.64374 48.953125L519.64374 49.53125L520.8625 49.53125L520.8625 50.34375L519.64374 50.34375L519.64374 55.75L518.59686 55.75ZM520.95624 52.640625Q520.95624 50.90625 521.90936 50.078125Q522.70624 49.390625 523.8625 49.390625Q525.14374 49.390625 525.95624 50.234375Q526.78436 51.0625 526.78436 52.546875Q526.78436 53.75 526.425 54.4375Q526.0656 55.125 525.3625 55.515625Q524.675 55.890625 523.8625 55.890625Q522.5656 55.890625 521.7531 55.0625Q520.95624 54.21875 520.95624 52.640625ZM522.03436 52.640625Q522.03436 53.828125 522.55 54.421875Q523.08124 55.015625 523.8625 55.015625Q524.65936 55.015625 525.175 54.421875Q525.6906 53.828125 525.6906 52.609375Q525.6906 51.453125 525.15936 50.859375Q524.64374 50.265625 523.8625 50.265625Q523.08124 50.265625 522.55 50.859375Q522.03436 51.4375 522.03436 52.640625ZM528.33124 55.75L528.33124 49.53125L529.28436 49.53125L529.28436 50.46875Q529.64374 49.8125 529.9406 49.609375Q530.2531 49.390625 530.6281 49.390625Q531.15936 49.390625 531.70624 49.71875L531.34686 50.703125Q530.95624 50.46875 530.58124 50.46875Q530.22186 50.46875 529.9406 50.6875Q529.675 50.890625 529.5656 51.265625Q529.3781 51.828125 529.3781 52.484375L529.3781 55.75L528.33124 55.75ZM532.34686 55.75L532.34686 49.53125L533.28436 49.53125L533.28436 50.40625Q533.58124 49.9375 534.0656 49.671875Q534.55 49.390625 535.175 49.390625Q535.8625 49.390625 536.3 49.671875Q536.7531 49.953125 536.925 50.46875Q537.675 49.390625 538.84686 49.390625Q539.78436 49.390625 540.26874 49.90625Q540.76874 50.40625 540.76874 51.484375L540.76874 55.75L539.72186 55.75L539.72186 51.828125Q539.72186 51.203125 539.6125 50.921875Q539.51874 50.640625 539.2531 50.46875Q538.9875 50.296875 538.6125 50.296875Q537.95624 50.296875 537.51874 50.734375Q537.09686 51.171875 537.09686 52.140625L537.09686 55.75L536.03436 55.75L536.03436 51.703125Q536.03436 51.0 535.76874 50.65625Q535.51874 50.296875 534.9406 50.296875Q534.4875 50.296875 534.1125 50.53125Q533.7375 50.765625 533.5656 51.21875Q533.39374 51.671875 533.39374 52.515625L533.39374 55.75L532.34686 55.75ZM547.59686 53.75L548.6906 53.875Q548.4406 54.828125 547.7375 55.359375Q547.03436 55.890625 545.95624 55.890625Q544.59686 55.890625 543.78436 55.046875Q542.9875 54.203125 542.9875 52.6875Q542.9875 51.125 543.8 50.265625Q544.6125 49.390625 545.89374 49.390625Q547.14374 49.390625 547.925 50.234375Q548.72186 51.078125 548.72186 52.625Q548.72186 52.71875 548.72186 52.90625L544.08124 52.90625Q544.14374 53.9375 544.65936 54.484375Q545.175 55.015625 545.95624 55.015625Q546.53436 55.015625 546.9406 54.71875Q547.3625 54.40625 547.59686 53.75ZM544.14374 52.046875L547.6125 52.046875Q547.55 51.25 547.22186 50.859375Q546.70624 50.25 545.90936 50.25Q545.175 50.25 544.675 50.734375Q544.1906 51.21875 544.14374 52.046875ZM550.33124 55.75L550.33124 49.53125L551.28436 49.53125L551.28436 50.46875Q551.64374 49.8125 551.9406 49.609375Q552.2531 49.390625 552.6281 49.390625Q553.15936 49.390625 553.70624 49.71875L553.34686 50.703125Q552.95624 50.46875 552.58124 50.46875Q552.22186 50.46875 551.9406 50.6875Q551.675 50.890625 551.5656 51.265625Q551.3781 51.828125 551.3781 52.484375L551.3781 55.75L550.33124 55.75ZM557.425 55.75L557.425 47.15625L560.65936 47.15625Q561.64374 47.15625 562.2375 47.421875Q562.83124 47.6875 563.15936 48.234375Q563.5031 48.765625 563.5031 49.359375Q563.5031 49.90625 563.20624 50.390625Q562.90936 50.875 562.3 51.171875Q563.08124 51.40625 563.4875 51.96875Q563.90936 52.515625 563.90936 53.265625Q563.90936 53.859375 563.65936 54.390625Q563.40936 54.90625 563.03436 55.1875Q562.65936 55.46875 562.08124 55.609375Q561.51874 55.75 560.70624 55.75L557.425 55.75ZM558.5656 50.765625L560.425 50.765625Q561.175 50.765625 561.5031 50.671875Q561.9406 50.546875 562.15936 50.25Q562.3781 49.9375 562.3781 49.484375Q562.3781 49.0625 562.175 48.734375Q561.97186 48.40625 561.58124 48.296875Q561.20624 48.171875 560.28436 48.171875L558.5656 48.171875L558.5656 50.765625ZM558.5656 54.734375L560.70624 54.734375Q561.2531 54.734375 561.47186 54.6875Q561.8781 54.625 562.1281 54.46875Q562.39374 54.296875 562.5656 53.984375Q562.7375 53.671875 562.7375 53.265625Q562.7375 52.78125 562.4875 52.421875Q562.2531 52.0625 561.8156 51.921875Q561.3781 51.78125 560.55 51.78125L558.5656 51.78125L558.5656 54.734375ZM565.675 55.75L565.675 47.15625L566.8 47.15625L566.8 55.75L565.675 55.75ZM572.5031 52.375L572.5031 51.375L576.1281 51.359375L576.1281 54.546875Q575.3 55.21875 574.40936 55.5625Q573.51874 55.890625 572.58124 55.890625Q571.3156 55.890625 570.26874 55.359375Q569.2375 54.8125 568.70624 53.796875Q568.1906 52.765625 568.1906 51.5Q568.1906 50.234375 568.70624 49.15625Q569.2375 48.0625 570.22186 47.546875Q571.20624 47.015625 572.4875 47.015625Q573.425 47.015625 574.175 47.3125Q574.925 47.609375 575.34686 48.15625Q575.78436 48.6875 576.0031 49.5625L574.9875 49.84375Q574.78436 49.1875 574.4875 48.8125Q574.20624 48.4375 573.675 48.21875Q573.14374 47.984375 572.5031 47.984375Q571.72186 47.984375 571.14374 48.21875Q570.58124 48.453125 570.22186 48.84375Q569.8781 49.234375 569.6906 49.703125Q569.3625 50.5 569.3625 51.421875Q569.3625 52.578125 569.7531 53.359375Q570.15936 54.125 570.90936 54.5Q571.65936 54.875 572.51874 54.875Q573.2531 54.875 573.95624 54.59375Q574.65936 54.296875 575.01874 53.984375L575.01874 52.375L572.5031 52.375Z" fill-rule="nonzero"/><path fill="#ea4335" d="M465.55 70.75C465.55 70.197716 465.9977 69.75 466.55 69.75L476.55 69.75C477.1023 69.75 477.55 70.197716 477.55 70.75L477.55 80.75C477.55 81.302284 477.1023 81.75 476.55 81.75L466.55 81.75C465.9977 81.75 465.55 81.302284 465.55 80.75Z" fill-rule="nonzero"/><path fill="#1a1a1a" d="M488.65936 79.75L488.65936 72.171875L485.83124 72.171875L485.83124 71.15625L492.64374 71.15625L492.64374 72.171875L489.8 72.171875L489.8 79.75L488.65936 79.75ZM493.33124 79.75L493.33124 73.53125L494.28436 73.53125L494.28436 74.46875Q494.64374 73.8125 494.9406 73.609375Q495.2531 73.390625 495.6281 73.390625Q496.15936 73.390625 496.70624 73.71875L496.34686 74.703125Q495.95624 74.46875 495.58124 74.46875Q495.22186 74.46875 494.9406 74.6875Q494.675 74.890625 494.5656 75.265625Q494.3781 75.828125 494.3781 76.484375L494.3781 79.75L493.33124 79.75ZM501.40936 78.984375Q500.8156 79.484375 500.26874 79.6875Q499.7375 79.890625 499.1125 79.890625Q498.08124 79.890625 497.53436 79.390625Q496.9875 78.890625 496.9875 78.109375Q496.9875 77.65625 497.1906 77.28125Q497.39374 76.890625 497.7375 76.671875Q498.08124 76.4375 498.5031 76.328125Q498.8 76.234375 499.4406 76.15625Q500.70624 76.015625 501.3156 75.796875Q501.3156 75.578125 501.3156 75.53125Q501.3156 74.875 501.01874 74.609375Q500.6125 74.265625 499.8156 74.265625Q499.08124 74.265625 498.72186 74.53125Q498.3625 74.78125 498.1906 75.4375L497.15936 75.296875Q497.3 74.640625 497.6281 74.234375Q497.95624 73.828125 498.5656 73.609375Q499.175 73.390625 499.97186 73.390625Q500.76874 73.390625 501.26874 73.578125Q501.76874 73.765625 502.0031 74.046875Q502.2375 74.328125 502.33124 74.765625Q502.3781 75.03125 502.3781 75.734375L502.3781 77.140625Q502.3781 78.609375 502.4406 79.0Q502.51874 79.390625 502.72186 79.75L501.6125 79.75Q501.45624 79.421875 501.40936 78.984375ZM501.3156 76.625Q500.7375 76.859375 499.59686 77.03125Q498.9406 77.125 498.675 77.25Q498.40936 77.359375 498.2531 77.578125Q498.1125 77.796875 498.1125 78.078125Q498.1125 78.5 498.425 78.78125Q498.7531 79.0625 499.3625 79.0625Q499.97186 79.0625 500.4406 78.796875Q500.925 78.53125 501.14374 78.0625Q501.3156 77.703125 501.3156 77.015625L501.3156 76.625ZM504.34686 79.75L504.34686 73.53125L505.28436 73.53125L505.28436 74.40625Q505.97186 73.390625 507.26874 73.390625Q507.83124 73.390625 508.3 73.59375Q508.78436 73.796875 509.01874 74.125Q509.2531 74.453125 509.34686 74.890625Q509.39374 75.1875 509.39374 75.921875L509.39374 79.75L508.34686 79.75L508.34686 75.96875Q508.34686 75.3125 508.22186 75.0Q508.09686 74.6875 507.78436 74.5Q507.47186 74.296875 507.05 74.296875Q506.3781 74.296875 505.8781 74.734375Q505.39374 75.15625 505.39374 76.34375L505.39374 79.75L504.34686 79.75ZM510.925 77.890625L511.95624 77.734375Q512.05 78.359375 512.4406 78.6875Q512.84686 79.015625 513.58124 79.015625Q514.3 79.015625 514.64374 78.734375Q515.0031 78.4375 515.0031 78.03125Q515.0031 77.671875 514.6906 77.46875Q514.47186 77.328125 513.6125 77.109375Q512.45624 76.8125 512.0031 76.609375Q511.5656 76.390625 511.33124 76.015625Q511.09686 75.640625 511.09686 75.171875Q511.09686 74.765625 511.28436 74.40625Q511.47186 74.046875 511.8 73.8125Q512.05 73.640625 512.47186 73.515625Q512.89374 73.390625 513.39374 73.390625Q514.1125 73.390625 514.65936 73.609375Q515.22186 73.8125 515.4875 74.171875Q515.7531 74.53125 515.84686 75.125L514.8156 75.265625Q514.7531 74.796875 514.40936 74.53125Q514.08124 74.25 513.45624 74.25Q512.7375 74.25 512.425 74.5Q512.1125 74.734375 512.1125 75.0625Q512.1125 75.265625 512.2375 75.421875Q512.3781 75.59375 512.64374 75.703125Q512.8 75.765625 513.58124 75.96875Q514.70624 76.28125 515.14374 76.46875Q515.58124 76.65625 515.83124 77.015625Q516.08124 77.375 516.08124 77.921875Q516.08124 78.453125 515.76874 78.921875Q515.47186 79.375 514.89374 79.640625Q514.3156 79.890625 513.58124 79.890625Q512.3625 79.890625 511.72186 79.390625Q511.09686 78.875 510.925 77.890625ZM518.59686 79.75L518.59686 74.34375L517.65936 74.34375L517.65936 73.53125L518.59686 73.53125L518.59686 72.859375Q518.59686 72.234375 518.70624 71.9375Q518.8625 71.515625 519.2375 71.265625Q519.6281 71.015625 520.3156 71.015625Q520.76874 71.015625 521.3 71.125L521.14374 72.03125Q520.8156 71.984375 520.51874 71.984375Q520.03436 71.984375 519.83124 72.1875Q519.64374 72.390625 519.64374 72.953125L519.64374 73.53125L520.8625 73.53125L520.8625 74.34375L519.64374 74.34375L519.64374 79.75L518.59686 79.75ZM520.95624 76.640625Q520.95624 74.90625 521.90936 74.078125Q522.70624 73.390625 523.8625 73.390625Q525.14374 73.390625 525.95624 74.234375Q526.78436 75.0625 526.78436 76.546875Q526.78436 77.75 526.425 78.4375Q526.0656 79.125 525.3625 79.515625Q524.675 79.890625 523.8625 79.890625Q522.5656 79.890625 521.7531 79.0625Q520.95624 78.21875 520.95624 76.640625ZM522.03436 76.640625Q522.03436 77.828125 522.55 78.421875Q523.08124 79.015625 523.8625 79.015625Q524.65936 79.015625 525.175 78.421875Q525.6906 77.828125 525.6906 76.609375Q525.6906 75.453125 525.15936 74.859375Q524.64374 74.265625 523.8625 74.265625Q523.08124 74.265625 522.55 74.859375Q522.03436 75.4375 522.03436 76.640625ZM528.33124 79.75L528.33124 73.53125L529.28436 73.53125L529.28436 74.46875Q529.64374 73.8125 529.9406 73.609375Q530.2531 73.390625 530.6281 73.390625Q531.15936 73.390625 531.70624 73.71875L531.34686 74.703125Q530.95624 74.46875 530.58124 74.46875Q530.22186 74.46875 529.9406 74.6875Q529.675 74.890625 529.5656 75.265625Q529.3781 75.828125 529.3781 76.484375L529.3781 79.75L528.33124 79.75ZM532.34686 79.75L532.34686 73.53125L533.28436 73.53125L533.28436 74.40625Q533.58124 73.9375 534.0656 73.671875Q534.55 73.390625 535.175 73.390625Q535.8625 73.390625 536.3 73.671875Q536.7531 73.953125 536.925 74.46875Q537.675 73.390625 538.84686 73.390625Q539.78436 73.390625 540.26874 73.90625Q540.76874 74.40625 540.76874 75.484375L540.76874 79.75L539.72186 79.75L539.72186 75.828125Q539.72186 75.203125 539.6125 74.921875Q539.51874 74.640625 539.2531 74.46875Q538.9875 74.296875 538.6125 74.296875Q537.95624 74.296875 537.51874 74.734375Q537.09686 75.171875 537.09686 76.140625L537.09686 79.75L536.03436 79.75L536.03436 75.703125Q536.03436 75.0 535.76874 74.65625Q535.51874 74.296875 534.9406 74.296875Q534.4875 74.296875 534.1125 74.53125Q533.7375 74.765625 533.5656 75.21875Q533.39374 75.671875 533.39374 76.515625L533.39374 79.75L532.34686 79.75ZM547.59686 77.75L548.6906 77.875Q548.4406 78.828125 547.7375 79.359375Q547.03436 79.890625 545.95624 79.890625Q544.59686 79.890625 543.78436 79.046875Q542.9875 78.203125 542.9875 76.6875Q542.9875 75.125 543.8 74.265625Q544.6125 73.390625 545.89374 73.390625Q547.14374 73.390625 547.925 74.234375Q548.72186 75.078125 548.72186 76.625Q548.72186 76.71875 548.72186 76.90625L544.08124 76.90625Q544.14374 77.9375 544.65936 78.484375Q545.175 79.015625 545.95624 79.015625Q546.53436 79.015625 546.9406 78.71875Q547.3625 78.40625 547.59686 77.75ZM544.14374 76.046875L547.6125 76.046875Q547.55 75.25 547.22186 74.859375Q546.70624 74.25 545.90936 74.25Q545.175 74.25 544.675 74.734375Q544.1906 75.21875 544.14374 76.046875ZM550.33124 79.75L550.33124 73.53125L551.28436 73.53125L551.28436 74.46875Q551.64374 73.8125 551.9406 73.609375Q552.2531 73.390625 552.6281 73.390625Q553.15936 73.390625 553.70624 73.71875L553.34686 74.703125Q552.95624 74.46875 552.58124 74.46875Q552.22186 74.46875 551.9406 74.6875Q551.675 74.890625 551.5656 75.265625Q551.3781 75.828125 551.3781 76.484375L551.3781 79.75L550.33124 79.75ZM557.425 79.75L557.425 71.15625L560.65936 71.15625Q561.64374 71.15625 562.2375 71.421875Q562.83124 71.6875 563.15936 72.234375Q563.5031 72.765625 563.5031 73.359375Q563.5031 73.90625 563.20624 74.390625Q562.90936 74.875 562.3 75.171875Q563.08124 75.40625 563.4875 75.96875Q563.90936 76.515625 563.90936 77.265625Q563.90936 77.859375 563.65936 78.390625Q563.40936 78.90625 563.03436 79.1875Q562.65936 79.46875 562.08124 79.609375Q561.51874 79.75 560.70624 79.75L557.425 79.75ZM558.5656 74.765625L560.425 74.765625Q561.175 74.765625 561.5031 74.671875Q561.9406 74.546875 562.15936 74.25Q562.3781 73.9375 562.3781 73.484375Q562.3781 73.0625 562.175 72.734375Q561.97186 72.40625 561.58124 72.296875Q561.20624 72.171875 560.28436 72.171875L558.5656 72.171875L558.5656 74.765625ZM558.5656 78.734375L560.70624 78.734375Q561.2531 78.734375 561.47186 78.6875Q561.8781 78.625 562.1281 78.46875Q562.39374 78.296875 562.5656 77.984375Q562.7375 77.671875 562.7375 77.265625Q562.7375 76.78125 562.4875 76.421875Q562.2531 76.0625 561.8156 75.921875Q561.3781 75.78125 560.55 75.78125L558.5656 75.78125L558.5656 78.734375ZM564.53436 79.75L567.83124 71.15625L569.05 71.15625L572.5656 79.75L571.28436 79.75L570.26874 77.140625L566.6906 77.140625L565.7375 79.75L564.53436 79.75ZM567.01874 76.21875L569.925 76.21875L569.03436 73.84375Q568.6125 72.765625 568.425 72.0625Q568.2531 72.890625 567.95624 73.703125L567.01874 76.21875ZM572.09686 76.984375L573.15936 76.890625Q573.2375 77.546875 573.51874 77.953125Q573.8 78.359375 574.3781 78.625Q574.97186 78.875 575.70624 78.875Q576.34686 78.875 576.84686 78.6875Q577.34686 78.484375 577.58124 78.15625Q577.83124 77.8125 577.83124 77.421875Q577.83124 77.015625 577.59686 76.71875Q577.3625 76.40625 576.83124 76.203125Q576.47186 76.0625 575.28436 75.78125Q574.1125 75.5 573.64374 75.25Q573.01874 74.921875 572.72186 74.453125Q572.425 73.96875 572.425 73.375Q572.425 72.734375 572.78436 72.171875Q573.15936 71.59375 573.8625 71.3125Q574.58124 71.015625 575.4406 71.015625Q576.39374 71.015625 577.1281 71.328125Q577.8625 71.625 578.2531 72.234375Q578.64374 72.828125 578.675 73.578125L577.58124 73.65625Q577.4875 72.84375 576.97186 72.4375Q576.47186 72.015625 575.4875 72.015625Q574.45624 72.015625 573.9875 72.390625Q573.51874 72.765625 573.51874 73.296875Q573.51874 73.765625 573.84686 74.0625Q574.175 74.359375 575.55 74.671875Q576.9406 74.984375 577.45624 75.21875Q578.20624 75.578125 578.5656 76.109375Q578.925 76.625 578.925 77.328125Q578.925 78.015625 578.53436 78.625Q578.14374 79.21875 577.40936 79.5625Q576.675 79.890625 575.7531 79.890625Q574.58124 79.890625 573.78436 79.5625Q573.0031 79.21875 572.55 78.53125Q572.1125 77.84375 572.09686 76.984375ZM580.5031 79.75L580.5031 71.15625L586.70624 71.15625L586.70624 72.171875L581.64374 72.171875L581.64374 74.796875L586.39374 74.796875L586.39374 75.8125L581.64374 75.8125L581.64374 78.734375L586.90936 78.734375L586.90936 79.75L580.5031 79.75Z" fill-rule="nonzero"/><path fill="#fbbc04" d="M465.55 94.75C465.55 94.197716 465.9977 93.75 466.55 93.75L476.55 93.75C477.1023 93.75 477.55 94.197716 477.55 94.75L477.55 104.75C477.55 105.302284 477.1023 105.75 476.55 105.75L466.55 105.75C465.9977 105.75 465.55 105.302284 465.55 104.75Z" fill-rule="nonzero"/><path fill="#1a1a1a" d="M488.65936 103.75L488.65936 96.171875L485.83124 96.171875L485.83124 95.15625L492.64374 95.15625L492.64374 96.171875L489.8 96.171875L489.8 103.75L488.65936 103.75ZM493.33124 103.75L493.33124 97.53125L494.28436 97.53125L494.28436 98.46875Q494.64374 97.8125 494.9406 97.609375Q495.2531 97.390625 495.6281 97.390625Q496.15936 97.390625 496.70624 97.71875L496.34686 98.703125Q495.95624 98.46875 495.58124 98.46875Q495.22186 98.46875 494.9406 98.6875Q494.675 98.890625 494.5656 99.265625Q494.3781 99.828125 494.3781 100.484375L494.3781 103.75L493.33124 103.75ZM501.40936 102.984375Q500.8156 103.484375 500.26874 103.6875Q499.7375 103.890625 499.1125 103.890625Q498.08124 103.890625 497.53436 103.390625Q496.9875 102.890625 496.9875 102.109375Q496.9875 101.65625 497.1906 101.28125Q497.39374 100.890625 497.7375 100.671875Q498.08124 100.4375 498.5031 100.328125Q498.8 100.234375 499.4406 100.15625Q500.70624 100.015625 501.3156 99.796875Q501.3156 99.578125 501.3156 99.53125Q501.3156 98.875 501.01874 98.609375Q500.6125 98.265625 499.8156 98.265625Q499.08124 98.265625 498.72186 98.53125Q498.3625 98.78125 498.1906 99.4375L497.15936 99.296875Q497.3 98.640625 497.6281 98.234375Q497.95624 97.828125 498.5656 97.609375Q499.175 97.390625 499.97186 97.390625Q500.76874 97.390625 501.26874 97.578125Q501.76874 97.765625 502.0031 98.046875Q502.2375 98.328125 502.33124 98.765625Q502.3781 99.03125 502.3781 99.734375L502.3781 101.140625Q502.3781 102.609375 502.4406 103.0Q502.51874 103.390625 502.72186 103.75L501.6125 103.75Q501.45624 103.421875 501.40936 102.984375ZM501.3156 100.625Q500.7375 100.859375 499.59686 101.03125Q498.9406 101.125 498.675 101.25Q498.40936 101.359375 498.2531 101.578125Q498.1125 101.796875 498.1125 102.078125Q498.1125 102.5 498.425 102.78125Q498.7531 103.0625 499.3625 103.0625Q499.97186 103.0625 500.4406 102.796875Q500.925 102.53125 501.14374 102.0625Q501.3156 101.703125 501.3156 101.015625L501.3156 100.625ZM504.34686 103.75L504.34686 97.53125L505.28436 97.53125L505.28436 98.40625Q505.97186 97.390625 507.26874 97.390625Q507.83124 97.390625 508.3 97.59375Q508.78436 97.796875 509.01874 98.125Q509.2531 98.453125 509.34686 98.890625Q509.39374 99.1875 509.39374 99.921875L509.39374 103.75L508.34686 103.75L508.34686 99.96875Q508.34686 99.3125 508.22186 99.0Q508.09686 98.6875 507.78436 98.5Q507.47186 98.296875 507.05 98.296875Q506.3781 98.296875 505.8781 98.734375Q505.39374 99.15625 505.39374 100.34375L505.39374 103.75L504.34686 103.75ZM510.925 101.890625L511.95624 101.734375Q512.05 102.359375 512.4406 102.6875Q512.84686 103.015625 513.58124 103.015625Q514.3 103.015625 514.64374 102.734375Q515.0031 102.4375 515.0031 102.03125Q515.0031 101.671875 514.6906 101.46875Q514.47186 101.328125 513.6125 101.109375Q512.45624 100.8125 512.0031 100.609375Q511.5656 100.390625 511.33124 100.015625Q511.09686 99.640625 511.09686 99.171875Q511.09686 98.765625 511.28436 98.40625Q511.47186 98.046875 511.8 97.8125Q512.05 97.640625 512.47186 97.515625Q512.89374 97.390625 513.39374 97.390625Q514.1125 97.390625 514.65936 97.609375Q515.22186 97.8125 515.4875 98.171875Q515.7531 98.53125 515.84686 99.125L514.8156 99.265625Q514.7531 98.796875 514.40936 98.53125Q514.08124 98.25 513.45624 98.25Q512.7375 98.25 512.425 98.5Q512.1125 98.734375 512.1125 99.0625Q512.1125 99.265625 512.2375 99.421875Q512.3781 99.59375 512.64374 99.703125Q512.8 99.765625 513.58124 99.96875Q514.70624 100.28125 515.14374 100.46875Q515.58124 100.65625 515.83124 101.015625Q516.08124 101.375 516.08124 101.921875Q516.08124 102.453125 515.76874 102.921875Q515.47186 103.375 514.89374 103.640625Q514.3156 103.890625 513.58124 103.890625Q512.3625 103.890625 511.72186 103.390625Q511.09686 102.875 510.925 101.890625ZM518.59686 103.75L518.59686 98.34375L517.65936 98.34375L517.65936 97.53125L518.59686 97.53125L518.59686 96.859375Q518.59686 96.234375 518.70624 95.9375Q518.8625 95.515625 519.2375 95.265625Q519.6281 95.015625 520.3156 95.015625Q520.76874 95.015625 521.3 95.125L521.14374 96.03125Q520.8156 95.984375 520.51874 95.984375Q520.03436 95.984375 519.83124 96.1875Q519.64374 96.390625 519.64374 96.953125L519.64374 97.53125L520.8625 97.53125L520.8625 98.34375L519.64374 98.34375L519.64374 103.75L518.59686 103.75ZM520.95624 100.640625Q520.95624 98.90625 521.90936 98.078125Q522.70624 97.390625 523.8625 97.390625Q525.14374 97.390625 525.95624 98.234375Q526.78436 99.0625 526.78436 100.546875Q526.78436 101.75 526.425 102.4375Q526.0656 103.125 525.3625 103.515625Q524.675 103.890625 523.8625 103.890625Q522.5656 103.890625 521.7531 103.0625Q520.95624 102.21875 520.95624 100.640625ZM522.03436 100.640625Q522.03436 101.828125 522.55 102.421875Q523.08124 103.015625 523.8625 103.015625Q524.65936 103.015625 525.175 102.421875Q525.6906 101.828125 525.6906 100.609375Q525.6906 99.453125 525.15936 98.859375Q524.64374 98.265625 523.8625 98.265625Q523.08124 98.265625 522.55 98.859375Q522.03436 99.4375 522.03436 100.640625ZM528.33124 103.75L528.33124 97.53125L529.28436 97.53125L529.28436 98.46875Q529.64374 97.8125 529.9406 97.609375Q530.2531 97.390625 530.6281 97.390625Q531.15936 97.390625 531.70624 97.71875L531.34686 98.703125Q530.95624 98.46875 530.58124 98.46875Q530.22186 98.46875 529.9406 98.6875Q529.675 98.890625 529.5656 99.265625Q529.3781 99.828125 529.3781 100.484375L529.3781 103.75L528.33124 103.75ZM532.34686 103.75L532.34686 97.53125L533.28436 97.53125L533.28436 98.40625Q533.58124 97.9375 534.0656 97.671875Q534.55 97.390625 535.175 97.390625Q535.8625 97.390625 536.3 97.671875Q536.7531 97.953125 536.925 98.46875Q537.675 97.390625 538.84686 97.390625Q539.78436 97.390625 540.26874 97.90625Q540.76874 98.40625 540.76874 99.484375L540.76874 103.75L539.72186 103.75L539.72186 99.828125Q539.72186 99.203125 539.6125 98.921875Q539.51874 98.640625 539.2531 98.46875Q538.9875 98.296875 538.6125 98.296875Q537.95624 98.296875 537.51874 98.734375Q537.09686 99.171875 537.09686 100.140625L537.09686 103.75L536.03436 103.75L536.03436 99.703125Q536.03436 99.0 535.76874 98.65625Q535.51874 98.296875 534.9406 98.296875Q534.4875 98.296875 534.1125 98.53125Q533.7375 98.765625 533.5656 99.21875Q533.39374 99.671875 533.39374 100.515625L533.39374 103.75L532.34686 103.75ZM547.59686 101.75L548.6906 101.875Q548.4406 102.828125 547.7375 103.359375Q547.03436 103.890625 545.95624 103.890625Q544.59686 103.890625 543.78436 103.046875Q542.9875 102.203125 542.9875 100.6875Q542.9875 99.125 543.8 98.265625Q544.6125 97.390625 545.89374 97.390625Q547.14374 97.390625 547.925 98.234375Q548.72186 99.078125 548.72186 100.625Q548.72186 100.71875 548.72186 100.90625L544.08124 100.90625Q544.14374 101.9375 544.65936 102.484375Q545.175 103.015625 545.95624 103.015625Q546.53436 103.015625 546.9406 102.71875Q547.3625 102.40625 547.59686 101.75ZM544.14374 100.046875L547.6125 100.046875Q547.55 99.25 547.22186 98.859375Q546.70624 98.25 545.90936 98.25Q545.175 98.25 544.675 98.734375Q544.1906 99.21875 544.14374 100.046875ZM550.33124 103.75L550.33124 97.53125L551.28436 97.53125L551.28436 98.46875Q551.64374 97.8125 551.9406 97.609375Q552.2531 97.390625 552.6281 97.390625Q553.15936 97.390625 553.70624 97.71875L553.34686 98.703125Q552.95624 98.46875 552.58124 98.46875Q552.22186 98.46875 551.9406 98.6875Q551.675 98.890625 551.5656 99.265625Q551.3781 99.828125 551.3781 100.484375L551.3781 103.75L550.33124 103.75ZM556.95624 100.640625Q556.95624 98.90625 557.90936 98.078125Q558.70624 97.390625 559.8625 97.390625Q561.14374 97.390625 561.95624 98.234375Q562.78436 99.0625 562.78436 100.546875Q562.78436 101.75 562.425 102.4375Q562.0656 103.125 561.3625 103.515625Q560.675 103.890625 559.8625 103.890625Q558.5656 103.890625 557.7531 103.0625Q556.95624 102.21875 556.95624 100.640625ZM558.03436 100.640625Q558.03436 101.828125 558.55 102.421875Q559.08124 103.015625 559.8625 103.015625Q560.65936 103.015625 561.175 102.421875Q561.6906 101.828125 561.6906 100.609375Q561.6906 99.453125 561.15936 98.859375Q560.64374 98.265625 559.8625 98.265625Q559.08124 98.265625 558.55 98.859375Q558.03436 99.4375 558.03436 100.640625ZM566.64374 102.8125L566.8 103.734375Q566.34686 103.828125 566.0031 103.828125Q565.425 103.828125 565.1125 103.65625Q564.8 103.46875 564.65936 103.171875Q564.53436 102.875 564.53436 101.921875L564.53436 98.34375L563.76874 98.34375L563.76874 97.53125L564.53436 97.53125L564.53436 95.984375L565.58124 95.359375L565.58124 97.53125L566.64374 97.53125L566.64374 98.34375L565.58124 98.34375L565.58124 101.984375Q565.58124 102.4375 565.6281 102.5625Q565.6906 102.6875 565.8156 102.765625Q565.9406 102.84375 566.175 102.84375Q566.3625 102.84375 566.64374 102.8125ZM567.34686 103.75L567.34686 95.15625L568.39374 95.15625L568.39374 98.234375Q569.1281 97.390625 570.2531 97.390625Q570.95624 97.390625 571.45624 97.671875Q571.97186 97.9375 572.1906 98.421875Q572.40936 98.890625 572.40936 99.8125L572.40936 103.75L571.3625 103.75L571.3625 99.8125Q571.3625 99.015625 571.01874 98.65625Q570.675 98.296875 570.05 98.296875Q569.58124 98.296875 569.15936 98.546875Q568.7531 98.78125 568.5656 99.203125Q568.39374 99.609375 568.39374 100.34375L568.39374 103.75L567.34686 103.75ZM578.59686 101.75L579.6906 101.875Q579.4406 102.828125 578.7375 103.359375Q578.03436 103.890625 576.95624 103.890625Q575.59686 103.890625 574.78436 103.046875Q573.9875 102.203125 573.9875 100.6875Q573.9875 99.125 574.8 98.265625Q575.6125 97.390625 576.89374 97.390625Q578.14374 97.390625 578.925 98.234375Q579.72186 99.078125 579.72186 100.625Q579.72186 100.71875 579.72186 100.90625L575.08124 100.90625Q575.14374 101.9375 575.65936 102.484375Q576.175 103.015625 576.95624 103.015625Q577.53436 103.015625 577.9406 102.71875Q578.3625 102.40625 578.59686 101.75ZM575.14374 100.046875L578.6125 100.046875Q578.55 99.25 578.22186 98.859375Q577.70624 98.25 576.90936 98.25Q576.175 98.25 575.675 98.734375Q575.1906 99.21875 575.14374 100.046875ZM581.33124 103.75L581.33124 97.53125L582.28436 97.53125L582.28436 98.46875Q582.64374 97.8125 582.9406 97.609375Q583.2531 97.390625 583.6281 97.390625Q584.15936 97.390625 584.70624 97.71875L584.34686 98.703125Q583.95624 98.46875 583.58124 98.46875Q583.22186 98.46875 582.9406 98.6875Q582.675 98.890625 582.5656 99.265625Q582.3781 99.828125 582.3781 100.484375L582.3781 103.75L581.33124 103.75Z" fill-rule="nonzero"/><path fill="#34a853" d="M465.55 118.75C465.55 118.197716 465.9977 117.75 466.55 117.75L476.55 117.75C477.1023 117.75 477.55 118.197716 477.55 118.75L477.55 128.75C477.55 129.30229 477.1023 129.75 476.55 129.75L466.55 129.75C465.9977 129.75 465.55 129.30229 465.55 128.75Z" fill-rule="nonzero"/><path fill="#1a1a1a" d="M486.4875 127.75L486.4875 119.15625L490.3 119.15625Q491.45624 119.15625 492.05 119.390625Q492.64374 119.625 493.0031 120.21875Q493.3625 120.796875 493.3625 121.5Q493.3625 122.421875 492.76874 123.046875Q492.175 123.671875 490.9406 123.84375Q491.39374 124.0625 491.6281 124.265625Q492.1281 124.71875 492.5656 125.40625L494.0656 127.75L492.6281 127.75L491.5031 125.96875Q491.0031 125.1875 490.675 124.78125Q490.3625 124.375 490.09686 124.21875Q489.84686 124.046875 489.58124 123.96875Q489.39374 123.9375 488.95624 123.9375L487.6281 123.9375L487.6281 127.75L486.4875 127.75ZM487.6281 122.953125L490.08124 122.953125Q490.84686 122.953125 491.28436 122.796875Q491.7375 122.625 491.95624 122.28125Q492.1906 121.921875 492.1906 121.5Q492.1906 120.890625 491.7375 120.5Q491.3 120.109375 490.34686 120.109375L487.6281 120.109375L487.6281 122.953125ZM495.47186 127.75L495.47186 119.15625L496.6281 119.15625L501.14374 125.90625L501.14374 119.15625L502.2375 119.15625L502.2375 127.75L501.0656 127.75L496.55 121.0L496.55 127.75L495.47186 127.75ZM504.47186 127.75L504.47186 119.15625L505.6281 119.15625L510.14374 125.90625L510.14374 119.15625L511.2375 119.15625L511.2375 127.75L510.0656 127.75L505.55 121.0L505.55 127.75L504.47186 127.75Z" fill-rule="nonzero"/><path fill="#ff6d01" d="M465.55 142.75C465.55 142.19771 465.9977 141.75 466.55 141.75L476.55 141.75C477.1023 141.75 477.55 142.19771 477.55 142.75L477.55 152.75C477.55 153.30229 477.1023 153.75 476.55 153.75L466.55 153.75C465.9977 153.75 465.55 153.30229 465.55 152.75Z" fill-rule="nonzero"/><path fill="#1a1a1a" d="M486.09686 148.98438L487.15936 148.89062Q487.2375 149.54688 487.51874 149.95312Q487.8 150.35938 488.3781 150.625Q488.97186 150.875 489.70624 150.875Q490.34686 150.875 490.84686 150.6875Q491.34686 150.48438 491.58124 150.15625Q491.83124 149.8125 491.83124 149.42188Q491.83124 149.01562 491.59686 148.71875Q491.3625 148.40625 490.83124 148.20312Q490.47186 148.0625 489.28436 147.78125Q488.1125 147.5 487.64374 147.25Q487.01874 146.92188 486.72186 146.45312Q486.425 145.96875 486.425 145.375Q486.425 144.73438 486.78436 144.17188Q487.15936 143.59375 487.8625 143.3125Q488.58124 143.01562 489.4406 143.01562Q490.39374 143.01562 491.1281 143.32812Q491.8625 143.625 492.2531 144.23438Q492.64374 144.82812 492.675 145.57812L491.58124 145.65625Q491.4875 144.84375 490.97186 144.4375Q490.47186 144.01562 489.4875 144.01562Q488.45624 144.01562 487.9875 144.39062Q487.51874 144.76562 487.51874 145.29688Q487.51874 145.76562 487.84686 146.0625Q488.175 146.35938 489.55 146.67188Q490.9406 146.98438 491.45624 147.21875Q492.20624 147.57812 492.5656 148.10938Q492.925 148.625 492.925 149.32812Q492.925 150.01562 492.53436 150.625Q492.14374 151.21875 491.40936 151.5625Q490.675 151.89062 489.7531 151.89062Q488.58124 151.89062 487.78436 151.5625Q487.0031 151.21875 486.55 150.53125Q486.1125 149.84375 486.09686 148.98438ZM494.4406 151.75L494.4406 143.15625L496.15936 143.15625L498.1906 149.23438Q498.47186 150.09375 498.59686 150.51562Q498.7375 150.04688 499.05 149.14062L501.1125 143.15625L502.64374 143.15625L502.64374 151.75L501.55 151.75L501.55 144.5625L499.05 151.75L498.01874 151.75L495.53436 144.4375L495.53436 151.75L494.4406 151.75ZM505.65936 151.75L505.65936 144.17188L502.83124 144.17188L502.83124 143.15625L509.64374 143.15625L509.64374 144.17188L506.8 144.17188L506.8 151.75L505.65936 151.75Z" fill-rule="nonzero"/><path fill="#757575" d="M13.934375 31.45L13.934375 17.1375L16.79375 17.1375L20.16875 27.2625Q20.6375 28.684376 20.85625 29.3875Q21.10625 28.60625 21.621876 27.090626L25.04375 17.1375L27.590626 17.1375L27.590626 31.45L25.778126 31.45L25.778126 19.465626L21.60625 31.45L19.903126 31.45L15.7625 19.2625L15.7625 31.45L13.934375 31.45ZM30.121876 26.2625Q30.121876 23.3875 31.715626 21.996876Q33.059376 20.840626 34.98125 20.840626Q37.121876 20.840626 38.465626 22.246876Q39.825 23.653126 39.825 26.121876Q39.825 28.121876 39.23125 29.278126Q38.6375 30.41875 37.48125 31.059376Q36.340626 31.684376 34.98125 31.684376Q32.79375 31.684376 31.45 30.29375Q30.121876 28.8875 30.121876 26.2625ZM31.91875 26.2625Q31.91875 28.2625 32.778126 29.246876Q33.653126 30.23125 34.98125 30.23125Q36.29375 30.23125 37.153126 29.246876Q38.028126 28.246876 38.028126 26.2Q38.028126 24.278126 37.153126 23.29375Q36.278126 22.29375 34.98125 22.29375Q33.653126 22.29375 32.778126 23.29375Q31.91875 24.278126 31.91875 26.2625ZM48.496876 31.45L48.496876 30.1375Q47.5125 31.684376 45.590626 31.684376Q44.35625 31.684376 43.309376 30.996876Q42.278126 30.309376 41.7 29.090626Q41.1375 27.871876 41.1375 26.278126Q41.1375 24.715626 41.653126 23.45Q42.16875 22.184376 43.2 21.5125Q44.246876 20.840626 45.5125 20.840626Q46.45 20.840626 47.184376 21.246876Q47.91875 21.6375 48.3875 22.2625L48.3875 17.1375L50.121876 17.1375L50.121876 31.45L48.496876 31.45ZM42.934376 26.278126Q42.934376 28.2625 43.778126 29.246876Q44.621876 30.23125 45.7625 30.23125Q46.91875 30.23125 47.715626 29.29375Q48.528126 28.35625 48.528126 26.41875Q48.528126 24.29375 47.7 23.29375Q46.8875 22.29375 45.684376 22.29375Q44.5125 22.29375 43.715626 23.2625Q42.934376 24.215626 42.934376 26.278126ZM59.871876 28.10625L61.684376 28.340626Q61.2625 29.91875 60.090626 30.809376Q58.934376 31.684376 57.121876 31.684376Q54.85625 31.684376 53.5125 30.29375Q52.184376 28.8875 52.184376 26.35625Q52.184376 23.73125 53.528126 22.29375Q54.871876 20.840626 57.028126 20.840626Q59.10625 20.840626 60.41875 22.2625Q61.746876 23.66875 61.746876 26.246876Q61.746876 26.403126 61.73125 26.715626L53.996876 26.715626Q54.090626 28.41875 54.965626 29.325Q55.840626 30.23125 57.1375 30.23125Q58.10625 30.23125 58.778126 29.73125Q59.465626 29.215626 59.871876 28.10625ZM54.090626 25.2625L59.8875 25.2625Q59.778126 23.965626 59.23125 23.309376Q58.3875 22.29375 57.04375 22.29375Q55.840626 22.29375 55.0125 23.10625Q54.184376 23.903126 54.090626 25.2625ZM63.73125 31.45L63.73125 17.1375L65.48125 17.1375L65.48125 31.45L63.73125 31.45Z" fill-rule="nonzero"/></svg>