<svg version="1.1" viewBox="0.0 0.0 600.0 308.0" fill="none" stroke="none" stroke-linecap="square" stroke-miterlimit="10" width="600" height="308" xmlns:xlink="http://www.w3.org/1999/xlink" xmlns="http://www.w3.org/2000/svg"><path fill="#ffffff" d="M0 0L600.0 0L600.0 308.0L0 308.0L0 0Z" fill-rule="nonzero"/><path stroke="#333333" stroke-width="1.0" stroke-linecap="butt" d="M46.5 272.5L463.5 272.5" fill-rule="nonzero"/><path stroke="#cccccc" stroke-width="1.0" stroke-linecap="butt" d="M46.5 229.5L463.5 229.5" fill-rule="nonzero"/><path stroke="#cccccc" stroke-width="1.0" stroke-linecap="butt" d="M46.5 186.5L463.5 186.5" fill-rule="nonzero"/><path stroke="#cccccc" stroke-width="1.0" stroke-linecap="butt" d="M46.5 143.5L463.5 143.5" fill-rule="nonzero"/><path stroke="#cccccc" stroke-width="1.0" stroke-linecap="butt" d="M46.5 99.5L463.5 99.5" fill-rule="nonzero"/><path stroke="#cccccc" stroke-width="1.0" stroke-linecap="butt" d="M46.5 56.5L463.5 56.5" fill-rule="nonzero"/><clipPath id="id_0"><path d="M46.4 56.666668L463.40445 56.666668L463.40445 272.6L46.4 272.6L46.4 56.666668Z" clip-rule="nonzero"/></clipPath><path stroke="#000000" stroke-width="2.0" stroke-linecap="butt" stroke-opacity="0.0" clip-path="url(#id_0)" d="M98.0 273.0L91.0 273.0L91.0 273.0L98.0 273.0Z" fill-rule="nonzero"/><path fill="#4285f4" clip-path="url(#id_0)" d="M98.0 273.0L91.0 273.0L91.0 273.0L98.0 273.0Z" fill-rule="nonzero"/><path stroke="#000000" stroke-width="2.0" stroke-linecap="butt" stroke-opacity="0.0" clip-path="url(#id_0)" d="M223.0 273.0L216.0 273.0L216.0 207.0C216.0 205.89543 216.89543 205.0 218.0 205.0L221.0 205.0C222.10457 205.0 223.0 205.89543 223.0 207.0Z" fill-rule="nonzero"/><path fill="#4285f4" clip-path="url(#id_0)" d="M223.0 273.0L216.0 273.0L216.0 207.0C216.0 205.89543 216.89543 205.0 218.0 205.0L221.0 205.0C222.10457 205.0 223.0 205.89543 223.0 207.0Z" fill-rule="nonzero"/><path stroke="#000000" stroke-width="2.0" stroke-linecap="butt" stroke-opacity="0.0" clip-path="url(#id_0)" d="M347.0 273.0L340.0 273.0L340.0 86.0C340.0 84.89543 340.89542 84.0 342.0 84.0L345.0 84.0C346.10458 84.0 347.0 84.89543 347.0 86.0Z" fill-rule="nonzero"/><path fill="#4285f4" clip-path="url(#id_0)" d="M347.0 273.0L340.0 273.0L340.0 86.0C340.0 84.89543 340.89542 84.0 342.0 84.0L345.0 84.0C346.10458 84.0 347.0 84.89543 347.0 86.0Z" fill-rule="nonzero"/><path stroke="#000000" stroke-width="2.0" stroke-linecap="butt" stroke-opacity="0.0" clip-path="url(#id_0)" d="M107.0 273.0L100.0 273.0L100.0 147.0C100.0 145.89543 100.89543 145.0 102.0 145.0L105.0 145.0C106.10457 145.0 107.0 145.89543 107.0 147.0Z" fill-rule="nonzero"/><path fill="#ea4335" clip-path="url(#id_0)" d="M107.0 273.0L100.0 273.0L100.0 147.0C100.0 145.89543 100.89543 145.0 102.0 145.0L105.0 145.0C106.10457 145.0 107.0 145.89543 107.0 147.0Z" fill-rule="nonzero"/><path stroke="#000000" stroke-width="2.0" stroke-linecap="butt" stroke-opacity="0.0" clip-path="url(#id_0)" d="M232.0 273.0L225.0 273.0L225.0 131.0C225.0 129.89543 225.89543 129.0 227.0 129.0L230.0 129.0C231.10457 129.0 232.0 129.89543 232.0 131.0Z" fill-rule="nonzero"/><path fill="#ea4335" clip-path="url(#id_0)" d="M232.0 273.0L225.0 273.0L225.0 131.0C225.0 129.89543 225.89543 129.0 227.0 129.0L230.0 129.0C231.10457 129.0 232.0 129.89543 232.0 131.0Z" fill-rule="nonzero"/><path stroke="#000000" stroke-width="2.0" stroke-linecap="butt" stroke-opacity="0.0" clip-path="url(#id_0)" d="M356.0 273.0L349.0 273.0L349.0 99.0C349.0 97.89543 349.89542 97.0 351.0 97.0L354.0 97.0C355.10458 97.0 356.0 97.89543 356.0 99.0Z" fill-rule="nonzero"/><path fill="#ea4335" clip-path="url(#id_0)" d="M356.0 273.0L349.0 273.0L349.0 99.0C349.0 97.89543 349.89542 97.0 351.0 97.0L354.0 97.0C355.10458 97.0 356.0 97.89543 356.0 99.0Z" fill-rule="nonzero"/><path stroke="#000000" stroke-width="2.0" stroke-linecap="butt" stroke-opacity="0.0" clip-path="url(#id_0)" d="M116.0 273.0L109.0 273.0L109.0 163.0C109.0 161.89543 109.89543 161.0 111.0 161.0L114.0 161.0C115.10457 161.0 116.0 161.89543 116.0 163.0Z" fill-rule="nonzero"/><path fill="#fbbc04" clip-path="url(#id_0)" d="M116.0 273.0L109.0 273.0L109.0 163.0C109.0 161.89543 109.89543 161.0 111.0 161.0L114.0 161.0C115.10457 161.0 116.0 161.89543 116.0 163.0Z" fill-rule="nonzero"/><path stroke="#000000" stroke-width="2.0" stroke-linecap="butt" stroke-opacity="0.0" clip-path="url(#id_0)" d="M241.0 273.0L234.0 273.0L234.0 217.0C234.0 215.89543 234.89543 215.0 236.0 215.0L239.0 215.0C240.10457 215.0 241.0 215.89543 241.0 217.0Z" fill-rule="nonzero"/><path fill="#fbbc04" clip-path="url(#id_0)" d="M241.0 273.0L234.0 273.0L234.0 217.0C234.0 215.89543 234.89543 215.0 236.0 215.0L239.0 215.0C240.10457 215.0 241.0 215.89543 241.0 217.0Z" fill-rule="nonzero"/><path stroke="#000000" stroke-width="2.0" stroke-linecap="butt" stroke-opacity="0.0" clip-path="url(#id_0)" d="M365.0 273.0L358.0 273.0L358.0 234.0C358.0 232.89543 358.89542 232.0 360.0 232.0L363.0 232.0C364.10458 232.0 365.0 232.89543 365.0 234.0Z" fill-rule="nonzero"/><path fill="#fbbc04" clip-path="url(#id_0)" d="M365.0 273.0L358.0 273.0L358.0 234.0C358.0 232.89543 358.89542 232.0 360.0 232.0L363.0 232.0C364.10458 232.0 365.0 232.89543 365.0 234.0Z" fill-rule="nonzero"/><path stroke="#000000" stroke-width="2.0" stroke-linecap="butt" stroke-opacity="0.0" clip-path="url(#id_0)" d="M125.0 273.0L118.0 273.0L118.0 243.0C118.0 241.89543 118.89543 241.0 120.0 241.0L123.0 241.0C124.10457 241.0 125.0 241.89543 125.0 243.0Z" fill-rule="nonzero"/><path fill="#34a853" clip-path="url(#id_0)" d="M125.0 273.0L118.0 273.0L118.0 243.0C118.0 241.89543 118.89543 241.0 120.0 241.0L123.0 241.0C124.10457 241.0 125.0 241.89543 125.0 243.0Z" fill-rule="nonzero"/><path stroke="#000000" stroke-width="2.0" stroke-linecap="butt" stroke-opacity="0.0" clip-path="url(#id_0)" d="M250.0 273.0L243.0 273.0L243.0 227.0C243.0 225.89543 243.89543 225.0 245.0 225.0L248.0 225.0C249.10457 225.0 250.0 225.89543 250.0 227.0Z" fill-rule="nonzero"/><path fill="#34a853" clip-path="url(#id_0)" d="M250.0 273.0L243.0 273.0L243.0 227.0C243.0 225.89543 243.89543 225.0 245.0 225.0L248.0 225.0C249.10457 225.0 250.0 225.89543 250.0 227.0Z" fill-rule="nonzero"/><path stroke="#000000" stroke-width="2.0" stroke-linecap="butt" stroke-opacity="0.0" clip-path="url(#id_0)" d="M374.0 273.0L367.0 273.0L367.0 234.0C367.0 232.89543 367.89542 232.0 369.0 232.0L372.0 232.0C373.10458 232.0 374.0 232.89543 374.0 234.0Z" fill-rule="nonzero"/><path fill="#34a853" clip-path="url(#id_0)" d="M374.0 273.0L367.0 273.0L367.0 234.0C367.0 232.89543 367.89542 232.0 369.0 232.0L372.0 232.0C373.10458 232.0 374.0 232.89543 374.0 234.0Z" fill-rule="nonzero"/><path stroke="#000000" stroke-width="2.0" stroke-linecap="butt" stroke-opacity="0.0" clip-path="url(#id_0)" d="M134.0 273.0L127.0 273.0L127.0 179.0C127.0 177.89543 127.89543 177.0 129.0 177.0L132.0 177.0C133.10457 177.0 134.0 177.89543 134.0 179.0Z" fill-rule="nonzero"/><path fill="#ff6d01" clip-path="url(#id_0)" d="M134.0 273.0L127.0 273.0L127.0 179.0C127.0 177.89543 127.89543 177.0 129.0 177.0L132.0 177.0C133.10457 177.0 134.0 177.89543 134.0 179.0Z" fill-rule="nonzero"/><path stroke="#000000" stroke-width="2.0" stroke-linecap="butt" stroke-opacity="0.0" clip-path="url(#id_0)" d="M259.0 273.0L252.0 273.0L252.0 207.0C252.0 205.89543 252.89543 205.0 254.0 205.0L257.0 205.0C258.10458 205.0 259.0 205.89543 259.0 207.0Z" fill-rule="nonzero"/><path fill="#ff6d01" clip-path="url(#id_0)" d="M259.0 273.0L252.0 273.0L252.0 207.0C252.0 205.89543 252.89543 205.0 254.0 205.0L257.0 205.0C258.10458 205.0 259.0 205.89543 259.0 207.0Z" fill-rule="nonzero"/><path stroke="#000000" stroke-width="2.0" stroke-linecap="butt" stroke-opacity="0.0" clip-path="url(#id_0)" d="M383.0 273.0L376.0 273.0L376.0 248.0C376.0 246.89543 376.89542 246.0 378.0 246.0L381.0 246.0C382.10458 246.0 383.0 246.89543 383.0 248.0Z" fill-rule="nonzero"/><path fill="#ff6d01" clip-path="url(#id_0)" d="M383.0 273.0L376.0 273.0L376.0 248.0C376.0 246.89543 376.89542 246.0 378.0 246.0L381.0 246.0C382.10458 246.0 383.0 246.89543 383.0 248.0Z" fill-rule="nonzero"/><path stroke="#000000" stroke-width="2.0" stroke-linecap="butt" stroke-opacity="0.0" clip-path="url(#id_0)" d="M143.0 273.0L136.0 273.0L136.0 211.0C136.0 209.89543 136.89543 209.0 138.0 209.0L141.0 209.0C142.10457 209.0 143.0 209.89543 143.0 211.0Z" fill-rule="nonzero"/><path fill="#46bdc6" clip-path="url(#id_0)" d="M143.0 273.0L136.0 273.0L136.0 211.0C136.0 209.89543 136.89543 209.0 138.0 209.0L141.0 209.0C142.10457 209.0 143.0 209.89543 143.0 211.0Z" fill-rule="nonzero"/><path stroke="#000000" stroke-width="2.0" stroke-linecap="butt" stroke-opacity="0.0" clip-path="url(#id_0)" d="M268.0 273.0L261.0 273.0L261.0 246.0C261.0 244.89543 261.89542 244.0 263.0 244.0L266.0 244.0C267.10458 244.0 268.0 244.89543 268.0 246.0Z" fill-rule="nonzero"/><path fill="#46bdc6" clip-path="url(#id_0)" d="M268.0 273.0L261.0 273.0L261.0 246.0C261.0 244.89543 261.89542 244.0 263.0 244.0L266.0 244.0C267.10458 244.0 268.0 244.89543 268.0 246.0Z" fill-rule="nonzero"/><path stroke="#000000" stroke-width="2.0" stroke-linecap="butt" stroke-opacity="0.0" clip-path="url(#id_0)" d="M392.0 273.0L385.0 273.0L385.0 261.0C385.0 259.89542 385.89542 259.0 387.0 259.0L390.0 259.0C391.10458 259.0 392.0 259.89542 392.0 261.0Z" fill-rule="nonzero"/><path fill="#46bdc6" clip-path="url(#id_0)" d="M392.0 273.0L385.0 273.0L385.0 261.0C385.0 259.89542 385.89542 259.0 387.0 259.0L390.0 259.0C391.10458 259.0 392.0 259.89542 392.0 261.0Z" fill-rule="nonzero"/><path stroke="#000000" stroke-width="2.0" stroke-linecap="butt" stroke-opacity="0.0" clip-path="url(#id_0)" d="M152.0 273.0L145.0 273.0L145.0 259.0C145.0 257.89542 145.89543 257.0 147.0 257.0L150.0 257.0C151.10457 257.0 152.0 257.89542 152.0 259.0Z" fill-rule="nonzero"/><path fill="#7baaf7" clip-path="url(#id_0)" d="M152.0 273.0L145.0 273.0L145.0 259.0C145.0 257.89542 145.89543 257.0 147.0 257.0L150.0 257.0C151.10457 257.0 152.0 257.89542 152.0 259.0Z" fill-rule="nonzero"/><path stroke="#000000" stroke-width="2.0" stroke-linecap="butt" stroke-opacity="0.0" clip-path="url(#id_0)" d="M277.0 273.0L270.0 273.0L270.0 265.0C270.0 263.89542 270.89542 263.0 272.0 263.0L275.0 263.0C276.10458 263.0 277.0 263.89542 277.0 265.0Z" fill-rule="nonzero"/><path fill="#7baaf7" clip-path="url(#id_0)" d="M277.0 273.0L270.0 273.0L270.0 265.0C270.0 263.89542 270.89542 263.0 272.0 263.0L275.0 263.0C276.10458 263.0 277.0 263.89542 277.0 265.0Z" fill-rule="nonzero"/><path stroke="#000000" stroke-width="2.0" stroke-linecap="butt" stroke-opacity="0.0" clip-path="url(#id_0)" d="M401.0 273.0L394.0 273.0L394.0 261.0C394.0 259.89542 394.89542 259.0 396.0 259.0L399.0 259.0C400.10458 259.0 401.0 259.89542 401.0 261.0Z" fill-rule="nonzero"/><path fill="#7baaf7" clip-path="url(#id_0)" d="M401.0 273.0L394.0 273.0L394.0 261.0C394.0 259.89542 394.89542 259.0 396.0 259.0L399.0 259.0C400.10458 259.0 401.0 259.89542 401.0 261.0Z" fill-rule="nonzero"/><path stroke="#000000" stroke-width="2.0" stroke-linecap="butt" stroke-opacity="0.0" clip-path="url(#id_0)" d="M161.0 273.0L154.0 273.0L154.0 259.0C154.0 257.89542 154.89543 257.0 156.0 257.0L159.0 257.0C160.10457 257.0 161.0 257.89542 161.0 259.0Z" fill-rule="nonzero"/><path fill="#f07b72" clip-path="url(#id_0)" d="M161.0 273.0L154.0 273.0L154.0 259.0C154.0 257.89542 154.89543 257.0 156.0 257.0L159.0 257.0C160.10457 257.0 161.0 257.89542 161.0 259.0Z" fill-rule="nonzero"/><path stroke="#000000" stroke-width="2.0" stroke-linecap="butt" stroke-opacity="0.0" clip-path="url(#id_0)" d="M286.0 273.0L279.0 273.0L279.0 273.0L286.0 273.0Z" fill-rule="nonzero"/><path fill="#f07b72" clip-path="url(#id_0)" d="M286.0 273.0L279.0 273.0L279.0 273.0L286.0 273.0Z" fill-rule="nonzero"/><path stroke="#000000" stroke-width="2.0" stroke-linecap="butt" stroke-opacity="0.0" clip-path="url(#id_0)" d="M410.0 273.0L403.0 273.0L403.0 273.0L410.0 273.0Z" fill-rule="nonzero"/><path fill="#f07b72" clip-path="url(#id_0)" d="M410.0 273.0L403.0 273.0L403.0 273.0L410.0 273.0Z" fill-rule="nonzero"/><path stroke="#000000" stroke-width="2.0" stroke-linecap="butt" stroke-opacity="0.0" clip-path="url(#id_0)" d="M170.0 273.0L163.0 273.0L163.0 227.0C163.0 225.89543 163.89543 225.0 165.0 225.0L168.0 225.0C169.10457 225.0 170.0 225.89543 170.0 227.0Z" fill-rule="nonzero"/><path fill="#fcd04f" clip-path="url(#id_0)" d="M170.0 273.0L163.0 273.0L163.0 227.0C163.0 225.89543 163.89543 225.0 165.0 225.0L168.0 225.0C169.10457 225.0 170.0 225.89543 170.0 227.0Z" fill-rule="nonzero"/><path stroke="#000000" stroke-width="2.0" stroke-linecap="butt" stroke-opacity="0.0" clip-path="url(#id_0)" d="M295.0 273.0L288.0 273.0L288.0 236.0C288.0 234.89543 288.89542 234.0 290.0 234.0L293.0 234.0C294.10458 234.0 295.0 234.89543 295.0 236.0Z" fill-rule="nonzero"/><path fill="#fcd04f" clip-path="url(#id_0)" d="M295.0 273.0L288.0 273.0L288.0 236.0C288.0 234.89543 288.89542 234.0 290.0 234.0L293.0 234.0C294.10458 234.0 295.0 234.89543 295.0 236.0Z" fill-rule="nonzero"/><path stroke="#000000" stroke-width="2.0" stroke-linecap="butt" stroke-opacity="0.0" clip-path="url(#id_0)" d="M419.0 273.0L412.0 273.0L412.0 261.0C412.0 259.89542 412.89542 259.0 414.0 259.0L417.0 259.0C418.10458 259.0 419.0 259.89542 419.0 261.0Z" fill-rule="nonzero"/><path fill="#fcd04f" clip-path="url(#id_0)" d="M419.0 273.0L412.0 273.0L412.0 261.0C412.0 259.89542 412.89542 259.0 414.0 259.0L417.0 259.0C418.10458 259.0 419.0 259.89542 419.0 261.0Z" fill-rule="nonzero"/><path fill="#000000" d="M22.9 272.36563Q22.9 270.83438 23.2125 269.9125Q23.525 268.975 24.134375 268.475Q24.759375 267.975 25.696875 267.975Q26.384375 267.975 26.9 268.25626Q27.43125 268.5375 27.775 269.06876Q28.11875 269.58438 28.30625 270.33438Q28.49375 271.08438 28.49375 272.36563Q28.49375 273.88126 28.18125 274.80313Q27.884375 275.725 27.259375 276.24063Q26.65 276.74063 25.696875 276.74063Q24.4625 276.74063 23.74375 275.85Q22.9 274.7875 22.9 272.36563ZM23.978125 272.36563Q23.978125 274.475 24.478125 275.17813Q24.978125 275.88126 25.696875 275.88126Q26.43125 275.88126 26.915625 275.17813Q27.415625 274.475 27.415625 272.36563Q27.415625 270.24063 26.915625 269.55313Q26.43125 268.85 25.68125 268.85Q24.9625 268.85 24.525 269.45938Q23.978125 270.24063 23.978125 272.36563ZM30.103125 270.06876Q30.103125 269.14688 30.55625 268.50626Q31.025 267.86563 31.9 267.86563Q32.7125 267.86563 33.24375 268.44376Q33.775 269.02188 33.775 270.13126Q33.775 271.225 33.228127 271.81876Q32.696877 272.39688 31.915625 272.39688Q31.134375 272.39688 30.61875 271.81876Q30.103125 271.24063 30.103125 270.06876ZM31.93125 268.58438Q31.540625 268.58438 31.275 268.92813Q31.025 269.27188 31.025 270.17813Q31.025 271.00626 31.275 271.35Q31.540625 271.67813 31.93125 271.67813Q32.3375 271.67813 32.5875 271.33438Q32.853127 270.99063 32.853127 270.1Q32.853127 269.25626 32.5875 268.92813Q32.321877 268.58438 31.93125 268.58438ZM31.93125 276.9125L36.634377 267.86563L37.49375 267.86563L32.80625 276.9125L31.93125 276.9125ZM35.65 274.58438Q35.65 273.6625 36.103127 273.02188Q36.571877 272.38126 37.4625 272.38126Q38.275 272.38126 38.80625 272.95938Q39.3375 273.52188 39.3375 274.64688Q39.3375 275.74063 38.790627 276.33438Q38.259377 276.9125 37.4625 276.9125Q36.696877 276.9125 36.165627 276.33438Q35.65 275.75626 35.65 274.58438ZM37.49375 273.1Q37.0875 273.1 36.821877 273.44376Q36.571877 273.7875 36.571877 274.69376Q36.571877 275.50626 36.8375 275.85Q37.103127 276.19376 37.49375 276.19376Q37.884377 276.19376 38.15 275.85Q38.415627 275.50626 38.415627 274.6Q38.415627 273.77188 38.15 273.44376Q37.884377 273.1 37.49375 273.1Z" fill-rule="nonzero"/><path fill="#000000" d="M19.86875 233.41333L18.821875 233.41333L18.821875 226.69458Q18.43125 227.05396 17.80625 227.42896Q17.196875 227.78833 16.7125 227.9602L16.7125 226.94458Q17.5875 226.5227 18.24375 225.94458Q18.915625 225.35083 19.196875 224.78833L19.86875 224.78833L19.86875 233.41333ZM22.9 229.17896Q22.9 227.6477 23.2125 226.72583Q23.525 225.78833 24.134375 225.28833Q24.759375 224.78833 25.696875 224.78833Q26.384375 224.78833 26.9 225.06958Q27.43125 225.35083 27.775 225.88208Q28.11875 226.3977 28.30625 227.1477Q28.49375 227.8977 28.49375 229.17896Q28.49375 230.69458 28.18125 231.61646Q27.884375 232.53833 27.259375 233.05396Q26.65 233.55396 25.696875 233.55396Q24.4625 233.55396 23.74375 232.66333Q22.9 231.60083 22.9 229.17896ZM23.978125 229.17896Q23.978125 231.28833 24.478125 231.99146Q24.978125 232.69458 25.696875 232.69458Q26.43125 232.69458 26.915625 231.99146Q27.415625 231.28833 27.415625 229.17896Q27.415625 227.05396 26.915625 226.36646Q26.43125 225.66333 25.68125 225.66333Q24.9625 225.66333 24.525 226.2727Q23.978125 227.05396 23.978125 229.17896ZM30.103125 226.88208Q30.103125 225.9602 30.55625 225.31958Q31.025 224.67896 31.9 224.67896Q32.7125 224.67896 33.24375 225.25708Q33.775 225.8352 33.775 226.94458Q33.775 228.03833 33.228127 228.63208Q32.696877 229.2102 31.915625 229.2102Q31.134375 229.2102 30.61875 228.63208Q30.103125 228.05396 30.103125 226.88208ZM31.93125 225.3977Q31.540625 225.3977 31.275 225.74146Q31.025 226.0852 31.025 226.99146Q31.025 227.81958 31.275 228.16333Q31.540625 228.49146 31.93125 228.49146Q32.3375 228.49146 32.5875 228.1477Q32.853127 227.80396 32.853127 226.91333Q32.853127 226.06958 32.5875 225.74146Q32.321877 225.3977 31.93125 225.3977ZM31.93125 233.72583L36.634377 224.67896L37.49375 224.67896L32.80625 233.72583L31.93125 233.72583ZM35.65 231.3977Q35.65 230.47583 36.103127 229.8352Q36.571877 229.19458 37.4625 229.19458Q38.275 229.19458 38.80625 229.7727Q39.3375 230.3352 39.3375 231.4602Q39.3375 232.55396 38.790627 233.1477Q38.259377 233.72583 37.4625 233.72583Q36.696877 233.72583 36.165627 233.1477Q35.65 232.56958 35.65 231.3977ZM37.49375 229.91333Q37.0875 229.91333 36.821877 230.25708Q36.571877 230.60083 36.571877 231.50708Q36.571877 232.31958 36.8375 232.66333Q37.103127 233.00708 37.49375 233.00708Q37.884377 233.00708 38.15 232.66333Q38.415627 232.31958 38.415627 231.41333Q38.415627 230.5852 38.15 230.25708Q37.884377 229.91333 37.49375 229.91333Z" fill-rule="nonzero"/><path fill="#000000" d="M21.446875 189.21104L21.446875 190.22667L15.759375 190.22667Q15.759375 189.85167 15.884375 189.4923Q16.103125 188.91417 16.571875 188.35167Q17.05625 187.78917 17.9625 187.0548Q19.36875 185.89854 19.853125 185.22667Q20.353125 184.5548 20.353125 183.96104Q20.353125 183.33604 19.9 182.91417Q19.446875 182.47667 18.728125 182.47667Q17.9625 182.47667 17.509375 182.9298Q17.05625 183.38292 17.040625 184.19542L15.9625 184.08604Q16.071875 182.8673 16.790625 182.2423Q17.525 181.60167 18.759375 181.60167Q19.99375 181.60167 20.7125 182.28917Q21.43125 182.97667 21.43125 183.9923Q21.43125 184.50792 21.2125 185.00792Q21.009375 185.4923 20.509375 186.0548Q20.025 186.60167 18.9 187.5548Q17.946875 188.35167 17.665625 188.64854Q17.4 188.9298 17.228125 189.21104L21.446875 189.21104ZM22.9 185.9923Q22.9 184.46104 23.2125 183.53917Q23.525 182.60167 24.134375 182.10167Q24.759375 181.60167 25.696875 181.60167Q26.384375 181.60167 26.9 181.88292Q27.43125 182.16417 27.775 182.69542Q28.11875 183.21104 28.30625 183.96104Q28.49375 184.71104 28.49375 185.9923Q28.49375 187.50792 28.18125 188.4298Q27.884375 189.35167 27.259375 189.8673Q26.65 190.3673 25.696875 190.3673Q24.4625 190.3673 23.74375 189.47667Q22.9 188.41417 22.9 185.9923ZM23.978125 185.9923Q23.978125 188.10167 24.478125 188.8048Q24.978125 189.50792 25.696875 189.50792Q26.43125 189.50792 26.915625 188.8048Q27.415625 188.10167 27.415625 185.9923Q27.415625 183.8673 26.915625 183.1798Q26.43125 182.47667 25.68125 182.47667Q24.9625 182.47667 24.525 183.08604Q23.978125 183.8673 23.978125 185.9923ZM30.103125 183.69542Q30.103125 182.77354 30.55625 182.13292Q31.025 181.4923 31.9 181.4923Q32.7125 181.4923 33.24375 182.07042Q33.775 182.64854 33.775 183.75792Q33.775 184.85167 33.228127 185.44542Q32.696877 186.02354 31.915625 186.02354Q31.134375 186.02354 30.61875 185.44542Q30.103125 184.8673 30.103125 183.69542ZM31.93125 182.21104Q31.540625 182.21104 31.275 182.5548Q31.025 182.89854 31.025 183.8048Q31.025 184.63292 31.275 184.97667Q31.540625 185.3048 31.93125 185.3048Q32.3375 185.3048 32.5875 184.96104Q32.853127 184.6173 32.853127 183.72667Q32.853127 182.88292 32.5875 182.5548Q32.321877 182.21104 31.93125 182.21104ZM31.93125 190.53917L36.634377 181.4923L37.49375 181.4923L32.80625 190.53917L31.93125 190.53917ZM35.65 188.21104Q35.65 187.28917 36.103127 186.64854Q36.571877 186.00792 37.4625 186.00792Q38.275 186.00792 38.80625 186.58604Q39.3375 187.14854 39.3375 188.27354Q39.3375 189.3673 38.790627 189.96104Q38.259377 190.53917 37.4625 190.53917Q36.696877 190.53917 36.165627 189.96104Q35.65 189.38292 35.65 188.21104ZM37.49375 186.72667Q37.0875 186.72667 36.821877 187.07042Q36.571877 187.41417 36.571877 188.32042Q36.571877 189.13292 36.8375 189.47667Q37.103127 189.82042 37.49375 189.82042Q37.884377 189.82042 38.15 189.47667Q38.415627 189.13292 38.415627 188.22667Q38.415627 187.39854 38.15 187.07042Q37.884377 186.72667 37.49375 186.72667Z" fill-rule="nonzero"/><path fill="#000000" d="M15.9 144.77437L16.9625 144.63374Q17.134375 145.52437 17.571875 145.93062Q18.009375 146.32124 18.634375 146.32124Q19.384375 146.32124 19.9 145.80562Q20.415625 145.29 20.415625 144.52437Q20.415625 143.80562 19.93125 143.33687Q19.4625 142.8525 18.728125 142.8525Q18.43125 142.8525 17.978125 142.9775L18.103125 142.04Q18.2125 142.05562 18.275 142.05562Q18.946875 142.05562 19.478125 141.71187Q20.025 141.3525 20.025 140.61812Q20.025 140.04 19.634375 139.665Q19.24375 139.27437 18.61875 139.27437Q18.009375 139.27437 17.5875 139.665Q17.18125 140.05562 17.071875 140.82124L16.009375 140.63374Q16.196875 139.58687 16.884375 139.00874Q17.571875 138.415 18.5875 138.415Q19.290625 138.415 19.884375 138.7275Q20.478125 139.02437 20.790625 139.54Q21.103125 140.05562 21.103125 140.64937Q21.103125 141.19624 20.80625 141.665Q20.509375 142.11812 19.93125 142.38374Q20.68125 142.55562 21.103125 143.11812Q21.525 143.665 21.525 144.50874Q21.525 145.63374 20.696875 146.415Q19.884375 147.19624 18.634375 147.19624Q17.509375 147.19624 16.759375 146.52437Q16.009375 145.83687 15.9 144.77437ZM22.9 142.80562Q22.9 141.27437 23.2125 140.3525Q23.525 139.415 24.134375 138.915Q24.759375 138.415 25.696875 138.415Q26.384375 138.415 26.9 138.69624Q27.43125 138.9775 27.775 139.50874Q28.11875 140.02437 28.30625 140.77437Q28.49375 141.52437 28.49375 142.80562Q28.49375 144.32124 28.18125 145.24312Q27.884375 146.165 27.259375 146.68062Q26.65 147.18062 25.696875 147.18062Q24.4625 147.18062 23.74375 146.29Q22.9 145.2275 22.9 142.80562ZM23.978125 142.80562Q23.978125 144.915 24.478125 145.61812Q24.978125 146.32124 25.696875 146.32124Q26.43125 146.32124 26.915625 145.61812Q27.415625 144.915 27.415625 142.80562Q27.415625 140.68062 26.915625 139.99312Q26.43125 139.29 25.68125 139.29Q24.9625 139.29 24.525 139.89937Q23.978125 140.68062 23.978125 142.80562ZM30.103125 140.50874Q30.103125 139.58687 30.55625 138.94624Q31.025 138.30562 31.9 138.30562Q32.7125 138.30562 33.24375 138.88374Q33.775 139.46187 33.775 140.57124Q33.775 141.665 33.228127 142.25874Q32.696877 142.83687 31.915625 142.83687Q31.134375 142.83687 30.61875 142.25874Q30.103125 141.68062 30.103125 140.50874ZM31.93125 139.02437Q31.540625 139.02437 31.275 139.36812Q31.025 139.71187 31.025 140.61812Q31.025 141.44624 31.275 141.79Q31.540625 142.11812 31.93125 142.11812Q32.3375 142.11812 32.5875 141.77437Q32.853127 141.43062 32.853127 140.54Q32.853127 139.69624 32.5875 139.36812Q32.321877 139.02437 31.93125 139.02437ZM31.93125 147.3525L36.634377 138.30562L37.49375 138.30562L32.80625 147.3525L31.93125 147.3525ZM35.65 145.02437Q35.65 144.1025 36.103127 143.46187Q36.571877 142.82124 37.4625 142.82124Q38.275 142.82124 38.80625 143.39937Q39.3375 143.96187 39.3375 145.08687Q39.3375 146.18062 38.790627 146.77437Q38.259377 147.3525 37.4625 147.3525Q36.696877 147.3525 36.165627 146.77437Q35.65 146.19624 35.65 145.02437ZM37.49375 143.54Q37.0875 143.54 36.821877 143.88374Q36.571877 144.2275 36.571877 145.13374Q36.571877 145.94624 36.8375 146.29Q37.103127 146.63374 37.49375 146.63374Q37.884377 146.63374 38.15 146.29Q38.415627 145.94624 38.415627 145.04Q38.415627 144.21187 38.15 143.88374Q37.884377 143.54 37.49375 143.54Z" fill-rule="nonzero"/><path fill="#000000" d="M19.275 103.85333L19.275 101.79083L15.55625 101.79083L15.55625 100.82208L19.478125 95.25958L20.3375 95.25958L20.3375 100.82208L21.49375 100.82208L21.49375 101.79083L20.3375 101.79083L20.3375 103.85333L19.275 103.85333ZM19.275 100.82208L19.275 96.96271L16.5875 100.82208L19.275 100.82208ZM22.9 99.61896Q22.9 98.08771 23.2125 97.16583Q23.525 96.22833 24.134375 95.72833Q24.759375 95.22833 25.696875 95.22833Q26.384375 95.22833 26.9 95.50958Q27.43125 95.79083 27.775 96.32208Q28.11875 96.83771 28.30625 97.58771Q28.49375 98.33771 28.49375 99.61896Q28.49375 101.13458 28.18125 102.05646Q27.884375 102.97833 27.259375 103.49396Q26.65 103.99396 25.696875 103.99396Q24.4625 103.99396 23.74375 103.10333Q22.9 102.04083 22.9 99.61896ZM23.978125 99.61896Q23.978125 101.72833 24.478125 102.43146Q24.978125 103.13458 25.696875 103.13458Q26.43125 103.13458 26.915625 102.43146Q27.415625 101.72833 27.415625 99.61896Q27.415625 97.49396 26.915625 96.80646Q26.43125 96.10333 25.68125 96.10333Q24.9625 96.10333 24.525 96.71271Q23.978125 97.49396 23.978125 99.61896ZM30.103125 97.32208Q30.103125 96.40021 30.55625 95.75958Q31.025 95.11896 31.9 95.11896Q32.7125 95.11896 33.24375 95.69708Q33.775 96.27521 33.775 97.38458Q33.775 98.47833 33.228127 99.07208Q32.696877 99.65021 31.915625 99.65021Q31.134375 99.65021 30.61875 99.07208Q30.103125 98.49396 30.103125 97.32208ZM31.93125 95.83771Q31.540625 95.83771 31.275 96.18146Q31.025 96.52521 31.025 97.43146Q31.025 98.25958 31.275 98.60333Q31.540625 98.93146 31.93125 98.93146Q32.3375 98.93146 32.5875 98.58771Q32.853127 98.24396 32.853127 97.35333Q32.853127 96.50958 32.5875 96.18146Q32.321877 95.83771 31.93125 95.83771ZM31.93125 104.16583L36.634377 95.11896L37.49375 95.11896L32.80625 104.16583L31.93125 104.16583ZM35.65 101.83771Q35.65 100.91583 36.103127 100.27521Q36.571877 99.63458 37.4625 99.63458Q38.275 99.63458 38.80625 100.21271Q39.3375 100.77521 39.3375 101.90021Q39.3375 102.99396 38.790627 103.58771Q38.259377 104.16583 37.4625 104.16583Q36.696877 104.16583 36.165627 103.58771Q35.65 103.00958 35.65 101.83771ZM37.49375 100.35333Q37.0875 100.35333 36.821877 100.69708Q36.571877 101.04083 36.571877 101.94708Q36.571877 102.75958 36.8375 103.10333Q37.103127 103.44708 37.49375 103.44708Q37.884377 103.44708 38.15 103.10333Q38.415627 102.75958 38.415627 101.85333Q38.415627 101.02521 38.15 100.69708Q37.884377 100.35333 37.49375 100.35333Z" fill-rule="nonzero"/><path fill="#000000" d="M15.9 58.416668L17.009375 58.322918Q17.134375 59.135418 17.571875 59.541668Q18.025 59.947918 18.665625 59.947918Q19.415625 59.947918 19.946875 59.369793Q20.478125 58.791668 20.478125 57.854168Q20.478125 56.947918 19.9625 56.432293Q19.4625 55.901043 18.634375 55.901043Q18.134375 55.901043 17.7125 56.135418Q17.30625 56.369793 17.071875 56.729168L16.0875 56.604168L16.915625 52.197918L21.196875 52.197918L21.196875 53.197918L17.759375 53.197918L17.30625 55.510418Q18.071875 54.963543 18.915625 54.963543Q20.040625 54.963543 20.80625 55.744793Q21.5875 56.526043 21.5875 57.760418Q21.5875 58.916668 20.915625 59.776043Q20.0875 60.807293 18.665625 60.807293Q17.49375 60.807293 16.74375 60.151043Q16.009375 59.494793 15.9 58.416668ZM22.9 56.432293Q22.9 54.901043 23.2125 53.979168Q23.525 53.041668 24.134375 52.541668Q24.759375 52.041668 25.696875 52.041668Q26.384375 52.041668 26.9 52.322918Q27.43125 52.604168 27.775 53.135418Q28.11875 53.651043 28.30625 54.401043Q28.49375 55.151043 28.49375 56.432293Q28.49375 57.947918 28.18125 58.869793Q27.884375 59.791668 27.259375 60.307293Q26.65 60.807293 25.696875 60.807293Q24.4625 60.807293 23.74375 59.916668Q22.9 58.854168 22.9 56.432293ZM23.978125 56.432293Q23.978125 58.541668 24.478125 59.244793Q24.978125 59.947918 25.696875 59.947918Q26.43125 59.947918 26.915625 59.244793Q27.415625 58.541668 27.415625 56.432293Q27.415625 54.307293 26.915625 53.619793Q26.43125 52.916668 25.68125 52.916668Q24.9625 52.916668 24.525 53.526043Q23.978125 54.307293 23.978125 56.432293ZM30.103125 54.135418Q30.103125 53.213543 30.55625 52.572918Q31.025 51.932293 31.9 51.932293Q32.7125 51.932293 33.24375 52.510418Q33.775 53.088543 33.775 54.197918Q33.775 55.291668 33.228127 55.885418Q32.696877 56.463543 31.915625 56.463543Q31.134375 56.463543 30.61875 55.885418Q30.103125 55.307293 30.103125 54.135418ZM31.93125 52.651043Q31.540625 52.651043 31.275 52.994793Q31.025 53.338543 31.025 54.244793Q31.025 55.072918 31.275 55.416668Q31.540625 55.744793 31.93125 55.744793Q32.3375 55.744793 32.5875 55.401043Q32.853127 55.057293 32.853127 54.166668Q32.853127 53.322918 32.5875 52.994793Q32.321877 52.651043 31.93125 52.651043ZM31.93125 60.979168L36.634377 51.932293L37.49375 51.932293L32.80625 60.979168L31.93125 60.979168ZM35.65 58.651043Q35.65 57.729168 36.103127 57.088543Q36.571877 56.447918 37.4625 56.447918Q38.275 56.447918 38.80625 57.026043Q39.3375 57.588543 39.3375 58.713543Q39.3375 59.807293 38.790627 60.401043Q38.259377 60.979168 37.4625 60.979168Q36.696877 60.979168 36.165627 60.401043Q35.65 59.822918 35.65 58.651043ZM37.49375 57.166668Q37.0875 57.166668 36.821877 57.510418Q36.571877 57.854168 36.571877 58.760418Q36.571877 59.572918 36.8375 59.916668Q37.103127 60.260418 37.49375 60.260418Q37.884377 60.260418 38.15 59.916668Q38.415627 59.572918 38.415627 58.666668Q38.415627 57.838543 38.15 57.510418Q37.884377 57.166668 37.49375 57.166668Z" fill-rule="nonzero"/><path fill="#000000" d="M122.47016 288.58438L122.47016 289.6L116.78266 289.6Q116.78266 289.225 116.90766 288.86563Q117.12641 288.2875 117.59516 287.725Q118.07954 287.1625 118.98579 286.42813Q120.39204 285.27188 120.87641 284.6Q121.37641 283.92813 121.37641 283.33438Q121.37641 282.70938 120.92329 282.2875Q120.47016 281.85 119.75141 281.85Q118.98579 281.85 118.53266 282.30313Q118.07954 282.75626 118.06391 283.56876L116.98579 283.45938Q117.09516 282.24063 117.81391 281.61563Q118.54829 280.975 119.78266 280.975Q121.01704 280.975 121.73579 281.6625Q122.45454 282.35 122.45454 283.36563Q122.45454 283.88126 122.23579 284.38126Q122.03266 284.86563 121.53266 285.42813Q121.04829 285.975 119.92329 286.92813Q118.97016 287.725 118.68891 288.02188Q118.42329 288.30313 118.25141 288.58438L122.47016 288.58438ZM123.92329 285.36563Q123.92329 283.83438 124.23579 282.9125Q124.54829 281.975 125.15766 281.475Q125.78266 280.975 126.72016 280.975Q127.40766 280.975 127.92329 281.25626Q128.45453 281.5375 128.79828 282.06876Q129.14203 282.58438 129.32953 283.33438Q129.51703 284.08438 129.51703 285.36563Q129.51703 286.88126 129.20453 287.80313Q128.90765 288.725 128.28265 289.24063Q127.67329 289.74063 126.72016 289.74063Q125.48579 289.74063 124.76704 288.85Q123.92329 287.7875 123.92329 285.36563ZM125.00141 285.36563Q125.00141 287.475 125.50141 288.17813Q126.00141 288.88126 126.72016 288.88126Q127.45454 288.88126 127.93891 288.17813Q128.4389 287.475 128.4389 285.36563Q128.4389 283.24063 127.93891 282.55313Q127.45454 281.85 126.70454 281.85Q125.98579 281.85 125.54829 282.45938Q125.00141 283.24063 125.00141 285.36563ZM134.89203 289.6L133.84515 289.6L133.84515 282.88126Q133.45453 283.24063 132.82953 283.61563Q132.22015 283.975 131.73578 284.14688L131.73578 283.13126Q132.61078 282.70938 133.26703 282.13126Q133.9389 281.5375 134.22015 280.975L134.89203 280.975L134.89203 289.6ZM139.54828 284.94376Q138.89203 284.69376 138.5639 284.25626Q138.2514 283.80313 138.2514 283.19376Q138.2514 282.25626 138.92328 281.61563Q139.61078 280.975 140.72015 280.975Q141.84515 280.975 142.53265 281.63126Q143.22015 282.2875 143.22015 283.225Q143.22015 283.81876 142.90765 284.25626Q142.59515 284.69376 141.95453 284.94376Q142.7514 285.19376 143.15765 285.77188Q143.5639 286.35 143.5639 287.14688Q143.5639 288.24063 142.78265 288.99063Q142.01703 289.74063 140.73578 289.74063Q139.47015 289.74063 138.6889 288.99063Q137.90765 288.24063 137.90765 287.11563Q137.90765 286.27188 138.32953 285.70938Q138.76703 285.14688 139.54828 284.94376ZM139.32953 283.14688Q139.32953 283.75626 139.72015 284.14688Q140.1264 284.5375 140.7514 284.5375Q141.36078 284.5375 141.7514 284.1625Q142.14203 283.77188 142.14203 283.20938Q142.14203 282.63126 141.73578 282.24063Q141.32953 281.83438 140.73578 281.83438Q140.1264 281.83438 139.72015 282.225Q139.32953 282.61563 139.32953 283.14688ZM139.0014 287.11563Q139.0014 287.56876 139.20453 287.99063Q139.42328 288.4125 139.84515 288.64688Q140.26703 288.88126 140.7514 288.88126Q141.5014 288.88126 141.98578 288.39688Q142.48578 287.9125 142.48578 287.1625Q142.48578 286.39688 141.98578 285.89688Q141.48578 285.39688 140.72015 285.39688Q139.97015 285.39688 139.48578 285.89688Q139.0014 286.38126 139.0014 287.11563Z" fill-rule="nonzero"/><path fill="#000000" d="M246.9491 288.58438L246.9491 289.6L241.2616 289.6Q241.2616 289.225 241.3866 288.86563Q241.60535 288.2875 242.0741 287.725Q242.55847 287.1625 243.46472 286.42813Q244.87097 285.27188 245.35535 284.6Q245.85535 283.92813 245.85535 283.33438Q245.85535 282.70938 245.40222 282.2875Q244.9491 281.85 244.23035 281.85Q243.46472 281.85 243.0116 282.30313Q242.55847 282.75626 242.54285 283.56876L241.46472 283.45938Q241.5741 282.24063 242.29285 281.61563Q243.02722 280.975 244.2616 280.975Q245.49597 280.975 246.21472 281.6625Q246.93347 282.35 246.93347 283.36563Q246.93347 283.88126 246.71472 284.38126Q246.5116 284.86563 246.0116 285.42813Q245.52722 285.975 244.40222 286.92813Q243.4491 287.725 243.16785 288.02188Q242.90222 288.30313 242.73035 288.58438L246.9491 288.58438ZM248.40222 285.36563Q248.40222 283.83438 248.71472 282.9125Q249.02722 281.975 249.6366 281.475Q250.2616 280.975 251.1991 280.975Q251.8866 280.975 252.40222 281.25626Q252.93347 281.5375 253.27722 282.06876Q253.62097 282.58438 253.80847 283.33438Q253.99597 284.08438 253.99597 285.36563Q253.99597 286.88126 253.68347 287.80313Q253.3866 288.725 252.7616 289.24063Q252.15222 289.74063 251.1991 289.74063Q249.96472 289.74063 249.24597 288.85Q248.40222 287.7875 248.40222 285.36563ZM249.48035 285.36563Q249.48035 287.475 249.98035 288.17813Q250.48035 288.88126 251.1991 288.88126Q251.93347 288.88126 252.41785 288.17813Q252.91785 287.475 252.91785 285.36563Q252.91785 283.24063 252.41785 282.55313Q251.93347 281.85 251.18347 281.85Q250.46472 281.85 250.02722 282.45938Q249.48035 283.24063 249.48035 285.36563ZM259.37097 289.6L258.3241 289.6L258.3241 282.88126Q257.93347 283.24063 257.30847 283.61563Q256.6991 283.975 256.21472 284.14688L256.21472 283.13126Q257.08972 282.70938 257.74597 282.13126Q258.41785 281.5375 258.6991 280.975L259.37097 280.975L259.37097 289.6ZM262.55847 287.61563L263.5741 287.52188Q263.6991 288.24063 264.05847 288.56876Q264.43347 288.88126 264.99597 288.88126Q265.48035 288.88126 265.83972 288.6625Q266.21472 288.42813 266.4491 288.06876Q266.68347 287.69376 266.83972 287.06876Q266.99597 286.42813 266.99597 285.77188Q266.99597 285.69376 266.99597 285.55313Q266.68347 286.05313 266.1366 286.38126Q265.58972 286.69376 264.9491 286.69376Q263.87097 286.69376 263.1366 285.92813Q262.40222 285.14688 262.40222 283.88126Q262.40222 282.56876 263.16785 281.77188Q263.9491 280.975 265.10535 280.975Q265.93347 280.975 266.62097 281.42813Q267.3241 281.88126 267.68347 282.725Q268.04285 283.55313 268.04285 285.13126Q268.04285 286.77188 267.68347 287.75626Q267.33972 288.725 266.62097 289.24063Q265.91785 289.74063 264.98035 289.74063Q263.96472 289.74063 263.3241 289.19376Q262.68347 288.63126 262.55847 287.61563ZM266.87097 283.81876Q266.87097 282.9125 266.3866 282.38126Q265.91785 281.85 265.23035 281.85Q264.52722 281.85 263.99597 282.42813Q263.48035 282.99063 263.48035 283.9125Q263.48035 284.725 263.98035 285.24063Q264.48035 285.75626 265.1991 285.75626Q265.93347 285.75626 266.40222 285.24063Q266.87097 284.725 266.87097 283.81876Z" fill-rule="nonzero"/><path fill="#000000" d="M371.42804 288.58438L371.42804 289.6L365.74054 289.6Q365.74054 289.225 365.86554 288.86563Q366.0843 288.2875 366.55304 287.725Q367.0374 287.1625 367.94366 286.42813Q369.3499 285.27188 369.8343 284.6Q370.3343 283.92813 370.3343 283.33438Q370.3343 282.70938 369.88116 282.2875Q369.42804 281.85 368.7093 281.85Q367.94366 281.85 367.49054 282.30313Q367.0374 282.75626 367.0218 283.56876L365.94366 283.45938Q366.05304 282.24063 366.7718 281.61563Q367.50616 280.975 368.74054 280.975Q369.9749 280.975 370.69366 281.6625Q371.4124 282.35 371.4124 283.36563Q371.4124 283.88126 371.19366 284.38126Q370.99054 284.86563 370.49054 285.42813Q370.00616 285.975 368.88116 286.92813Q367.92804 287.725 367.6468 288.02188Q367.38116 288.30313 367.2093 288.58438L371.42804 288.58438ZM372.88116 285.36563Q372.88116 283.83438 373.19366 282.9125Q373.50616 281.975 374.11554 281.475Q374.74054 280.975 375.67804 280.975Q376.36554 280.975 376.88116 281.25626Q377.4124 281.5375 377.75616 282.06876Q378.0999 282.58438 378.2874 283.33438Q378.4749 284.08438 378.4749 285.36563Q378.4749 286.88126 378.1624 287.80313Q377.86554 288.725 377.24054 289.24063Q376.63116 289.74063 375.67804 289.74063Q374.44366 289.74063 373.7249 288.85Q372.88116 287.7875 372.88116 285.36563ZM373.9593 285.36563Q373.9593 287.475 374.4593 288.17813Q374.9593 288.88126 375.67804 288.88126Q376.4124 288.88126 376.8968 288.17813Q377.3968 287.475 377.3968 285.36563Q377.3968 283.24063 376.8968 282.55313Q376.4124 281.85 375.6624 281.85Q374.94366 281.85 374.50616 282.45938Q373.9593 283.24063 373.9593 285.36563ZM385.42804 288.58438L385.42804 289.6L379.74054 289.6Q379.74054 289.225 379.86554 288.86563Q380.0843 288.2875 380.55304 287.725Q381.0374 287.1625 381.94366 286.42813Q383.3499 285.27188 383.8343 284.6Q384.3343 283.92813 384.3343 283.33438Q384.3343 282.70938 383.88116 282.2875Q383.42804 281.85 382.7093 281.85Q381.94366 281.85 381.49054 282.30313Q381.0374 282.75626 381.0218 283.56876L379.94366 283.45938Q380.05304 282.24063 380.7718 281.61563Q381.50616 280.975 382.74054 280.975Q383.9749 280.975 384.69366 281.6625Q385.4124 282.35 385.4124 283.36563Q385.4124 283.88126 385.19366 284.38126Q384.99054 284.86563 384.49054 285.42813Q384.00616 285.975 382.88116 286.92813Q381.92804 287.725 381.6468 288.02188Q381.38116 288.30313 381.2093 288.58438L385.42804 288.58438ZM386.88116 285.36563Q386.88116 283.83438 387.19366 282.9125Q387.50616 281.975 388.11554 281.475Q388.74054 280.975 389.67804 280.975Q390.36554 280.975 390.88116 281.25626Q391.4124 281.5375 391.75616 282.06876Q392.0999 282.58438 392.2874 283.33438Q392.4749 284.08438 392.4749 285.36563Q392.4749 286.88126 392.1624 287.80313Q391.86554 288.725 391.24054 289.24063Q390.63116 289.74063 389.67804 289.74063Q388.44366 289.74063 387.7249 288.85Q386.88116 287.7875 386.88116 285.36563ZM387.9593 285.36563Q387.9593 287.475 388.4593 288.17813Q388.9593 288.88126 389.67804 288.88126Q390.4124 288.88126 390.8968 288.17813Q391.3968 287.475 391.3968 285.36563Q391.3968 283.24063 390.8968 282.55313Q390.4124 281.85 389.6624 281.85Q388.94366 281.85 388.50616 282.45938Q387.9593 283.24063 387.9593 285.36563Z" fill-rule="nonzero"/><path fill="#4285f4" d="M479.6 51.666668C479.6 51.114384 480.04773 50.666668 480.6 50.666668L490.6 50.666668C491.15228 50.666668 491.6 51.114384 491.6 51.666668L491.6 61.666668C491.6 62.218952 491.15228 62.666668 490.6 62.666668L480.6 62.666668C480.04773 62.666668 479.6 62.218952 479.6 61.666668Z" fill-rule="nonzero"/><path fill="#1a1a1a" d="M500.58438 60.666668L500.58438 52.072918L506.38126 52.072918L506.38126 53.088543L501.725 53.088543L501.725 55.744793L505.75626 55.744793L505.75626 56.760418L501.725 56.760418L501.725 60.666668L500.58438 60.666668ZM511.45938 59.901043Q510.86563 60.401043 510.31876 60.604168Q509.7875 60.807293 509.1625 60.807293Q508.13126 60.807293 507.58438 60.307293Q507.0375 59.807293 507.0375 59.026043Q507.0375 58.572918 507.24063 58.197918Q507.44376 57.807293 507.7875 57.588543Q508.13126 57.354168 508.55313 57.244793Q508.85 57.151043 509.49063 57.072918Q510.75626 56.932293 511.36563 56.713543Q511.36563 56.494793 511.36563 56.447918Q511.36563 55.791668 511.06876 55.526043Q510.6625 55.182293 509.86563 55.182293Q509.13126 55.182293 508.77188 55.447918Q508.4125 55.697918 508.24063 56.354168L507.20938 56.213543Q507.35 55.557293 507.67813 55.151043Q508.00626 54.744793 508.61563 54.526043Q509.225 54.307293 510.02188 54.307293Q510.81876 54.307293 511.31876 54.494793Q511.81876 54.682293 512.0531 54.963543Q512.2875 55.244793 512.3812 55.682293Q512.4281 55.947918 512.4281 56.651043L512.4281 58.057293Q512.4281 59.526043 512.4906 59.916668Q512.5687 60.307293 512.77185 60.666668L511.6625 60.666668Q511.50626 60.338543 511.45938 59.901043ZM511.36563 57.541668Q510.7875 57.776043 509.64688 57.947918Q508.99063 58.041668 508.725 58.166668Q508.45938 58.276043 508.30313 58.494793Q508.1625 58.713543 508.1625 58.994793Q508.1625 59.416668 508.475 59.697918Q508.80313 59.979168 509.4125 59.979168Q510.02188 59.979168 510.49063 59.713543Q510.975 59.447918 511.19376 58.979168Q511.36563 58.619793 511.36563 57.932293L511.36563 57.541668ZM514.39685 53.291668L514.39685 52.072918L515.45935 52.072918L515.45935 53.291668L514.39685 53.291668ZM514.39685 60.666668L514.39685 54.447918L515.45935 54.447918L515.45935 60.666668L514.39685 60.666668ZM517.3812 60.666668L517.3812 54.447918L518.33435 54.447918L518.33435 55.385418Q518.6937 54.729168 518.9906 54.526043Q519.3031 54.307293 519.6781 54.307293Q520.20935 54.307293 520.7562 54.635418L520.39685 55.619793Q520.0062 55.385418 519.6312 55.385418Q519.27185 55.385418 518.9906 55.604168Q518.725 55.807293 518.6156 56.182293Q518.4281 56.744793 518.4281 57.401043L518.4281 60.666668L517.3812 60.666668ZM520.975 58.807293L522.0062 58.651043Q522.1 59.276043 522.4906 59.604168Q522.89685 59.932293 523.6312 59.932293Q524.35 59.932293 524.6937 59.651043Q525.0531 59.354168 525.0531 58.947918Q525.0531 58.588543 524.7406 58.385418Q524.52185 58.244793 523.6625 58.026043Q522.5062 57.729168 522.0531 57.526043Q521.6156 57.307293 521.3812 56.932293Q521.14685 56.557293 521.14685 56.088543Q521.14685 55.682293 521.33435 55.322918Q521.52185 54.963543 521.85 54.729168Q522.1 54.557293 522.52185 54.432293Q522.9437 54.307293 523.4437 54.307293Q524.1625 54.307293 524.70935 54.526043Q525.27185 54.729168 525.5375 55.088543Q525.8031 55.447918 525.89685 56.041668L524.8656 56.182293Q524.8031 55.713543 524.45935 55.447918Q524.1312 55.166668 523.5062 55.166668Q522.7875 55.166668 522.475 55.416668Q522.1625 55.651043 522.1625 55.979168Q522.1625 56.182293 522.2875 56.338543Q522.4281 56.510418 522.6937 56.619793Q522.85 56.682293 523.6312 56.885418Q524.7562 57.197918 525.1937 57.385418Q525.6312 57.572918 525.8812 57.932293Q526.1312 58.291668 526.1312 58.838543Q526.1312 59.369793 525.8187 59.838543Q525.52185 60.291668 524.9437 60.557293Q524.3656 60.807293 523.6312 60.807293Q522.4125 60.807293 521.77185 60.307293Q521.14685 59.791668 520.975 58.807293ZM532.64685 58.666668L533.7406 58.791668Q533.4906 59.744793 532.7875 60.276043Q532.08435 60.807293 531.0062 60.807293Q529.64685 60.807293 528.83435 59.963543Q528.0375 59.119793 528.0375 57.604168Q528.0375 56.041668 528.85 55.182293Q529.6625 54.307293 530.9437 54.307293Q532.1937 54.307293 532.975 55.151043Q533.77185 55.994793 533.77185 57.541668Q533.77185 57.635418 533.77185 57.822918L529.1312 57.822918Q529.1937 58.854168 529.70935 59.401043Q530.225 59.932293 531.0062 59.932293Q531.58435 59.932293 531.9906 59.635418Q532.4125 59.322918 532.64685 58.666668ZM529.1937 56.963543L532.6625 56.963543Q532.6 56.166668 532.27185 55.776043Q531.7562 55.166668 530.95935 55.166668Q530.225 55.166668 529.725 55.651043Q529.2406 56.135418 529.1937 56.963543ZM539.3656 63.057293L539.3656 60.010418Q539.1156 60.354168 538.6625 60.588543Q538.225 60.807293 537.725 60.807293Q536.6156 60.807293 535.8187 59.932293Q535.02185 59.041668 535.02185 57.494793Q535.02185 56.557293 535.35 55.822918Q535.6781 55.072918 536.2875 54.697918Q536.9125 54.307293 537.64685 54.307293Q538.8031 54.307293 539.45935 55.276043L539.45935 54.447918L540.4125 54.447918L540.4125 63.057293L539.3656 63.057293ZM536.1 57.541668Q536.1 58.744793 536.6 59.338543Q537.1156 59.932293 537.8187 59.932293Q538.4906 59.932293 538.975 59.369793Q539.45935 58.791668 539.45935 57.635418Q539.45935 56.385418 538.9437 55.760418Q538.4437 55.135418 537.7406 55.135418Q537.0687 55.135418 536.58435 55.729168Q536.1 56.307293 536.1 57.541668Z" fill-rule="nonzero"/><path fill="#ea4335" d="M479.6 75.666664C479.6 75.11438 480.04773 74.666664 480.6 74.666664L490.6 74.666664C491.15228 74.666664 491.6 75.11438 491.6 75.666664L491.6 85.666664C491.6 86.21895 491.15228 86.666664 490.6 86.666664L480.6 86.666664C480.04773 86.666664 479.6 86.21895 479.6 85.666664Z" fill-rule="nonzero"/><path fill="#1a1a1a" d="M500.49063 84.666664L500.49063 76.072914L502.20938 76.072914L504.24063 82.15104Q504.52188 83.010414 504.64688 83.43229Q504.7875 82.96354 505.1 82.05729L507.1625 76.072914L508.69376 76.072914L508.69376 84.666664L507.6 84.666664L507.6 77.479164L505.1 84.666664L504.06876 84.666664L501.58438 77.354164L501.58438 84.666664L500.49063 84.666664ZM513.45935 83.90104Q512.8656 84.40104 512.3187 84.604164Q511.7875 84.80729 511.1625 84.80729Q510.13126 84.80729 509.58438 84.30729Q509.0375 83.80729 509.0375 83.02604Q509.0375 82.572914 509.24063 82.197914Q509.44376 81.80729 509.7875 81.58854Q510.13126 81.354164 510.55313 81.24479Q510.85 81.15104 511.49063 81.072914Q512.7562 80.93229 513.3656 80.71354Q513.3656 80.49479 513.3656 80.447914Q513.3656 79.791664 513.0687 79.52604Q512.6625 79.18229 511.86563 79.18229Q511.13126 79.18229 510.77188 79.447914Q510.4125 79.697914 510.24063 80.354164L509.20938 80.21354Q509.35 79.55729 509.67813 79.15104Q510.00626 78.74479 510.61563 78.52604Q511.225 78.30729 512.02185 78.30729Q512.8187 78.30729 513.3187 78.49479Q513.8187 78.68229 514.0531 78.96354Q514.2875 79.24479 514.3812 79.68229Q514.4281 79.947914 514.4281 80.65104L514.4281 82.05729Q514.4281 83.52604 514.4906 83.916664Q514.5687 84.30729 514.77185 84.666664L513.6625 84.666664Q513.5062 84.33854 513.45935 83.90104ZM513.3656 81.541664Q512.7875 81.77604 511.64688 81.947914Q510.99063 82.041664 510.725 82.166664Q510.45938 82.27604 510.30313 82.49479Q510.1625 82.71354 510.1625 82.99479Q510.1625 83.416664 510.475 83.697914Q510.80313 83.979164 511.4125 83.979164Q512.02185 83.979164 512.4906 83.71354Q512.975 83.447914 513.1937 82.979164Q513.3656 82.61979 513.3656 81.93229L513.3656 81.541664ZM516.3812 84.666664L516.3812 78.447914L517.33435 78.447914L517.33435 79.385414Q517.6937 78.729164 517.9906 78.52604Q518.3031 78.30729 518.6781 78.30729Q519.20935 78.30729 519.7562 78.635414L519.39685 79.61979Q519.0062 79.385414 518.6312 79.385414Q518.27185 79.385414 517.9906 79.604164Q517.725 79.80729 517.6156 80.18229Q517.4281 80.74479 517.4281 81.40104L517.4281 84.666664L516.3812 84.666664ZM520.39685 77.291664L520.39685 76.072914L521.45935 76.072914L521.45935 77.291664L520.39685 77.291664ZM520.39685 84.666664L520.39685 78.447914L521.45935 78.447914L521.45935 84.666664L520.39685 84.666664ZM527.45935 83.90104Q526.8656 84.40104 526.3187 84.604164Q525.7875 84.80729 525.1625 84.80729Q524.1312 84.80729 523.58435 84.30729Q523.0375 83.80729 523.0375 83.02604Q523.0375 82.572914 523.2406 82.197914Q523.4437 81.80729 523.7875 81.58854Q524.1312 81.354164 524.5531 81.24479Q524.85 81.15104 525.4906 81.072914Q526.7562 80.93229 527.3656 80.71354Q527.3656 80.49479 527.3656 80.447914Q527.3656 79.791664 527.0687 79.52604Q526.6625 79.18229 525.8656 79.18229Q525.1312 79.18229 524.77185 79.447914Q524.4125 79.697914 524.2406 80.354164L523.20935 80.21354Q523.35 79.55729 523.6781 79.15104Q524.0062 78.74479 524.6156 78.52604Q525.225 78.30729 526.02185 78.30729Q526.8187 78.30729 527.3187 78.49479Q527.8187 78.68229 528.0531 78.96354Q528.2875 79.24479 528.3812 79.68229Q528.4281 79.947914 528.4281 80.65104L528.4281 82.05729Q528.4281 83.52604 528.4906 83.916664Q528.5687 84.30729 528.77185 84.666664L527.6625 84.666664Q527.5062 84.33854 527.45935 83.90104ZM527.3656 81.541664Q526.7875 81.77604 525.64685 81.947914Q524.9906 82.041664 524.725 82.166664Q524.45935 82.27604 524.3031 82.49479Q524.1625 82.71354 524.1625 82.99479Q524.1625 83.416664 524.475 83.697914Q524.8031 83.979164 525.4125 83.979164Q526.02185 83.979164 526.4906 83.71354Q526.975 83.447914 527.1937 82.979164Q527.3656 82.61979 527.3656 81.93229L527.3656 81.541664ZM530.39685 84.666664L530.39685 78.447914L531.33435 78.447914L531.33435 79.322914Q532.02185 78.30729 533.3187 78.30729Q533.8812 78.30729 534.35 78.510414Q534.83435 78.71354 535.0687 79.041664Q535.3031 79.36979 535.39685 79.80729Q535.4437 80.104164 535.4437 80.83854L535.4437 84.666664L534.39685 84.666664L534.39685 80.885414Q534.39685 80.229164 534.27185 79.916664Q534.14685 79.604164 533.83435 79.416664Q533.52185 79.21354 533.1 79.21354Q532.4281 79.21354 531.9281 79.65104Q531.4437 80.072914 531.4437 81.260414L531.4437 84.666664L530.39685 84.666664Z" fill-rule="nonzero"/><path fill="#fbbc04" d="M479.6 99.666664C479.6 99.11438 480.04773 98.666664 480.6 98.666664L490.6 98.666664C491.15228 98.666664 491.6 99.11438 491.6 99.666664L491.6 109.666664C491.6 110.21895 491.15228 110.666664 490.6 110.666664L480.6 110.666664C480.04773 110.666664 479.6 110.21895 479.6 109.666664Z" fill-rule="nonzero"/><path fill="#1a1a1a" d="M502.70938 108.666664L502.70938 101.08854L499.88126 101.08854L499.88126 100.072914L506.69376 100.072914L506.69376 101.08854L503.85 101.08854L503.85 108.666664L502.70938 108.666664ZM511.64688 106.666664L512.7406 106.791664Q512.4906 107.74479 511.7875 108.27604Q511.08438 108.80729 510.00626 108.80729Q508.64688 108.80729 507.83438 107.96354Q507.0375 107.11979 507.0375 105.604164Q507.0375 104.041664 507.85 103.18229Q508.6625 102.30729 509.94376 102.30729Q511.19376 102.30729 511.975 103.15104Q512.77185 103.99479 512.77185 105.541664Q512.77185 105.635414 512.77185 105.822914L508.13126 105.822914Q508.19376 106.854164 508.70938 107.40104Q509.225 107.93229 510.00626 107.93229Q510.58438 107.93229 510.99063 107.635414Q511.4125 107.322914 511.64688 106.666664ZM508.19376 104.96354L511.6625 104.96354Q511.6 104.166664 511.27188 103.77604Q510.75626 103.166664 509.95938 103.166664Q509.225 103.166664 508.725 103.65104Q508.24063 104.135414 508.19376 104.96354ZM514.39685 108.666664L514.39685 102.447914L515.33435 102.447914L515.33435 103.322914Q516.02185 102.30729 517.3187 102.30729Q517.8812 102.30729 518.35 102.510414Q518.83435 102.71354 519.0687 103.041664Q519.3031 103.36979 519.39685 103.80729Q519.4437 104.104164 519.4437 104.83854L519.4437 108.666664L518.39685 108.666664L518.39685 104.885414Q518.39685 104.229164 518.27185 103.916664Q518.14685 103.604164 517.83435 103.416664Q517.52185 103.21354 517.1 103.21354Q516.4281 103.21354 515.9281 103.65104Q515.4437 104.072914 515.4437 105.260414L515.4437 108.666664L514.39685 108.666664ZM520.975 106.80729L522.0062 106.65104Q522.1 107.27604 522.4906 107.604164Q522.89685 107.93229 523.6312 107.93229Q524.35 107.93229 524.6937 107.65104Q525.0531 107.354164 525.0531 106.947914Q525.0531 106.58854 524.7406 106.385414Q524.52185 106.24479 523.6625 106.02604Q522.5062 105.729164 522.0531 105.52604Q521.6156 105.30729 521.3812 104.93229Q521.14685 104.55729 521.14685 104.08854Q521.14685 103.68229 521.33435 103.322914Q521.52185 102.96354 521.85 102.729164Q522.1 102.55729 522.52185 102.43229Q522.9437 102.30729 523.4437 102.30729Q524.1625 102.30729 524.70935 102.52604Q525.27185 102.729164 525.5375 103.08854Q525.8031 103.447914 525.89685 104.041664L524.8656 104.18229Q524.8031 103.71354 524.45935 103.447914Q524.1312 103.166664 523.5062 103.166664Q522.7875 103.166664 522.475 103.416664Q522.1625 103.65104 522.1625 103.979164Q522.1625 104.18229 522.2875 104.33854Q522.4281 104.510414 522.6937 104.61979Q522.85 104.68229 523.6312 104.885414Q524.7562 105.197914 525.1937 105.385414Q525.6312 105.572914 525.8812 105.93229Q526.1312 106.291664 526.1312 106.83854Q526.1312 107.36979 525.8187 107.83854Q525.52185 108.291664 524.9437 108.55729Q524.3656 108.80729 523.6312 108.80729Q522.4125 108.80729 521.77185 108.30729Q521.14685 107.791664 520.975 106.80729ZM528.0062 105.55729Q528.0062 103.822914 528.95935 102.99479Q529.7562 102.30729 530.9125 102.30729Q532.1937 102.30729 533.0062 103.15104Q533.83435 103.979164 533.83435 105.46354Q533.83435 106.666664 533.475 107.354164Q533.1156 108.041664 532.4125 108.43229Q531.725 108.80729 530.9125 108.80729Q529.6156 108.80729 528.8031 107.979164Q528.0062 107.135414 528.0062 105.55729ZM529.08435 105.55729Q529.08435 106.74479 529.6 107.33854Q530.1312 107.93229 530.9125 107.93229Q531.70935 107.93229 532.225 107.33854Q532.7406 106.74479 532.7406 105.52604Q532.7406 104.36979 532.20935 103.77604Q531.6937 103.18229 530.9125 103.18229Q530.1312 103.18229 529.6 103.77604Q529.08435 104.354164 529.08435 105.55729ZM535.3812 108.666664L535.3812 102.447914L536.33435 102.447914L536.33435 103.385414Q536.6937 102.729164 536.9906 102.52604Q537.3031 102.30729 537.6781 102.30729Q538.20935 102.30729 538.7562 102.635414L538.39685 103.61979Q538.0062 103.385414 537.6312 103.385414Q537.27185 103.385414 536.9906 103.604164Q536.725 103.80729 536.6156 104.18229Q536.4281 104.74479 536.4281 105.40104L536.4281 108.666664L535.3812 108.666664ZM544.64685 107.65104L544.64685 108.666664L538.95935 108.666664Q538.95935 108.291664 539.08435 107.93229Q539.3031 107.354164 539.77185 106.791664Q540.2562 106.229164 541.1625 105.49479Q542.5687 104.33854 543.0531 103.666664Q543.5531 102.99479 543.5531 102.40104Q543.5531 101.77604 543.1 101.354164Q542.64685 100.916664 541.9281 100.916664Q541.1625 100.916664 540.70935 101.36979Q540.2562 101.822914 540.2406 102.635414L539.1625 102.52604Q539.27185 101.30729 539.9906 100.68229Q540.725 100.041664 541.95935 100.041664Q543.1937 100.041664 543.9125 100.729164Q544.6312 101.416664 544.6312 102.43229Q544.6312 102.947914 544.4125 103.447914Q544.20935 103.93229 543.70935 104.49479Q543.225 105.041664 542.1 105.99479Q541.14685 106.791664 540.8656 107.08854Q540.6 107.36979 540.4281 107.65104L544.64685 107.65104ZM548.70935 108.666664L548.70935 101.08854L545.8812 101.08854L545.8812 100.072914L552.6937 100.072914L552.6937 101.08854L549.85 101.08854L549.85 108.666664L548.70935 108.666664ZM557.64685 106.666664L558.7406 106.791664Q558.4906 107.74479 557.7875 108.27604Q557.08435 108.80729 556.0062 108.80729Q554.64685 108.80729 553.83435 107.96354Q553.0375 107.11979 553.0375 105.604164Q553.0375 104.041664 553.85 103.18229Q554.6625 102.30729 555.9437 102.30729Q557.1937 102.30729 557.975 103.15104Q558.77185 103.99479 558.77185 105.541664Q558.77185 105.635414 558.77185 105.822914L554.1312 105.822914Q554.1937 106.854164 554.70935 107.40104Q555.225 107.93229 556.0062 107.93229Q556.58435 107.93229 556.9906 107.635414Q557.4125 107.322914 557.64685 106.666664ZM554.1937 104.96354L557.6625 104.96354Q557.6 104.166664 557.27185 103.77604Q556.7562 103.166664 555.95935 103.166664Q555.225 103.166664 554.725 103.65104Q554.2406 104.135414 554.1937 104.96354ZM560.39685 108.666664L560.39685 102.447914L561.33435 102.447914L561.33435 103.322914Q562.02185 102.30729 563.3187 102.30729Q563.8812 102.30729 564.35 102.510414Q564.83435 102.71354 565.0687 103.041664Q565.3031 103.36979 565.39685 103.80729Q565.4437 104.104164 565.4437 104.83854L565.4437 108.666664L564.39685 108.666664L564.39685 104.885414Q564.39685 104.229164 564.27185 103.916664Q564.14685 103.604164 563.83435 103.416664Q563.52185 103.21354 563.1 103.21354Q562.4281 103.21354 561.9281 103.65104Q561.4437 104.072914 561.4437 105.260414L561.4437 108.666664L560.39685 108.666664ZM566.975 106.80729L568.0062 106.65104Q568.1 107.27604 568.4906 107.604164Q568.89685 107.93229 569.6312 107.93229Q570.35 107.93229 570.6937 107.65104Q571.0531 107.354164 571.0531 106.947914Q571.0531 106.58854 570.7406 106.385414Q570.52185 106.24479 569.6625 106.02604Q568.5062 105.729164 568.0531 105.52604Q567.6156 105.30729 567.3812 104.93229Q567.14685 104.55729 567.14685 104.08854Q567.14685 103.68229 567.33435 103.322914Q567.52185 102.96354 567.85 102.729164Q568.1 102.55729 568.52185 102.43229Q568.9437 102.30729 569.4437 102.30729Q570.1625 102.30729 570.70935 102.52604Q571.27185 102.729164 571.5375 103.08854Q571.8031 103.447914 571.89685 104.041664L570.8656 104.18229Q570.8031 103.71354 570.45935 103.447914Q570.1312 103.166664 569.5062 103.166664Q568.7875 103.166664 568.475 103.416664Q568.1625 103.65104 568.1625 103.979164Q568.1625 104.18229 568.2875 104.33854Q568.4281 104.510414 568.6937 104.61979Q568.85 104.68229 569.6312 104.885414Q570.7562 105.197914 571.1937 105.385414Q571.6312 105.572914 571.8812 105.93229Q572.1312 106.291664 572.1312 106.83854Q572.1312 107.36979 571.8187 107.83854Q571.52185 108.291664 570.9437 108.55729Q570.3656 108.80729 569.6312 108.80729Q568.4125 108.80729 567.77185 108.30729Q567.14685 107.791664 566.975 106.80729ZM574.0062 105.55729Q574.0062 103.822914 574.95935 102.99479Q575.7562 102.30729 576.9125 102.30729Q578.1937 102.30729 579.0062 103.15104Q579.83435 103.979164 579.83435 105.46354Q579.83435 106.666664 579.475 107.354164Q579.1156 108.041664 578.4125 108.43229Q577.725 108.80729 576.9125 108.80729Q575.6156 108.80729 574.8031 107.979164Q574.0062 107.135414 574.0062 105.55729ZM575.08435 105.55729Q575.08435 106.74479 575.6 107.33854Q576.1312 107.93229 576.9125 107.93229Q577.70935 107.93229 578.225 107.33854Q578.7406 106.74479 578.7406 105.52604Q578.7406 104.36979 578.20935 103.77604Q577.6937 103.18229 576.9125 103.18229Q576.1312 103.18229 575.6 103.77604Q575.08435 104.354164 575.08435 105.55729ZM581.3812 108.666664L581.3812 102.447914L582.33435 102.447914L582.33435 103.385414Q582.6937 102.729164 582.9906 102.52604Q583.3031 102.30729 583.6781 102.30729Q584.20935 102.30729 584.7562 102.635414L584.39685 103.61979Q584.0062 103.385414 583.6312 103.385414Q583.27185 103.385414 582.9906 103.604164Q582.725 103.80729 582.6156 104.18229Q582.4281 104.74479 582.4281 105.40104L582.4281 108.666664L581.3812 108.666664Z" fill-rule="nonzero"/><path fill="#34a853" d="M479.6 123.666664C479.6 123.11438 480.04773 122.666664 480.6 122.666664L490.6 122.666664C491.15228 122.666664 491.6 123.11438 491.6 123.666664L491.6 133.66667C491.6 134.21895 491.15228 134.66667 490.6 134.66667L480.6 134.66667C480.04773 134.66667 479.6 134.21895 479.6 133.66667Z" fill-rule="nonzero"/><path fill="#1a1a1a" d="M500.17813 128.47917Q500.17813 126.33855 501.31876 125.13542Q502.475 123.91667 504.2875 123.91667Q505.49063 123.91667 506.44376 124.4948Q507.39688 125.0573 507.89688 126.07292Q508.39688 127.08855 508.39688 128.38542Q508.39688 129.6823 507.86563 130.71355Q507.33438 131.7448 506.36563 132.27605Q505.4125 132.8073 504.2875 132.8073Q503.06876 132.8073 502.11563 132.22917Q501.1625 131.63542 500.6625 130.63542Q500.17813 129.6198 500.17813 128.47917ZM501.35 128.4948Q501.35 130.0573 502.17813 130.94792Q503.02188 131.83855 504.2875 131.83855Q505.56876 131.83855 506.39688 130.94792Q507.225 130.04167 507.225 128.3698Q507.225 127.32292 506.86563 126.54167Q506.52188 125.76042 505.83438 125.33855Q505.14688 124.90105 504.30313 124.90105Q503.1 124.90105 502.225 125.72917Q501.35 126.5573 501.35 128.4948ZM509.39688 135.0573L509.39688 126.44792L510.35 126.44792L510.35 127.2448Q510.69376 126.77605 511.11563 126.54167Q511.55313 126.3073 512.1625 126.3073Q512.95935 126.3073 513.5687 126.71355Q514.1781 127.1198 514.475 127.8698Q514.7875 128.6198 514.7875 129.51042Q514.7875 130.46355 514.4437 131.22917Q514.1156 131.9948 513.45935 132.40105Q512.8031 132.8073 512.08435 132.8073Q511.55313 132.8073 511.13126 132.58855Q510.70938 132.35417 510.44376 132.02605L510.44376 135.0573L509.39688 135.0573ZM510.35 129.58855Q510.35 130.79167 510.83438 131.3698Q511.31876 131.9323 512.0062 131.9323Q512.70935 131.9323 513.20935 131.33855Q513.70935 130.7448 513.70935 129.4948Q513.70935 128.3073 513.225 127.72917Q512.7406 127.13542 512.0531 127.13542Q511.38126 127.13542 510.86563 127.76042Q510.35 128.38542 510.35 129.58855ZM520.64685 130.66667L521.7406 130.79167Q521.4906 131.7448 520.7875 132.27605Q520.08435 132.8073 519.0062 132.8073Q517.64685 132.8073 516.83435 131.96355Q516.0375 131.1198 516.0375 129.60417Q516.0375 128.04167 516.85 127.1823Q517.6625 126.3073 518.9437 126.3073Q520.1937 126.3073 520.975 127.15105Q521.77185 127.9948 521.77185 129.54167Q521.77185 129.63542 521.77185 129.82292L517.1312 129.82292Q517.1937 130.85417 517.70935 131.40105Q518.225 131.9323 519.0062 131.9323Q519.58435 131.9323 519.9906 131.63542Q520.4125 131.32292 520.64685 130.66667ZM517.1937 128.96355L520.6625 128.96355Q520.6 128.16667 520.27185 127.77605Q519.7562 127.16667 518.95935 127.16667Q518.225 127.16667 517.725 127.65105Q517.2406 128.13542 517.1937 128.96355ZM523.39685 132.66667L523.39685 126.44792L524.33435 126.44792L524.33435 127.32292Q525.02185 126.3073 526.3187 126.3073Q526.8812 126.3073 527.35 126.51042Q527.83435 126.71355 528.0687 127.04167Q528.3031 127.3698 528.39685 127.8073Q528.4437 128.10417 528.4437 128.83855L528.4437 132.66667L527.39685 132.66667L527.39685 128.88542Q527.39685 128.22917 527.27185 127.91667Q527.14685 127.60417 526.83435 127.41667Q526.52185 127.21355 526.1 127.21355Q525.4281 127.21355 524.9281 127.65105Q524.4437 128.07292 524.4437 129.26042L524.4437 132.66667L523.39685 132.66667ZM530.52185 132.66667L530.52185 124.07292L531.6781 124.07292L536.1937 130.82292L536.1937 124.07292L537.2875 124.07292L537.2875 132.66667L536.1156 132.66667L531.6 125.91667L531.6 132.66667L530.52185 132.66667ZM539.4906 132.66667L539.4906 124.07292L541.20935 124.07292L543.2406 130.15105Q543.52185 131.01042 543.64685 131.4323Q543.7875 130.96355 544.1 130.0573L546.1625 124.07292L547.6937 124.07292L547.6937 132.66667L546.6 132.66667L546.6 125.47917L544.1 132.66667L543.0687 132.66667L540.58435 125.35417L540.58435 132.66667L539.4906 132.66667ZM550.70935 132.66667L550.70935 125.08855L547.8812 125.08855L547.8812 124.07292L554.6937 124.07292L554.6937 125.08855L551.85 125.08855L551.85 132.66667L550.70935 132.66667Z" fill-rule="nonzero"/><path fill="#ff6d01" d="M479.6 147.66667C479.6 147.11438 480.04773 146.66667 480.6 146.66667L490.6 146.66667C491.15228 146.66667 491.6 147.11438 491.6 147.66667L491.6 157.66667C491.6 158.21895 491.15228 158.66667 490.6 158.66667L480.6 158.66667C480.04773 158.66667 479.6 158.21895 479.6 157.66667Z" fill-rule="nonzero"/><path fill="#1a1a1a" d="M500.14688 153.90105L501.20938 153.8073Q501.2875 154.46355 501.56876 154.8698Q501.85 155.27605 502.42813 155.54167Q503.02188 155.79167 503.75626 155.79167Q504.39688 155.79167 504.89688 155.60417Q505.39688 155.40105 505.63126 155.07292Q505.88126 154.72917 505.88126 154.33855Q505.88126 153.9323 505.64688 153.63542Q505.4125 153.32292 504.88126 153.1198Q504.52188 152.97917 503.33438 152.69792Q502.1625 152.41667 501.69376 152.16667Q501.06876 151.83855 500.77188 151.3698Q500.475 150.88542 500.475 150.29167Q500.475 149.65105 500.83438 149.08855Q501.20938 148.51042 501.9125 148.22917Q502.63126 147.9323 503.49063 147.9323Q504.44376 147.9323 505.17813 148.2448Q505.9125 148.54167 506.30313 149.15105Q506.69376 149.7448 506.725 150.4948L505.63126 150.57292Q505.5375 149.76042 505.02188 149.35417Q504.52188 148.9323 503.5375 148.9323Q502.50626 148.9323 502.0375 149.3073Q501.56876 149.6823 501.56876 150.21355Q501.56876 150.6823 501.89688 150.97917Q502.225 151.27605 503.6 151.58855Q504.99063 151.90105 505.50626 152.13542Q506.25626 152.4948 506.61563 153.02605Q506.975 153.54167 506.975 154.2448Q506.975 154.9323 506.58438 155.54167Q506.19376 156.13542 505.45938 156.47917Q504.725 156.8073 503.80313 156.8073Q502.63126 156.8073 501.83438 156.47917Q501.05313 156.13542 500.6 155.44792Q500.1625 154.76042 500.14688 153.90105ZM508.00626 153.5573Q508.00626 151.82292 508.95938 150.9948Q509.75626 150.3073 510.9125 150.3073Q512.1937 150.3073 513.0062 151.15105Q513.83435 151.97917 513.83435 153.46355Q513.83435 154.66667 513.475 155.35417Q513.1156 156.04167 512.4125 156.4323Q511.725 156.8073 510.9125 156.8073Q509.61563 156.8073 508.80313 155.97917Q508.00626 155.13542 508.00626 153.5573ZM509.08438 153.5573Q509.08438 154.7448 509.6 155.33855Q510.13126 155.9323 510.9125 155.9323Q511.70938 155.9323 512.225 155.33855Q512.7406 154.7448 512.7406 153.52605Q512.7406 152.3698 512.20935 151.77605Q511.69376 151.1823 510.9125 151.1823Q510.13126 151.1823 509.6 151.77605Q509.08438 152.35417 509.08438 153.5573ZM519.45935 154.38542L520.4906 154.52605Q520.3187 155.58855 519.6156 156.19792Q518.9125 156.8073 517.89685 156.8073Q516.6156 156.8073 515.83435 155.97917Q515.0687 155.13542 515.0687 153.57292Q515.0687 152.57292 515.39685 151.82292Q515.7406 151.0573 516.4125 150.6823Q517.1 150.3073 517.9125 150.3073Q518.9125 150.3073 519.5531 150.82292Q520.20935 151.32292 520.39685 152.27605L519.3656 152.4323Q519.225 151.8073 518.85 151.4948Q518.475 151.16667 517.9437 151.16667Q517.14685 151.16667 516.64685 151.7448Q516.14685 152.3073 516.14685 153.54167Q516.14685 154.8073 516.6312 155.3698Q517.1156 155.9323 517.8812 155.9323Q518.5062 155.9323 518.9125 155.5573Q519.33435 155.1823 519.45935 154.38542ZM521.39685 156.66667L521.39685 148.07292L522.45935 148.07292L522.45935 152.97917L524.9437 150.44792L526.3187 150.44792L523.9281 152.7448L526.5531 156.66667L525.2562 156.66667L523.1937 153.47917L522.45935 154.19792L522.45935 156.66667L521.39685 156.66667ZM531.64685 154.66667L532.7406 154.79167Q532.4906 155.7448 531.7875 156.27605Q531.08435 156.8073 530.0062 156.8073Q528.64685 156.8073 527.83435 155.96355Q527.0375 155.1198 527.0375 153.60417Q527.0375 152.04167 527.85 151.1823Q528.6625 150.3073 529.9437 150.3073Q531.1937 150.3073 531.975 151.15105Q532.77185 151.9948 532.77185 153.54167Q532.77185 153.63542 532.77185 153.82292L528.1312 153.82292Q528.1937 154.85417 528.70935 155.40105Q529.225 155.9323 530.0062 155.9323Q530.58435 155.9323 530.9906 155.63542Q531.4125 155.32292 531.64685 154.66667ZM528.1937 152.96355L531.6625 152.96355Q531.6 152.16667 531.27185 151.77605Q530.7562 151.16667 529.95935 151.16667Q529.225 151.16667 528.725 151.65105Q528.2406 152.13542 528.1937 152.96355ZM534.35 159.0573L534.225 158.07292Q534.5687 158.16667 534.83435 158.16667Q535.1781 158.16667 535.3812 158.04167Q535.6 157.9323 535.7406 157.72917Q535.83435 157.5573 536.0687 156.9323Q536.08435 156.85417 536.1625 156.6823L533.7875 150.44792L534.9281 150.44792L536.225 154.04167Q536.475 154.72917 536.6781 155.4948Q536.8656 154.76042 537.1156 154.07292L538.4437 150.44792L539.4906 150.44792L537.1312 156.77605Q536.7406 157.79167 536.5375 158.1823Q536.2562 158.71355 535.8812 158.94792Q535.52185 159.19792 535.02185 159.19792Q534.725 159.19792 534.35 159.0573ZM543.64685 154.66667L544.7406 154.79167Q544.4906 155.7448 543.7875 156.27605Q543.08435 156.8073 542.0062 156.8073Q540.64685 156.8073 539.83435 155.96355Q539.0375 155.1198 539.0375 153.60417Q539.0375 152.04167 539.85 151.1823Q540.6625 150.3073 541.9437 150.3073Q543.1937 150.3073 543.975 151.15105Q544.77185 151.9948 544.77185 153.54167Q544.77185 153.63542 544.77185 153.82292L540.1312 153.82292Q540.1937 154.85417 540.70935 155.40105Q541.225 155.9323 542.0062 155.9323Q542.58435 155.9323 542.9906 155.63542Q543.4125 155.32292 543.64685 154.66667ZM540.1937 152.96355L543.6625 152.96355Q543.6 152.16667 543.27185 151.77605Q542.7562 151.16667 541.95935 151.16667Q541.225 151.16667 540.725 151.65105Q540.2406 152.13542 540.1937 152.96355Z" fill-rule="nonzero"/><path fill="#46bdc6" d="M479.6 171.66667C479.6 171.11438 480.04773 170.66667 480.6 170.66667L490.6 170.66667C491.15228 170.66667 491.6 171.11438 491.6 171.66667L491.6 181.66667C491.6 182.21895 491.15228 182.66667 490.6 182.66667L480.6 182.66667C480.04773 182.66667 479.6 182.21895 479.6 181.66667Z" fill-rule="nonzero"/><path fill="#1a1a1a" d="M500.49063 180.66667L500.49063 172.07292L502.20938 172.07292L504.24063 178.15105Q504.52188 179.01042 504.64688 179.4323Q504.7875 178.96355 505.1 178.0573L507.1625 172.07292L508.69376 172.07292L508.69376 180.66667L507.6 180.66667L507.6 173.47917L505.1 180.66667L504.06876 180.66667L501.58438 173.35417L501.58438 180.66667L500.49063 180.66667ZM509.00626 177.5573Q509.00626 175.82292 509.95938 174.9948Q510.75626 174.3073 511.9125 174.3073Q513.1937 174.3073 514.0062 175.15105Q514.83435 175.97917 514.83435 177.46355Q514.83435 178.66667 514.475 179.35417Q514.1156 180.04167 513.4125 180.4323Q512.725 180.8073 511.9125 180.8073Q510.61563 180.8073 509.80313 179.97917Q509.00626 179.13542 509.00626 177.5573ZM510.08438 177.5573Q510.08438 178.7448 510.6 179.33855Q511.13126 179.9323 511.9125 179.9323Q512.70935 179.9323 513.225 179.33855Q513.7406 178.7448 513.7406 177.52605Q513.7406 176.3698 513.20935 175.77605Q512.6937 175.1823 511.9125 175.1823Q511.13126 175.1823 510.6 175.77605Q510.08438 176.35417 510.08438 177.5573ZM515.975 178.8073L517.0062 178.65105Q517.1 179.27605 517.4906 179.60417Q517.89685 179.9323 518.6312 179.9323Q519.35 179.9323 519.6937 179.65105Q520.0531 179.35417 520.0531 178.94792Q520.0531 178.58855 519.7406 178.38542Q519.52185 178.2448 518.6625 178.02605Q517.5062 177.72917 517.0531 177.52605Q516.6156 177.3073 516.3812 176.9323Q516.14685 176.5573 516.14685 176.08855Q516.14685 175.6823 516.33435 175.32292Q516.52185 174.96355 516.85 174.72917Q517.1 174.5573 517.52185 174.4323Q517.9437 174.3073 518.4437 174.3073Q519.1625 174.3073 519.70935 174.52605Q520.27185 174.72917 520.5375 175.08855Q520.8031 175.44792 520.89685 176.04167L519.8656 176.1823Q519.8031 175.71355 519.45935 175.44792Q519.1312 175.16667 518.5062 175.16667Q517.7875 175.16667 517.475 175.41667Q517.1625 175.65105 517.1625 175.97917Q517.1625 176.1823 517.2875 176.33855Q517.4281 176.51042 517.6937 176.6198Q517.85 176.6823 518.6312 176.88542Q519.7562 177.19792 520.1937 177.38542Q520.6312 177.57292 520.8812 177.9323Q521.1312 178.29167 521.1312 178.83855Q521.1312 179.3698 520.8187 179.83855Q520.52185 180.29167 519.9437 180.5573Q519.3656 180.8073 518.6312 180.8073Q517.4125 180.8073 516.77185 180.3073Q516.14685 179.79167 515.975 178.8073ZM527.64685 178.66667L528.7406 178.79167Q528.4906 179.7448 527.7875 180.27605Q527.08435 180.8073 526.0062 180.8073Q524.64685 180.8073 523.83435 179.96355Q523.0375 179.1198 523.0375 177.60417Q523.0375 176.04167 523.85 175.1823Q524.6625 174.3073 525.9437 174.3073Q527.1937 174.3073 527.975 175.15105Q528.77185 175.9948 528.77185 177.54167Q528.77185 177.63542 528.77185 177.82292L524.1312 177.82292Q524.1937 178.85417 524.70935 179.40105Q525.225 179.9323 526.0062 179.9323Q526.58435 179.9323 526.9906 179.63542Q527.4125 179.32292 527.64685 178.66667ZM524.1937 176.96355L527.6625 176.96355Q527.6 176.16667 527.27185 175.77605Q526.7562 175.16667 525.95935 175.16667Q525.225 175.16667 524.725 175.65105Q524.2406 176.13542 524.1937 176.96355ZM529.975 178.8073L531.0062 178.65105Q531.1 179.27605 531.4906 179.60417Q531.89685 179.9323 532.6312 179.9323Q533.35 179.9323 533.6937 179.65105Q534.0531 179.35417 534.0531 178.94792Q534.0531 178.58855 533.7406 178.38542Q533.52185 178.2448 532.6625 178.02605Q531.5062 177.72917 531.0531 177.52605Q530.6156 177.3073 530.3812 176.9323Q530.14685 176.5573 530.14685 176.08855Q530.14685 175.6823 530.33435 175.32292Q530.52185 174.96355 530.85 174.72917Q531.1 174.5573 531.52185 174.4323Q531.9437 174.3073 532.4437 174.3073Q533.1625 174.3073 533.70935 174.52605Q534.27185 174.72917 534.5375 175.08855Q534.8031 175.44792 534.89685 176.04167L533.8656 176.1823Q533.8031 175.71355 533.45935 175.44792Q533.1312 175.16667 532.5062 175.16667Q531.7875 175.16667 531.475 175.41667Q531.1625 175.65105 531.1625 175.97917Q531.1625 176.1823 531.2875 176.33855Q531.4281 176.51042 531.6937 176.6198Q531.85 176.6823 532.6312 176.88542Q533.7562 177.19792 534.1937 177.38542Q534.6312 177.57292 534.8812 177.9323Q535.1312 178.29167 535.1312 178.83855Q535.1312 179.3698 534.8187 179.83855Q534.52185 180.29167 533.9437 180.5573Q533.3656 180.8073 532.6312 180.8073Q531.4125 180.8073 530.77185 180.3073Q530.14685 179.79167 529.975 178.8073Z" fill-rule="nonzero"/><path fill="#7baaf7" d="M479.6 195.66667C479.6 195.11438 480.04773 194.66667 480.6 194.66667L490.6 194.66667C491.15228 194.66667 491.6 195.11438 491.6 195.66667L491.6 205.66667C491.6 206.21895 491.15228 206.66667 490.6 206.66667L480.6 206.66667C480.04773 206.66667 479.6 206.21895 479.6 205.66667Z" fill-rule="nonzero"/><path fill="#1a1a1a" d="M499.64688 204.66667L502.975 200.1823L500.05313 196.07292L501.39688 196.07292L502.95938 198.27605Q503.44376 198.96355 503.64688 199.33855Q503.94376 198.8698 504.33438 198.35417L506.05313 196.07292L507.2875 196.07292L504.27188 200.1198L507.52188 204.66667L506.11563 204.66667L503.95938 201.60417Q503.77188 201.33855 503.58438 201.02605Q503.30313 201.4948 503.17813 201.66667L501.02188 204.66667L499.64688 204.66667ZM507.475 204.66667L507.475 196.07292L508.61563 196.07292L508.61563 203.65105L512.85 203.65105L512.85 204.66667L507.475 204.66667ZM514.4906 204.66667L514.4906 196.07292L516.20935 196.07292L518.2406 202.15105Q518.52185 203.01042 518.64685 203.4323Q518.7875 202.96355 519.1 202.0573L521.1625 196.07292L522.6937 196.07292L522.6937 204.66667L521.6 204.66667L521.6 197.47917L519.1 204.66667L518.0687 204.66667L515.58435 197.35417L515.58435 204.66667L514.4906 204.66667Z" fill-rule="nonzero"/><path fill="#f07b72" d="M479.6 219.66667C479.6 219.11438 480.04773 218.66667 480.6 218.66667L490.6 218.66667C491.15228 218.66667 491.6 219.11438 491.6 219.66667L491.6 229.66667C491.6 230.21895 491.15228 230.66667 490.6 230.66667L480.6 230.66667C480.04773 230.66667 479.6 230.21895 479.6 229.66667Z" fill-rule="nonzero"/><path fill="#1a1a1a" d="M500.52188 228.66667L500.52188 220.07292L501.67813 220.07292L506.19376 226.82292L506.19376 220.07292L507.2875 220.07292L507.2875 228.66667L506.11563 228.66667L501.6 221.91667L501.6 228.66667L500.52188 228.66667ZM513.64685 226.66667L514.7406 226.79167Q514.4906 227.7448 513.7875 228.27605Q513.08435 228.8073 512.0062 228.8073Q510.64688 228.8073 509.83438 227.96355Q509.0375 227.1198 509.0375 225.60417Q509.0375 224.04167 509.85 223.1823Q510.6625 222.3073 511.94376 222.3073Q513.1937 222.3073 513.975 223.15105Q514.77185 223.9948 514.77185 225.54167Q514.77185 225.63542 514.77185 225.82292L510.13126 225.82292Q510.19376 226.85417 510.70938 227.40105Q511.225 227.9323 512.0062 227.9323Q512.58435 227.9323 512.9906 227.63542Q513.4125 227.32292 513.64685 226.66667ZM510.19376 224.96355L513.6625 224.96355Q513.6 224.16667 513.27185 223.77605Q512.7562 223.16667 511.95938 223.16667Q511.225 223.16667 510.725 223.65105Q510.24063 224.13542 510.19376 224.96355ZM516.39685 228.66667L516.39685 222.44792L517.33435 222.44792L517.33435 223.32292Q517.6312 222.85417 518.1156 222.58855Q518.6 222.3073 519.225 222.3073Q519.9125 222.3073 520.35 222.58855Q520.8031 222.8698 520.975 223.38542Q521.725 222.3073 522.89685 222.3073Q523.83435 222.3073 524.3187 222.82292Q524.8187 223.32292 524.8187 224.40105L524.8187 228.66667L523.77185 228.66667L523.77185 224.7448Q523.77185 224.1198 523.6625 223.83855Q523.5687 223.5573 523.3031 223.38542Q523.0375 223.21355 522.6625 223.21355Q522.0062 223.21355 521.5687 223.65105Q521.14685 224.08855 521.14685 225.0573L521.14685 228.66667L520.08435 228.66667L520.08435 224.6198Q520.08435 223.91667 519.8187 223.57292Q519.5687 223.21355 518.9906 223.21355Q518.5375 223.21355 518.1625 223.44792Q517.7875 223.6823 517.6156 224.13542Q517.4437 224.58855 517.4437 225.4323L517.4437 228.66667L516.39685 228.66667ZM531.45935 227.90105Q530.8656 228.40105 530.3187 228.60417Q529.7875 228.8073 529.1625 228.8073Q528.1312 228.8073 527.58435 228.3073Q527.0375 227.8073 527.0375 227.02605Q527.0375 226.57292 527.2406 226.19792Q527.4437 225.8073 527.7875 225.58855Q528.1312 225.35417 528.5531 225.2448Q528.85 225.15105 529.4906 225.07292Q530.7562 224.9323 531.3656 224.71355Q531.3656 224.4948 531.3656 224.44792Q531.3656 223.79167 531.0687 223.52605Q530.6625 223.1823 529.8656 223.1823Q529.1312 223.1823 528.77185 223.44792Q528.4125 223.69792 528.2406 224.35417L527.20935 224.21355Q527.35 223.5573 527.6781 223.15105Q528.0062 222.7448 528.6156 222.52605Q529.225 222.3073 530.02185 222.3073Q530.8187 222.3073 531.3187 222.4948Q531.8187 222.6823 532.0531 222.96355Q532.2875 223.2448 532.3812 223.6823Q532.4281 223.94792 532.4281 224.65105L532.4281 226.0573Q532.4281 227.52605 532.4906 227.91667Q532.5687 228.3073 532.77185 228.66667L531.6625 228.66667Q531.5062 228.33855 531.45935 227.90105ZM531.3656 225.54167Q530.7875 225.77605 529.64685 225.94792Q528.9906 226.04167 528.725 226.16667Q528.45935 226.27605 528.3031 226.4948Q528.1625 226.71355 528.1625 226.9948Q528.1625 227.41667 528.475 227.69792Q528.8031 227.97917 529.4125 227.97917Q530.02185 227.97917 530.4906 227.71355Q530.975 227.44792 531.1937 226.97917Q531.3656 226.6198 531.3656 225.9323L531.3656 225.54167ZM536.6937 227.72917L536.85 228.65105Q536.39685 228.7448 536.0531 228.7448Q535.475 228.7448 535.1625 228.57292Q534.85 228.38542 534.70935 228.08855Q534.58435 227.79167 534.58435 226.83855L534.58435 223.26042L533.8187 223.26042L533.8187 222.44792L534.58435 222.44792L534.58435 220.90105L535.6312 220.27605L535.6312 222.44792L536.6937 222.44792L536.6937 223.26042L535.6312 223.26042L535.6312 226.90105Q535.6312 227.35417 535.6781 227.47917Q535.7406 227.60417 535.8656 227.6823Q535.9906 227.76042 536.225 227.76042Q536.4125 227.76042 536.6937 227.72917ZM541.475 228.66667L541.475 227.7448Q540.7406 228.8073 539.4906 228.8073Q538.9437 228.8073 538.45935 228.60417Q537.9906 228.38542 537.7562 228.07292Q537.52185 227.7448 537.4281 227.27605Q537.3656 226.97917 537.3656 226.29167L537.3656 222.44792L538.4281 222.44792L538.4281 225.90105Q538.4281 226.71355 538.4906 227.01042Q538.58435 227.41667 538.89685 227.66667Q539.225 227.90105 539.70935 227.90105Q540.1781 227.90105 540.58435 227.66667Q541.0062 227.41667 541.1781 226.9948Q541.3656 226.57292 541.3656 225.77605L541.3656 222.44792L542.4125 222.44792L542.4125 228.66667L541.475 228.66667ZM543.975 226.8073L545.0062 226.65105Q545.1 227.27605 545.4906 227.60417Q545.89685 227.9323 546.6312 227.9323Q547.35 227.9323 547.6937 227.65105Q548.0531 227.35417 548.0531 226.94792Q548.0531 226.58855 547.7406 226.38542Q547.52185 226.2448 546.6625 226.02605Q545.5062 225.72917 545.0531 225.52605Q544.6156 225.3073 544.3812 224.9323Q544.14685 224.5573 544.14685 224.08855Q544.14685 223.6823 544.33435 223.32292Q544.52185 222.96355 544.85 222.72917Q545.1 222.5573 545.52185 222.4323Q545.9437 222.3073 546.4437 222.3073Q547.1625 222.3073 547.70935 222.52605Q548.27185 222.72917 548.5375 223.08855Q548.8031 223.44792 548.89685 224.04167L547.8656 224.1823Q547.8031 223.71355 547.45935 223.44792Q547.1312 223.16667 546.5062 223.16667Q545.7875 223.16667 545.475 223.41667Q545.1625 223.65105 545.1625 223.97917Q545.1625 224.1823 545.2875 224.33855Q545.4281 224.51042 545.6937 224.6198Q545.85 224.6823 546.6312 224.88542Q547.7562 225.19792 548.1937 225.38542Q548.6312 225.57292 548.8812 225.9323Q549.1312 226.29167 549.1312 226.83855Q549.1312 227.3698 548.8187 227.83855Q548.52185 228.29167 547.9437 228.5573Q547.3656 228.8073 546.6312 228.8073Q545.4125 228.8073 544.77185 228.3073Q544.14685 227.79167 543.975 226.8073Z" fill-rule="nonzero"/><path fill="#fcd04f" d="M479.6 243.66667C479.6 243.11438 480.04773 242.66667 480.6 242.66667L490.6 242.66667C491.15228 242.66667 491.6 243.11438 491.6 243.66667L491.6 253.66667C491.6 254.21895 491.15228 254.66667 490.6 254.66667L480.6 254.66667C480.04773 254.66667 479.6 254.21895 479.6 253.66667Z" fill-rule="nonzero"/><path fill="#1a1a1a" d="M506.6625 249.65105L507.7875 249.94792Q507.42813 251.33855 506.50626 252.07292Q505.58438 252.8073 504.24063 252.8073Q502.85 252.8073 501.975 252.2448Q501.1 251.6823 500.64688 250.6198Q500.19376 249.54167 500.19376 248.3073Q500.19376 246.96355 500.70938 245.96355Q501.225 244.96355 502.1625 244.44792Q503.11563 243.9323 504.25626 243.9323Q505.5375 243.9323 506.4125 244.58855Q507.30313 245.2448 507.64688 246.4323L506.52188 246.69792Q506.225 245.76042 505.64688 245.33855Q505.08438 244.90105 504.225 244.90105Q503.24063 244.90105 502.56876 245.38542Q501.9125 245.85417 501.63126 246.65105Q501.36563 247.44792 501.36563 248.3073Q501.36563 249.40105 501.67813 250.21355Q502.00626 251.02605 502.67813 251.4323Q503.35 251.83855 504.14688 251.83855Q505.1 251.83855 505.75626 251.29167Q506.42813 250.7448 506.6625 249.65105ZM513.475 252.66667L513.475 251.7448Q512.7406 252.8073 511.49063 252.8073Q510.94376 252.8073 510.45938 252.60417Q509.99063 252.38542 509.75626 252.07292Q509.52188 251.7448 509.42813 251.27605Q509.36563 250.97917 509.36563 250.29167L509.36563 246.44792L510.42813 246.44792L510.42813 249.90105Q510.42813 250.71355 510.49063 251.01042Q510.58438 251.41667 510.89688 251.66667Q511.225 251.90105 511.70938 251.90105Q512.1781 251.90105 512.58435 251.66667Q513.0062 251.41667 513.1781 250.9948Q513.3656 250.57292 513.3656 249.77605L513.3656 246.44792L514.4125 246.44792L514.4125 252.66667L513.475 252.66667ZM515.975 250.8073L517.0062 250.65105Q517.1 251.27605 517.4906 251.60417Q517.89685 251.9323 518.6312 251.9323Q519.35 251.9323 519.6937 251.65105Q520.0531 251.35417 520.0531 250.94792Q520.0531 250.58855 519.7406 250.38542Q519.52185 250.2448 518.6625 250.02605Q517.5062 249.72917 517.0531 249.52605Q516.6156 249.3073 516.3812 248.9323Q516.14685 248.5573 516.14685 248.08855Q516.14685 247.6823 516.33435 247.32292Q516.52185 246.96355 516.85 246.72917Q517.1 246.5573 517.52185 246.4323Q517.9437 246.3073 518.4437 246.3073Q519.1625 246.3073 519.70935 246.52605Q520.27185 246.72917 520.5375 247.08855Q520.8031 247.44792 520.89685 248.04167L519.8656 248.1823Q519.8031 247.71355 519.45935 247.44792Q519.1312 247.16667 518.5062 247.16667Q517.7875 247.16667 517.475 247.41667Q517.1625 247.65105 517.1625 247.97917Q517.1625 248.1823 517.2875 248.33855Q517.4281 248.51042 517.6937 248.6198Q517.85 248.6823 518.6312 248.88542Q519.7562 249.19792 520.1937 249.38542Q520.6312 249.57292 520.8812 249.9323Q521.1312 250.29167 521.1312 250.83855Q521.1312 251.3698 520.8187 251.83855Q520.52185 252.29167 519.9437 252.5573Q519.3656 252.8073 518.6312 252.8073Q517.4125 252.8073 516.77185 252.3073Q516.14685 251.79167 515.975 250.8073ZM525.6937 251.72917L525.85 252.65105Q525.39685 252.7448 525.0531 252.7448Q524.475 252.7448 524.1625 252.57292Q523.85 252.38542 523.70935 252.08855Q523.58435 251.79167 523.58435 250.83855L523.58435 247.26042L522.8187 247.26042L522.8187 246.44792L523.58435 246.44792L523.58435 244.90105L524.6312 244.27605L524.6312 246.44792L525.6937 246.44792L525.6937 247.26042L524.6312 247.26042L524.6312 250.90105Q524.6312 251.35417 524.6781 251.47917Q524.7406 251.60417 524.8656 251.6823Q524.9906 251.76042 525.225 251.76042Q525.4125 251.76042 525.6937 251.72917ZM526.0062 249.5573Q526.0062 247.82292 526.95935 246.9948Q527.7562 246.3073 528.9125 246.3073Q530.1937 246.3073 531.0062 247.15105Q531.83435 247.97917 531.83435 249.46355Q531.83435 250.66667 531.475 251.35417Q531.1156 252.04167 530.4125 252.4323Q529.725 252.8073 528.9125 252.8073Q527.6156 252.8073 526.8031 251.97917Q526.0062 251.13542 526.0062 249.5573ZM527.08435 249.5573Q527.08435 250.7448 527.6 251.33855Q528.1312 251.9323 528.9125 251.9323Q529.70935 251.9323 530.225 251.33855Q530.7406 250.7448 530.7406 249.52605Q530.7406 248.3698 530.20935 247.77605Q529.6937 247.1823 528.9125 247.1823Q528.1312 247.1823 527.6 247.77605Q527.08435 248.35417 527.08435 249.5573ZM533.39685 252.66667L533.39685 246.44792L534.33435 246.44792L534.33435 247.32292Q534.6312 246.85417 535.1156 246.58855Q535.6 246.3073 536.225 246.3073Q536.9125 246.3073 537.35 246.58855Q537.8031 246.8698 537.975 247.38542Q538.725 246.3073 539.89685 246.3073Q540.83435 246.3073 541.3187 246.82292Q541.8187 247.32292 541.8187 248.40105L541.8187 252.66667L540.77185 252.66667L540.77185 248.7448Q540.77185 248.1198 540.6625 247.83855Q540.5687 247.5573 540.3031 247.38542Q540.0375 247.21355 539.6625 247.21355Q539.0062 247.21355 538.5687 247.65105Q538.14685 248.08855 538.14685 249.0573L538.14685 252.66667L537.08435 252.66667L537.08435 248.6198Q537.08435 247.91667 536.8187 247.57292Q536.5687 247.21355 535.9906 247.21355Q535.5375 247.21355 535.1625 247.44792Q534.7875 247.6823 534.6156 248.13542Q534.4437 248.58855 534.4437 249.4323L534.4437 252.66667L533.39685 252.66667Z" fill-rule="nonzero"/><path fill="#757575" d="M20.5875 34.4L20.5875 21.775002L15.86875 21.775002L15.86875 20.087502L27.2125 20.087502L27.2125 21.775002L22.478125 21.775002L22.478125 34.4L20.5875 34.4ZM28.071875 29.212502Q28.071875 26.337502 29.665625 24.946877Q31.009375 23.790627 32.93125 23.790627Q35.071877 23.790627 36.415627 25.196877Q37.775 26.603127 37.775 29.071877Q37.775 31.071877 37.18125 32.228127Q36.5875 33.36875 35.43125 34.009377Q34.290627 34.634377 32.93125 34.634377Q30.74375 34.634377 29.4 33.24375Q28.071875 31.837502 28.071875 29.212502ZM29.86875 29.212502Q29.86875 31.212502 30.728125 32.196877Q31.603125 33.18125 32.93125 33.18125Q34.24375 33.18125 35.103127 32.196877Q35.978127 31.196877 35.978127 29.150002Q35.978127 27.228127 35.103127 26.243752Q34.228127 25.243752 32.93125 25.243752Q31.603125 25.243752 30.728125 26.243752Q29.86875 27.228127 29.86875 29.212502ZM39.071877 29.212502Q39.071877 26.337502 40.665627 24.946877Q42.009377 23.790627 43.93125 23.790627Q46.071877 23.790627 47.415627 25.196877Q48.775 26.603127 48.775 29.071877Q48.775 31.071877 48.18125 32.228127Q47.5875 33.36875 46.43125 34.009377Q45.290627 34.634377 43.93125 34.634377Q41.74375 34.634377 40.4 33.24375Q39.071877 31.837502 39.071877 29.212502ZM40.86875 29.212502Q40.86875 31.212502 41.728127 32.196877Q42.603127 33.18125 43.93125 33.18125Q45.24375 33.18125 46.103127 32.196877Q46.978127 31.196877 46.978127 29.150002Q46.978127 27.228127 46.103127 26.243752Q45.228127 25.243752 43.93125 25.243752Q42.603127 25.243752 41.728127 26.243752Q40.86875 27.228127 40.86875 29.212502ZM50.68125 34.4L50.68125 20.087502L52.43125 20.087502L52.43125 34.4L50.68125 34.4ZM54.728127 34.4L54.728127 20.087502L56.49375 20.087502L56.49375 28.243752L60.65 24.025002L62.915627 24.025002L58.9625 27.868752L63.321877 34.4L61.15 34.4L57.728127 29.103127L56.49375 30.290627L56.49375 34.4L54.728127 34.4ZM64.72813 22.103127L64.72813 20.087502L66.49375 20.087502L66.49375 22.103127L64.72813 22.103127ZM64.72813 34.4L64.72813 24.025002L66.49375 24.025002L66.49375 34.4L64.72813 34.4ZM72.55625 32.821877L72.80625 34.384377Q72.07188 34.540627 71.47813 34.540627Q70.525 34.540627 69.99375 34.24375Q69.47813 33.93125 69.25938 33.446877Q69.04063 32.946877 69.04063 31.368752L69.04063 25.400002L67.75938 25.400002L67.75938 24.025002L69.04063 24.025002L69.04063 21.462502L70.79063 20.400002L70.79063 24.025002L72.55625 24.025002L72.55625 25.400002L70.79063 25.400002L70.79063 31.462502Q70.79063 32.2125 70.88438 32.43125Q70.97813 32.634377 71.18125 32.775Q71.4 32.9 71.79063 32.9Q72.07188 32.9 72.55625 32.821877ZM74.00938 31.306252L75.75938 31.025002Q75.9 32.071877 76.57188 32.634377Q77.24375 33.18125 78.44688 33.18125Q79.65 33.18125 80.22813 32.696877Q80.82188 32.196877 80.82188 31.540627Q80.82188 30.946877 80.30625 30.603127Q79.94688 30.368752 78.50938 30.009377Q76.57188 29.509377 75.82188 29.165627Q75.0875 28.806252 74.69688 28.181252Q74.30625 27.540627 74.30625 26.775002Q74.30625 26.087502 74.61875 25.493752Q74.94688 24.900002 75.49375 24.509377Q75.9 24.212502 76.60313 24.009377Q77.32188 23.790627 78.13438 23.790627Q79.35313 23.790627 80.275 24.150002Q81.19688 24.493752 81.63438 25.103127Q82.07188 25.696877 82.24375 26.696877L80.525 26.931252Q80.4 26.134377 79.8375 25.696877Q79.275 25.243752 78.25938 25.243752Q77.04063 25.243752 76.525 25.650002Q76.00938 26.040627 76.00938 26.571877Q76.00938 26.915627 76.22813 27.196877Q76.43125 27.478127 76.9 27.665627Q77.16563 27.759377 78.44688 28.103127Q80.32188 28.603127 81.05625 28.931252Q81.79063 29.243752 82.2125 29.853127Q82.63438 30.446877 82.63438 31.353127Q82.63438 32.228127 82.11875 33.009377Q81.60313 33.790627 80.63438 34.2125Q79.66563 34.634377 78.44688 34.634377Q76.43125 34.634377 75.36875 33.790627Q74.30625 32.946877 74.00938 31.306252Z" fill-rule="nonzero"/></svg>