<svg version="1.1" viewBox="0.0 0.0 600.0 295.0" fill="none" stroke="none" stroke-linecap="square" stroke-miterlimit="10" width="600" height="295" xmlns:xlink="http://www.w3.org/1999/xlink" xmlns="http://www.w3.org/2000/svg"><path fill="#ffffff" d="M0 0L600.0 0L600.0 295.0L0 295.0L0 0Z" fill-rule="nonzero"/><path stroke="#333333" stroke-width="1.0" stroke-linecap="butt" d="M73.5 260.5L585.5 260.5" fill-rule="nonzero"/><path stroke="#cccccc" stroke-width="1.0" stroke-linecap="butt" d="M73.5 209.5L585.5 209.5" fill-rule="nonzero"/><path stroke="#cccccc" stroke-width="1.0" stroke-linecap="butt" d="M73.5 157.5L585.5 157.5" fill-rule="nonzero"/><path stroke="#cccccc" stroke-width="1.0" stroke-linecap="butt" d="M73.5 106.5L585.5 106.5" fill-rule="nonzero"/><path stroke="#cccccc" stroke-width="1.0" stroke-linecap="butt" d="M73.5 55.5L585.5 55.5" fill-rule="nonzero"/><clipPath id="id_0"><path d="M73.75 55.583332L585.25 55.583332L585.25 260.25L73.75 260.25L73.75 55.583332Z" clip-rule="nonzero"/></clipPath><path stroke="#4285f4" stroke-width="2.0" stroke-linecap="butt" clip-path="url(#id_0)" d="M176.81343 64.28167L176.81343 132.33333" fill-rule="nonzero"/><path stroke="#4285f4" stroke-width="2.0" stroke-linecap="butt" clip-path="url(#id_0)" d="M127.1903 132.33333L226.43657 132.33333" fill-rule="nonzero"/><path stroke="#4285f4" stroke-width="2.0" stroke-linecap="butt" clip-path="url(#id_0)" d="M127.1903 178.38333L127.1903 132.33333" fill-rule="nonzero"/><path stroke="#4285f4" stroke-width="2.0" stroke-linecap="butt" clip-path="url(#id_0)" d="M226.43657 132.33333L226.43657 178.38333" fill-rule="nonzero"/><path stroke="#4285f4" stroke-width="2.0" stroke-linecap="butt" clip-path="url(#id_0)" d="M226.43657 178.38333L127.1903 178.38333" fill-rule="nonzero"/><path stroke="#4285f4" stroke-width="2.0" stroke-linecap="butt" clip-path="url(#id_0)" d="M329.5 96.51667L329.5 132.33333" fill-rule="nonzero"/><path stroke="#4285f4" stroke-width="2.0" stroke-linecap="butt" clip-path="url(#id_0)" d="M329.5 183.5L329.5 178.38333" fill-rule="nonzero"/><path stroke="#4285f4" stroke-width="2.0" stroke-linecap="butt" clip-path="url(#id_0)" d="M279.87686 132.33333L379.12314 132.33333" fill-rule="nonzero"/><path stroke="#4285f4" stroke-width="2.0" stroke-linecap="butt" clip-path="url(#id_0)" d="M279.87686 178.38333L279.87686 132.33333" fill-rule="nonzero"/><path stroke="#4285f4" stroke-width="2.0" stroke-linecap="butt" clip-path="url(#id_0)" d="M379.12314 132.33333L379.12314 178.38333" fill-rule="nonzero"/><path stroke="#4285f4" stroke-width="2.0" stroke-linecap="butt" clip-path="url(#id_0)" d="M379.12314 178.38333L279.87686 178.38333" fill-rule="nonzero"/><path stroke="#4285f4" stroke-width="2.0" stroke-linecap="butt" clip-path="url(#id_0)" d="M482.18655 158.94L482.18655 178.38333" fill-rule="nonzero"/><path stroke="#4285f4" stroke-width="2.0" stroke-linecap="butt" clip-path="url(#id_0)" d="M482.18655 238.76L482.18655 192.45416" fill-rule="nonzero"/><path stroke="#4285f4" stroke-width="2.0" stroke-linecap="butt" clip-path="url(#id_0)" d="M432.56345 178.38333L531.8097 178.38333" fill-rule="nonzero"/><path stroke="#4285f4" stroke-width="2.0" stroke-linecap="butt" clip-path="url(#id_0)" d="M432.56345 192.45416L432.56345 178.38333" fill-rule="nonzero"/><path stroke="#4285f4" stroke-width="2.0" stroke-linecap="butt" clip-path="url(#id_0)" d="M531.8097 178.38333L531.8097 192.45416" fill-rule="nonzero"/><path stroke="#4285f4" stroke-width="2.0" stroke-linecap="butt" clip-path="url(#id_0)" d="M531.8097 192.45416L432.56345 192.45416" fill-rule="nonzero"/><path fill="#000000" d="M25.75 219.30728L18.171875 219.30728L18.171875 222.1354L17.15625 222.1354L17.15625 215.3229L18.171875 215.3229L18.171875 218.16666L25.75 218.16666L25.75 219.30728ZM25.75 214.61978L17.15625 214.61978L17.15625 213.5729L20.234375 213.5729Q19.390625 212.83853 19.390625 211.71353Q19.390625 211.0104 19.671875 210.5104Q19.9375 209.99478 20.421875 209.77603Q20.890625 209.55728 21.8125 209.55728L25.75 209.55728L25.75 210.60416L21.8125 210.60416Q21.015625 210.60416 20.65625 210.9479Q20.296875 211.29166 20.296875 211.91666Q20.296875 212.3854 20.546875 212.80728Q20.78125 213.21353 21.203125 213.40103Q21.609375 213.5729 22.34375 213.5729L25.75 213.5729L25.75 214.61978ZM22.640625 208.0104Q20.90625 208.0104 20.078125 207.05728Q19.390625 206.2604 19.390625 205.10416Q19.390625 203.8229 20.234375 203.0104Q21.0625 202.18228 22.546875 202.18228Q23.75 202.18228 24.4375 202.54166Q25.125 202.90103 25.515625 203.60416Q25.890625 204.29166 25.890625 205.10416Q25.890625 206.40103 25.0625 207.21353Q24.21875 208.0104 22.640625 208.0104ZM22.640625 206.93228Q23.828125 206.93228 24.421875 206.41666Q25.015625 205.8854 25.015625 205.10416Q25.015625 204.30728 24.421875 203.79166Q23.828125 203.27603 22.609375 203.27603Q21.453125 203.27603 20.859375 203.80728Q20.265625 204.3229 20.265625 205.10416Q20.265625 205.8854 20.859375 206.41666Q21.4375 206.93228 22.640625 206.93228ZM25.75 196.54166L24.828125 196.54166Q25.890625 197.27603 25.890625 198.52603Q25.890625 199.0729 25.6875 199.55728Q25.46875 200.02603 25.15625 200.2604Q24.828125 200.49478 24.359375 200.58853Q24.0625 200.65103 23.375 200.65103L19.53125 200.65103L19.53125 199.58853L22.984375 199.58853Q23.796875 199.58853 24.09375 199.52603Q24.5 199.43228 24.75 199.11978Q24.984375 198.79166 24.984375 198.30728Q24.984375 197.83853 24.75 197.43228Q24.5 197.0104 24.078125 196.83853Q23.65625 196.65103 22.859375 196.65103L19.53125 196.65103L19.53125 195.60416L25.75 195.60416L25.75 196.54166ZM23.890625 194.04166L23.734375 193.0104Q24.359375 192.91666 24.6875 192.52603Q25.015625 192.11978 25.015625 191.3854Q25.015625 190.66666 24.734375 190.3229Q24.4375 189.96353 24.03125 189.96353Q23.671875 189.96353 23.46875 190.27603Q23.328125 190.49478 23.109375 191.35416Q22.8125 192.5104 22.609375 192.96353Q22.390625 193.40103 22.015625 193.6354Q21.640625 193.86978 21.171875 193.86978Q20.765625 193.86978 20.40625 193.68228Q20.046875 193.49478 19.8125 193.16666Q19.640625 192.91666 19.515625 192.49478Q19.390625 192.0729 19.390625 191.5729Q19.390625 190.85416 19.609375 190.30728Q19.8125 189.74478 20.171875 189.47916Q20.53125 189.21353 21.125 189.11978L21.265625 190.15103Q20.796875 190.21353 20.53125 190.55728Q20.25 190.8854 20.25 191.5104Q20.25 192.22916 20.5 192.54166Q20.734375 192.85416 21.0625 192.85416Q21.265625 192.85416 21.421875 192.72916Q21.59375 192.58853 21.703125 192.3229Q21.765625 192.16666 21.96875 191.3854Q22.28125 190.2604 22.46875 189.8229Q22.65625 189.3854 23.015625 189.1354Q23.375 188.8854 23.921875 188.8854Q24.453125 188.8854 24.921875 189.1979Q25.375 189.49478 25.640625 190.0729Q25.890625 190.65103 25.890625 191.3854Q25.890625 192.60416 25.390625 193.24478Q24.875 193.86978 23.890625 194.04166ZM24.984375 182.55728Q25.484375 183.15103 25.6875 183.6979Q25.890625 184.22916 25.890625 184.85416Q25.890625 185.8854 25.390625 186.43228Q24.890625 186.97916 24.109375 186.97916Q23.65625 186.97916 23.28125 186.77603Q22.890625 186.5729 22.671875 186.22916Q22.4375 185.8854 22.328125 185.46353Q22.234375 185.16666 22.15625 184.52603Q22.015625 183.2604 21.796875 182.65103Q21.578125 182.65103 21.53125 182.65103Q20.875 182.65103 20.609375 182.9479Q20.265625 183.35416 20.265625 184.15103Q20.265625 184.8854 20.53125 185.24478Q20.78125 185.60416 21.4375 185.77603L21.296875 186.80728Q20.640625 186.66666 20.234375 186.33853Q19.828125 186.0104 19.609375 185.40103Q19.390625 184.79166 19.390625 183.99478Q19.390625 183.1979 19.578125 182.6979Q19.765625 182.1979 20.046875 181.96353Q20.328125 181.72916 20.765625 181.6354Q21.03125 181.58853 21.734375 181.58853L23.140625 181.58853Q24.609375 181.58853 25.0 181.52603Q25.390625 181.4479 25.75 181.24478L25.75 182.35416Q25.421875 182.5104 24.984375 182.55728ZM22.625 182.65103Q22.859375 183.22916 23.03125 184.36978Q23.125 185.02603 23.25 185.29166Q23.359375 185.55728 23.578125 185.71353Q23.796875 185.85416 24.078125 185.85416Q24.5 185.85416 24.78125 185.54166Q25.0625 185.21353 25.0625 184.60416Q25.0625 183.99478 24.796875 183.52603Q24.53125 183.04166 24.0625 182.8229Q23.703125 182.65103 23.015625 182.65103L22.625 182.65103ZM25.75 179.61978L19.53125 179.61978L19.53125 178.68228L20.40625 178.68228Q19.390625 177.99478 19.390625 176.6979Q19.390625 176.1354 19.59375 175.66666Q19.796875 175.18228 20.125 174.9479Q20.453125 174.71353 20.890625 174.61978Q21.1875 174.5729 21.921875 174.5729L25.75 174.5729L25.75 175.61978L21.96875 175.61978Q21.3125 175.61978 21.0 175.74478Q20.6875 175.86978 20.5 176.18228Q20.296875 176.49478 20.296875 176.91666Q20.296875 177.58853 20.734375 178.08853Q21.15625 178.5729 22.34375 178.5729L25.75 178.5729L25.75 179.61978ZM25.75 168.58853L24.96875 168.58853Q25.890625 169.18228 25.890625 170.3229Q25.890625 171.0729 25.484375 171.6979Q25.0625 172.3229 24.328125 172.66666Q23.59375 173.0104 22.640625 173.0104Q21.71875 173.0104 20.953125 172.6979Q20.1875 172.3854 19.796875 171.7604Q19.390625 171.1354 19.390625 170.36978Q19.390625 169.80728 19.625 169.36978Q19.859375 168.93228 20.234375 168.65103L17.15625 168.65103L17.15625 167.60416L25.75 167.60416L25.75 168.58853ZM22.640625 171.91666Q23.84375 171.91666 24.4375 171.41666Q25.015625 170.91666 25.015625 170.22916Q25.015625 169.54166 24.453125 169.05728Q23.890625 168.5729 22.734375 168.5729Q21.453125 168.5729 20.859375 169.0729Q20.265625 169.55728 20.265625 170.27603Q20.265625 170.97916 20.84375 171.4479Q21.40625 171.91666 22.640625 171.91666ZM23.890625 166.04166L23.734375 165.0104Q24.359375 164.91666 24.6875 164.52603Q25.015625 164.11978 25.015625 163.3854Q25.015625 162.66666 24.734375 162.3229Q24.4375 161.96353 24.03125 161.96353Q23.671875 161.96353 23.46875 162.27603Q23.328125 162.49478 23.109375 163.35416Q22.8125 164.5104 22.609375 164.96353Q22.390625 165.40103 22.015625 165.6354Q21.640625 165.86978 21.171875 165.86978Q20.765625 165.86978 20.40625 165.68228Q20.046875 165.49478 19.8125 165.16666Q19.640625 164.91666 19.515625 164.49478Q19.390625 164.0729 19.390625 163.5729Q19.390625 162.85416 19.609375 162.30728Q19.8125 161.74478 20.171875 161.47916Q20.53125 161.21353 21.125 161.11978L21.265625 162.15103Q20.796875 162.21353 20.53125 162.55728Q20.25 162.8854 20.25 163.5104Q20.25 164.22916 20.5 164.54166Q20.734375 164.85416 21.0625 164.85416Q21.265625 164.85416 21.421875 164.72916Q21.59375 164.58853 21.703125 164.3229Q21.765625 164.16666 21.96875 163.3854Q22.28125 162.2604 22.46875 161.8229Q22.65625 161.3854 23.015625 161.1354Q23.375 160.8854 23.921875 160.8854Q24.453125 160.8854 24.921875 161.1979Q25.375 161.49478 25.640625 162.0729Q25.890625 162.65103 25.890625 163.3854Q25.890625 164.60416 25.390625 165.24478Q24.875 165.86978 23.890625 166.04166ZM22.640625 156.0104Q20.90625 156.0104 20.078125 155.05728Q19.390625 154.2604 19.390625 153.10416Q19.390625 151.8229 20.234375 151.0104Q21.0625 150.18228 22.546875 150.18228Q23.75 150.18228 24.4375 150.54166Q25.125 150.90103 25.515625 151.60416Q25.890625 152.29166 25.890625 153.10416Q25.890625 154.40103 25.0625 155.21353Q24.21875 156.0104 22.640625 156.0104ZM22.640625 154.93228Q23.828125 154.93228 24.421875 154.41666Q25.015625 153.8854 25.015625 153.10416Q25.015625 152.30728 24.421875 151.79166Q23.828125 151.27603 22.609375 151.27603Q21.453125 151.27603 20.859375 151.80728Q20.265625 152.3229 20.265625 153.10416Q20.265625 153.8854 20.859375 154.41666Q21.4375 154.93228 22.640625 154.93228ZM25.75 148.36978L20.34375 148.36978L20.34375 149.30728L19.53125 149.30728L19.53125 148.36978L18.859375 148.36978Q18.234375 148.36978 17.9375 148.2604Q17.515625 148.10416 17.265625 147.72916Q17.015625 147.33853 17.015625 146.65103Q17.015625 146.1979 17.125 145.66666L18.03125 145.8229Q17.984375 146.15103 17.984375 146.4479Q17.984375 146.93228 18.1875 147.1354Q18.390625 147.3229 18.953125 147.3229L19.53125 147.3229L19.53125 146.10416L20.34375 146.10416L20.34375 147.3229L25.75 147.3229L25.75 148.36978ZM24.8125 140.3229L25.734375 140.16666Q25.828125 140.61978 25.828125 140.96353Q25.828125 141.54166 25.65625 141.85416Q25.46875 142.16666 25.171875 142.30728Q24.875 142.43228 23.921875 142.43228L20.34375 142.43228L20.34375 143.1979L19.53125 143.1979L19.53125 142.43228L17.984375 142.43228L17.359375 141.3854L19.53125 141.3854L19.53125 140.3229L20.34375 140.3229L20.34375 141.3854L23.984375 141.3854Q24.4375 141.3854 24.5625 141.33853Q24.6875 141.27603 24.765625 141.15103Q24.84375 141.02603 24.84375 140.79166Q24.84375 140.60416 24.8125 140.3229ZM22.640625 140.0104Q20.90625 140.0104 20.078125 139.05728Q19.390625 138.2604 19.390625 137.10416Q19.390625 135.8229 20.234375 135.0104Q21.0625 134.18228 22.546875 134.18228Q23.75 134.18228 24.4375 134.54166Q25.125 134.90103 25.515625 135.60416Q25.890625 136.29166 25.890625 137.10416Q25.890625 138.40103 25.0625 139.21353Q24.21875 140.0104 22.640625 140.0104ZM22.640625 138.93228Q23.828125 138.93228 24.421875 138.41666Q25.015625 137.8854 25.015625 137.10416Q25.015625 136.30728 24.421875 135.79166Q23.828125 135.27603 22.609375 135.27603Q21.453125 135.27603 20.859375 135.80728Q20.265625 136.3229 20.265625 137.10416Q20.265625 137.8854 20.859375 138.41666Q21.4375 138.93228 22.640625 138.93228ZM25.75 132.61978L17.15625 132.61978L17.15625 131.55728L22.0625 131.55728L19.53125 129.0729L19.53125 127.69791L21.828125 130.08853L25.75 127.46353L25.75 128.7604L22.5625 130.8229L23.28125 131.55728L25.75 131.55728L25.75 132.61978ZM23.75 122.36978L23.875 121.27603Q24.828125 121.52603 25.359375 122.22916Q25.890625 122.93228 25.890625 124.01041Q25.890625 125.36978 25.046875 126.18228Q24.203125 126.97916 22.6875 126.97916Q21.125 126.97916 20.265625 126.16666Q19.390625 125.35416 19.390625 124.07291Q19.390625 122.82291 20.234375 122.04166Q21.078125 121.24478 22.625 121.24478Q22.71875 121.24478 22.90625 121.24478L22.90625 125.88541Q23.9375 125.82291 24.484375 125.30728Q25.015625 124.79166 25.015625 124.01041Q25.015625 123.43228 24.71875 123.02603Q24.40625 122.60416 23.75 122.36978ZM22.046875 125.82291L22.046875 122.35416Q21.25 122.41666 20.859375 122.74478Q20.25 123.26041 20.25 124.05728Q20.25 124.79166 20.734375 125.29166Q21.21875 125.77603 22.046875 125.82291ZM25.75 119.61978L19.53125 119.61978L19.53125 118.68228L20.40625 118.68228Q19.390625 117.99478 19.390625 116.69791Q19.390625 116.13541 19.59375 115.66666Q19.796875 115.18228 20.125 114.94791Q20.453125 114.71353 20.890625 114.61978Q21.1875 114.57291 21.921875 114.57291L25.75 114.57291L25.75 115.61978L21.96875 115.61978Q21.3125 115.61978 21.0 115.74478Q20.6875 115.86978 20.5 116.18228Q20.296875 116.49478 20.296875 116.91666Q20.296875 117.58853 20.734375 118.08853Q21.15625 118.57291 22.34375 118.57291L25.75 118.57291L25.75 119.61978ZM23.890625 113.04166L23.734375 112.01041Q24.359375 111.91666 24.6875 111.52603Q25.015625 111.11978 25.015625 110.38541Q25.015625 109.66666 24.734375 109.32291Q24.4375 108.96353 24.03125 108.96353Q23.671875 108.96353 23.46875 109.27603Q23.328125 109.49478 23.109375 110.35416Q22.8125 111.51041 22.609375 111.96353Q22.390625 112.40103 22.015625 112.63541Q21.640625 112.86978 21.171875 112.86978Q20.765625 112.86978 20.40625 112.68228Q20.046875 112.49478 19.8125 112.16666Q19.640625 111.91666 19.515625 111.49478Q19.390625 111.07291 19.390625 110.57291Q19.390625 109.85416 19.609375 109.30728Q19.8125 108.74478 20.171875 108.47916Q20.53125 108.21353 21.125 108.11978L21.265625 109.15103Q20.796875 109.21353 20.53125 109.55728Q20.25 109.88541 20.25 110.51041Q20.25 111.22916 20.5 111.54166Q20.734375 111.85416 21.0625 111.85416Q21.265625 111.85416 21.421875 111.72916Q21.59375 111.58853 21.703125 111.32291Q21.765625 111.16666 21.96875 110.38541Q22.28125 109.26041 22.46875 108.82291Q22.65625 108.38541 23.015625 108.13541Q23.375 107.88541 23.921875 107.88541Q24.453125 107.88541 24.921875 108.19791Q25.375 108.49478 25.640625 109.07291Q25.890625 109.65103 25.890625 110.38541Q25.890625 111.60416 25.390625 112.24478Q24.875 112.86978 23.890625 113.04166Z" fill-rule="nonzero"/><path fill="#000000" d="M61.25 260.01562Q61.25 258.48438 61.5625 257.5625Q61.875 256.625 62.484375 256.125Q63.109375 255.625 64.046875 255.625Q64.734375 255.625 65.25 255.90625Q65.78125 256.1875 66.125 256.71875Q66.46875 257.23438 66.65625 257.98438Q66.84375 258.73438 66.84375 260.01562Q66.84375 261.53125 66.53125 262.45312Q66.234375 263.375 65.609375 263.89062Q65.0 264.39062 64.046875 264.39062Q62.8125 264.39062 62.09375 263.5Q61.25 262.4375 61.25 260.01562ZM62.328125 260.01562Q62.328125 262.125 62.828125 262.82812Q63.328125 263.53125 64.046875 263.53125Q64.78125 263.53125 65.265625 262.82812Q65.765625 262.125 65.765625 260.01562Q65.765625 257.89062 65.265625 257.20312Q64.78125 256.5 64.03125 256.5Q63.3125 256.5 62.875 257.10938Q62.328125 257.89062 62.328125 260.01562Z" fill-rule="nonzero"/><path fill="#000000" d="M59.796875 212.0677L59.796875 213.08333L54.109375 213.08333Q54.109375 212.70833 54.234375 212.34895Q54.453125 211.77083 54.921875 211.20833Q55.40625 210.64583 56.3125 209.91145Q57.71875 208.7552 58.203125 208.08333Q58.703125 207.41145 58.703125 206.8177Q58.703125 206.1927 58.25 205.77083Q57.796875 205.33333 57.078125 205.33333Q56.3125 205.33333 55.859375 205.78645Q55.40625 206.23958 55.390625 207.05208L54.3125 206.9427Q54.421875 205.72395 55.140625 205.09895Q55.875 204.45833 57.109375 204.45833Q58.34375 204.45833 59.0625 205.14583Q59.78125 205.83333 59.78125 206.84895Q59.78125 207.36458 59.5625 207.86458Q59.359375 208.34895 58.859375 208.91145Q58.375 209.45833 57.25 210.41145Q56.296875 211.20833 56.015625 211.5052Q55.75 211.78645 55.578125 212.0677L59.796875 212.0677ZM61.25 208.84895Q61.25 207.3177 61.5625 206.39583Q61.875 205.45833 62.484375 204.95833Q63.109375 204.45833 64.046875 204.45833Q64.734375 204.45833 65.25 204.73958Q65.78125 205.02083 66.125 205.55208Q66.46875 206.0677 66.65625 206.8177Q66.84375 207.5677 66.84375 208.84895Q66.84375 210.36458 66.53125 211.28645Q66.234375 212.20833 65.609375 212.72395Q65.0 213.22395 64.046875 213.22395Q62.8125 213.22395 62.09375 212.33333Q61.25 211.27083 61.25 208.84895ZM62.328125 208.84895Q62.328125 210.95833 62.828125 211.66145Q63.328125 212.36458 64.046875 212.36458Q64.78125 212.36458 65.265625 211.66145Q65.765625 210.95833 65.765625 208.84895Q65.765625 206.72395 65.265625 206.03645Q64.78125 205.33333 64.03125 205.33333Q63.3125 205.33333 62.875 205.9427Q62.328125 206.72395 62.328125 208.84895Z" fill-rule="nonzero"/><path fill="#000000" d="M57.625 161.91667L57.625 159.85417L53.90625 159.85417L53.90625 158.88542L57.828125 153.32292L58.6875 153.32292L58.6875 158.88542L59.84375 158.88542L59.84375 159.85417L58.6875 159.85417L58.6875 161.91667L57.625 161.91667ZM57.625 158.88542L57.625 155.02605L54.9375 158.88542L57.625 158.88542ZM61.25 157.6823Q61.25 156.15105 61.5625 155.22917Q61.875 154.29167 62.484375 153.79167Q63.109375 153.29167 64.046875 153.29167Q64.734375 153.29167 65.25 153.57292Q65.78125 153.85417 66.125 154.38542Q66.46875 154.90105 66.65625 155.65105Q66.84375 156.40105 66.84375 157.6823Q66.84375 159.19792 66.53125 160.1198Q66.234375 161.04167 65.609375 161.5573Q65.0 162.0573 64.046875 162.0573Q62.8125 162.0573 62.09375 161.16667Q61.25 160.10417 61.25 157.6823ZM62.328125 157.6823Q62.328125 159.79167 62.828125 160.4948Q63.328125 161.19792 64.046875 161.19792Q64.78125 161.19792 65.265625 160.4948Q65.765625 159.79167 65.765625 157.6823Q65.765625 155.5573 65.265625 154.8698Q64.78125 154.16667 64.03125 154.16667Q63.3125 154.16667 62.875 154.77605Q62.328125 155.5573 62.328125 157.6823Z" fill-rule="nonzero"/><path fill="#000000" d="M59.71875 104.265625L58.671875 104.34375Q58.53125 103.71875 58.28125 103.4375Q57.84375 102.984375 57.21875 102.984375Q56.71875 102.984375 56.328125 103.265625Q55.84375 103.640625 55.546875 104.34375Q55.265625 105.03125 55.25 106.3125Q55.625 105.734375 56.171875 105.453125Q56.734375 105.171875 57.34375 105.171875Q58.390625 105.171875 59.125 105.953125Q59.875 106.734375 59.875 107.953125Q59.875 108.765625 59.515625 109.46875Q59.171875 110.15625 58.5625 110.53125Q57.953125 110.890625 57.1875 110.890625Q55.859375 110.890625 55.03125 109.921875Q54.203125 108.953125 54.203125 106.734375Q54.203125 104.234375 55.125 103.109375Q55.921875 102.125 57.28125 102.125Q58.296875 102.125 58.9375 102.703125Q59.59375 103.265625 59.71875 104.265625ZM55.421875 107.96875Q55.421875 108.515625 55.640625 109.015625Q55.875 109.5 56.28125 109.765625Q56.703125 110.03125 57.171875 110.03125Q57.828125 110.03125 58.3125 109.5Q58.796875 108.953125 58.796875 108.03125Q58.796875 107.140625 58.3125 106.625Q57.84375 106.109375 57.125 106.109375Q56.40625 106.109375 55.90625 106.625Q55.421875 107.140625 55.421875 107.96875ZM61.25 106.515625Q61.25 104.984375 61.5625 104.0625Q61.875 103.125 62.484375 102.625Q63.109375 102.125 64.046875 102.125Q64.734375 102.125 65.25 102.40625Q65.78125 102.6875 66.125 103.21875Q66.46875 103.734375 66.65625 104.484375Q66.84375 105.234375 66.84375 106.515625Q66.84375 108.03125 66.53125 108.953125Q66.234375 109.875 65.609375 110.390625Q65.0 110.890625 64.046875 110.890625Q62.8125 110.890625 62.09375 110.0Q61.25 108.9375 61.25 106.515625ZM62.328125 106.515625Q62.328125 108.625 62.828125 109.328125Q63.328125 110.03125 64.046875 110.03125Q64.78125 110.03125 65.265625 109.328125Q65.765625 108.625 65.765625 106.515625Q65.765625 104.390625 65.265625 103.703125Q64.78125 103.0 64.03125 103.0Q63.3125 103.0 62.875 103.609375Q62.328125 104.390625 62.328125 106.515625Z" fill-rule="nonzero"/><path fill="#000000" d="M55.875 54.927082Q55.21875 54.677082 54.890625 54.239582Q54.578125 53.786457 54.578125 53.177082Q54.578125 52.239582 55.25 51.598957Q55.9375 50.958332 57.046875 50.958332Q58.171875 50.958332 58.859375 51.614582Q59.546875 52.270832 59.546875 53.208332Q59.546875 53.802082 59.234375 54.239582Q58.921875 54.677082 58.28125 54.927082Q59.078125 55.177082 59.484375 55.755207Q59.890625 56.333332 59.890625 57.130207Q59.890625 58.223957 59.109375 58.973957Q58.34375 59.723957 57.0625 59.723957Q55.796875 59.723957 55.015625 58.973957Q54.234375 58.223957 54.234375 57.098957Q54.234375 56.255207 54.65625 55.692707Q55.09375 55.130207 55.875 54.927082ZM55.65625 53.130207Q55.65625 53.739582 56.046875 54.130207Q56.453125 54.520832 57.078125 54.520832Q57.6875 54.520832 58.078125 54.145832Q58.46875 53.755207 58.46875 53.192707Q58.46875 52.614582 58.0625 52.223957Q57.65625 51.817707 57.0625 51.817707Q56.453125 51.817707 56.046875 52.208332Q55.65625 52.598957 55.65625 53.130207ZM55.328125 57.098957Q55.328125 57.552082 55.53125 57.973957Q55.75 58.395832 56.171875 58.630207Q56.59375 58.864582 57.078125 58.864582Q57.828125 58.864582 58.3125 58.380207Q58.8125 57.895832 58.8125 57.145832Q58.8125 56.380207 58.3125 55.880207Q57.8125 55.380207 57.046875 55.380207Q56.296875 55.380207 55.8125 55.880207Q55.328125 56.364582 55.328125 57.098957ZM61.25 55.348957Q61.25 53.817707 61.5625 52.895832Q61.875 51.958332 62.484375 51.458332Q63.109375 50.958332 64.046875 50.958332Q64.734375 50.958332 65.25 51.239582Q65.78125 51.520832 66.125 52.052082Q66.46875 52.567707 66.65625 53.317707Q66.84375 54.067707 66.84375 55.348957Q66.84375 56.864582 66.53125 57.786457Q66.234375 58.708332 65.609375 59.223957Q65.0 59.723957 64.046875 59.723957Q62.8125 59.723957 62.09375 58.833332Q61.25 57.770832 61.25 55.348957ZM62.328125 55.348957Q62.328125 57.458332 62.828125 58.161457Q63.328125 58.864582 64.046875 58.864582Q64.78125 58.864582 65.265625 58.161457Q65.765625 57.458332 65.765625 55.348957Q65.765625 53.223957 65.265625 52.536457Q64.78125 51.833332 64.03125 51.833332Q63.3125 51.833332 62.875 52.442707Q62.328125 53.223957 62.328125 55.348957Z" fill-rule="nonzero"/><path fill="#000000" d="M158.7353 277.25L156.45406 268.65625L157.62593 268.65625L158.93843 274.29688Q159.14156 275.17188 159.2978 276.04688Q159.62593 274.67188 159.68843 274.45312L161.31343 268.65625L162.68843 268.65625L163.9228 273.0Q164.37593 274.625 164.59468 276.04688Q164.75093 275.23438 165.01656 274.17188L166.3603 268.65625L167.50093 268.65625L165.15718 277.25L164.0478 277.25L162.25093 270.70312Q162.01656 269.89062 161.96968 269.70312Q161.84468 270.28125 161.71968 270.70312L159.90718 277.25L158.7353 277.25ZM168.20406 277.25L168.20406 268.65625L169.9228 268.65625L171.95406 274.73438Q172.2353 275.59375 172.3603 276.01562Q172.50093 275.54688 172.81343 274.64062L174.87593 268.65625L176.40718 268.65625L176.40718 277.25L175.31343 277.25L175.31343 270.0625L172.81343 277.25L171.78218 277.25L169.2978 269.9375L169.2978 277.25L168.20406 277.25ZM179.4228 277.25L179.4228 269.67188L176.59468 269.67188L176.59468 268.65625L183.40718 268.65625L183.40718 269.67188L180.56343 269.67188L180.56343 277.25L179.4228 277.25ZM187.78218 277.25L186.7353 277.25L186.7353 270.53125Q186.34468 270.89062 185.71968 271.26562Q185.1103 271.625 184.62593 271.79688L184.62593 270.78125Q185.50093 270.35938 186.15718 269.78125Q186.82906 269.1875 187.1103 268.625L187.78218 268.625L187.78218 277.25ZM192.43843 272.59375Q191.78218 272.34375 191.45406 271.90625Q191.14156 271.45312 191.14156 270.84375Q191.14156 269.90625 191.81343 269.26562Q192.50093 268.625 193.6103 268.625Q194.7353 268.625 195.4228 269.28125Q196.1103 269.9375 196.1103 270.875Q196.1103 271.46875 195.7978 271.90625Q195.4853 272.34375 194.84468 272.59375Q195.64156 272.84375 196.0478 273.42188Q196.45406 274.0 196.45406 274.79688Q196.45406 275.89062 195.6728 276.64062Q194.90718 277.39062 193.62593 277.39062Q192.3603 277.39062 191.57906 276.64062Q190.7978 275.89062 190.7978 274.76562Q190.7978 273.92188 191.21968 273.35938Q191.65718 272.79688 192.43843 272.59375ZM192.21968 270.79688Q192.21968 271.40625 192.6103 271.79688Q193.01656 272.1875 193.64156 272.1875Q194.25093 272.1875 194.64156 271.8125Q195.03218 271.42188 195.03218 270.85938Q195.03218 270.28125 194.62593 269.89062Q194.21968 269.48438 193.62593 269.48438Q193.01656 269.48438 192.6103 269.875Q192.21968 270.26562 192.21968 270.79688ZM191.89156 274.76562Q191.89156 275.21875 192.09468 275.64062Q192.31343 276.0625 192.7353 276.29688Q193.15718 276.53125 193.64156 276.53125Q194.39156 276.53125 194.87593 276.04688Q195.37593 275.5625 195.37593 274.8125Q195.37593 274.04688 194.87593 273.54688Q194.37593 273.04688 193.6103 273.04688Q192.8603 273.04688 192.37593 273.54688Q191.89156 274.03125 191.89156 274.76562Z" fill-rule="nonzero"/><path fill="#000000" d="M311.42188 277.25L309.14062 268.65625L310.3125 268.65625L311.625 274.29688Q311.82812 275.17188 311.98438 276.04688Q312.3125 274.67188 312.375 274.45312L314.0 268.65625L315.375 268.65625L316.60938 273.0Q317.0625 274.625 317.28125 276.04688Q317.4375 275.23438 317.70312 274.17188L319.04688 268.65625L320.1875 268.65625L317.84375 277.25L316.73438 277.25L314.9375 270.70312Q314.70312 269.89062 314.65625 269.70312Q314.53125 270.28125 314.40625 270.70312L312.59375 277.25L311.42188 277.25ZM320.89062 277.25L320.89062 268.65625L322.60938 268.65625L324.64062 274.73438Q324.92188 275.59375 325.04688 276.01562Q325.1875 275.54688 325.5 274.64062L327.5625 268.65625L329.09375 268.65625L329.09375 277.25L328.0 277.25L328.0 270.0625L325.5 277.25L324.46875 277.25L321.98438 269.9375L321.98438 277.25L320.89062 277.25ZM332.10938 277.25L332.10938 269.67188L329.28125 269.67188L329.28125 268.65625L336.09375 268.65625L336.09375 269.67188L333.25 269.67188L333.25 277.25L332.10938 277.25ZM340.46875 277.25L339.42188 277.25L339.42188 270.53125Q339.03125 270.89062 338.40625 271.26562Q337.79688 271.625 337.3125 271.79688L337.3125 270.78125Q338.1875 270.35938 338.84375 269.78125Q339.51562 269.1875 339.79688 268.625L340.46875 268.625L340.46875 277.25ZM343.65625 275.26562L344.67188 275.17188Q344.79688 275.89062 345.15625 276.21875Q345.53125 276.53125 346.09375 276.53125Q346.57812 276.53125 346.9375 276.3125Q347.3125 276.07812 347.54688 275.71875Q347.78125 275.34375 347.9375 274.71875Q348.09375 274.07812 348.09375 273.42188Q348.09375 273.34375 348.09375 273.20312Q347.78125 273.70312 347.23438 274.03125Q346.6875 274.34375 346.04688 274.34375Q344.96875 274.34375 344.23438 273.57812Q343.5 272.79688 343.5 271.53125Q343.5 270.21875 344.26562 269.42188Q345.04688 268.625 346.20312 268.625Q347.03125 268.625 347.71875 269.07812Q348.42188 269.53125 348.78125 270.375Q349.14062 271.20312 349.14062 272.78125Q349.14062 274.42188 348.78125 275.40625Q348.4375 276.375 347.71875 276.89062Q347.01562 277.39062 346.07812 277.39062Q345.0625 277.39062 344.42188 276.84375Q343.78125 276.28125 343.65625 275.26562ZM347.96875 271.46875Q347.96875 270.5625 347.48438 270.03125Q347.01562 269.5 346.32812 269.5Q345.625 269.5 345.09375 270.07812Q344.57812 270.64062 344.57812 271.5625Q344.57812 272.375 345.07812 272.89062Q345.57812 273.40625 346.29688 273.40625Q347.03125 273.40625 347.5 272.89062Q347.96875 272.375 347.96875 271.46875Z" fill-rule="nonzero"/><path fill="#000000" d="M464.10843 277.25L461.82718 268.65625L462.99905 268.65625L464.31155 274.29688Q464.51468 275.17188 464.67093 276.04688Q464.99905 274.67188 465.06155 274.45312L466.68655 268.65625L468.06155 268.65625L469.29593 273.0Q469.74905 274.625 469.9678 276.04688Q470.12405 275.23438 470.38968 274.17188L471.73343 268.65625L472.87405 268.65625L470.5303 277.25L469.42093 277.25L467.62405 270.70312Q467.38968 269.89062 467.3428 269.70312Q467.2178 270.28125 467.0928 270.70312L465.2803 277.25L464.10843 277.25ZM473.57718 277.25L473.57718 268.65625L475.29593 268.65625L477.32718 274.73438Q477.60843 275.59375 477.73343 276.01562Q477.87405 275.54688 478.18655 274.64062L480.24905 268.65625L481.7803 268.65625L481.7803 277.25L480.68655 277.25L480.68655 270.0625L478.18655 277.25L477.1553 277.25L474.67093 269.9375L474.67093 277.25L473.57718 277.25ZM484.79593 277.25L484.79593 269.67188L481.9678 269.67188L481.9678 268.65625L488.7803 268.65625L488.7803 269.67188L485.93655 269.67188L485.93655 277.25L484.79593 277.25ZM494.73343 276.23438L494.73343 277.25L489.04593 277.25Q489.04593 276.875 489.17093 276.51562Q489.38968 275.9375 489.85843 275.375Q490.3428 274.8125 491.24905 274.07812Q492.6553 272.92188 493.13968 272.25Q493.63968 271.57812 493.63968 270.98438Q493.63968 270.35938 493.18655 269.9375Q492.73343 269.5 492.01468 269.5Q491.24905 269.5 490.79593 269.95312Q490.3428 270.40625 490.32718 271.21875L489.24905 271.10938Q489.35843 269.89062 490.07718 269.26562Q490.81155 268.625 492.04593 268.625Q493.2803 268.625 493.99905 269.3125Q494.7178 270.0 494.7178 271.01562Q494.7178 271.53125 494.49905 272.03125Q494.29593 272.51562 493.79593 273.07812Q493.31155 273.625 492.18655 274.57812Q491.23343 275.375 490.95218 275.67188Q490.68655 275.95312 490.51468 276.23438L494.73343 276.23438ZM496.18655 273.01562Q496.18655 271.48438 496.49905 270.5625Q496.81155 269.625 497.42093 269.125Q498.04593 268.625 498.98343 268.625Q499.67093 268.625 500.18655 268.90625Q500.7178 269.1875 501.06155 269.71875Q501.4053 270.23438 501.5928 270.98438Q501.7803 271.73438 501.7803 273.01562Q501.7803 274.53125 501.4678 275.45312Q501.17093 276.375 500.54593 276.89062Q499.93655 277.39062 498.98343 277.39062Q497.74905 277.39062 497.0303 276.5Q496.18655 275.4375 496.18655 273.01562ZM497.26468 273.01562Q497.26468 275.125 497.76468 275.82812Q498.26468 276.53125 498.98343 276.53125Q499.7178 276.53125 500.20218 275.82812Q500.70218 275.125 500.70218 273.01562Q500.70218 270.89062 500.20218 270.20312Q499.7178 269.5 498.9678 269.5Q498.24905 269.5 497.81155 270.10938Q497.26468 270.89062 497.26468 273.01562Z" fill-rule="nonzero"/><path fill="#757575" d="M20.390625 33.75L14.84375 19.4375L16.890625 19.4375L20.609375 29.828125Q21.0625 31.078125 21.359375 32.171875Q21.6875 31.0 22.140625 29.828125L26.0 19.4375L27.9375 19.4375L22.328125 33.75L20.390625 33.75ZM28.421875 28.5625Q28.421875 25.6875 30.015625 24.296875Q31.359375 23.140625 33.28125 23.140625Q35.421875 23.140625 36.765625 24.546875Q38.125 25.953125 38.125 28.421875Q38.125 30.421875 37.53125 31.578125Q36.9375 32.71875 35.78125 33.359375Q34.640625 33.984375 33.28125 33.984375Q31.09375 33.984375 29.75 32.59375Q28.421875 31.1875 28.421875 28.5625ZM30.21875 28.5625Q30.21875 30.5625 31.078125 31.546875Q31.953125 32.53125 33.28125 32.53125Q34.59375 32.53125 35.453125 31.546875Q36.328125 30.546875 36.328125 28.5Q36.328125 26.578125 35.453125 25.59375Q34.578125 24.59375 33.28125 24.59375Q31.953125 24.59375 31.078125 25.59375Q30.21875 26.578125 30.21875 28.5625ZM46.84375 29.953125L48.5625 30.171875Q48.28125 31.96875 47.109375 32.984375Q45.953125 33.984375 44.25 33.984375Q42.125 33.984375 40.828125 32.59375Q39.53125 31.203125 39.53125 28.609375Q39.53125 26.921875 40.078125 25.671875Q40.640625 24.40625 41.78125 23.78125Q42.921875 23.140625 44.265625 23.140625Q45.953125 23.140625 47.015625 24.0Q48.09375 24.859375 48.40625 26.421875L46.6875 26.6875Q46.453125 25.640625 45.828125 25.125Q45.203125 24.59375 44.328125 24.59375Q43.0 24.59375 42.171875 25.546875Q41.34375 26.5 41.34375 28.546875Q41.34375 30.640625 42.140625 31.59375Q42.9375 32.53125 44.234375 32.53125Q45.265625 32.53125 45.953125 31.90625Q46.65625 31.265625 46.84375 29.953125ZM56.84375 32.46875Q55.859375 33.296875 54.953125 33.640625Q54.046875 33.984375 53.015625 33.984375Q51.3125 33.984375 50.390625 33.15625Q49.46875 32.3125 49.46875 31.015625Q49.46875 30.25 49.8125 29.625Q50.171875 29.0 50.734375 28.625Q51.296875 28.234375 52.0 28.03125Q52.515625 27.90625 53.5625 27.765625Q55.6875 27.515625 56.6875 27.171875Q56.703125 26.8125 56.703125 26.703125Q56.703125 25.640625 56.203125 25.1875Q55.53125 24.59375 54.203125 24.59375Q52.953125 24.59375 52.359375 25.03125Q51.78125 25.46875 51.5 26.578125L49.78125 26.34375Q50.015625 25.234375 50.546875 24.5625Q51.078125 23.875 52.09375 23.515625Q53.109375 23.140625 54.453125 23.140625Q55.78125 23.140625 56.609375 23.453125Q57.4375 23.765625 57.828125 24.25Q58.21875 24.71875 58.375 25.4375Q58.46875 25.890625 58.46875 27.0625L58.46875 29.40625Q58.46875 31.859375 58.578125 32.515625Q58.6875 33.15625 59.03125 33.75L57.1875 33.75Q56.921875 33.203125 56.84375 32.46875ZM56.6875 28.546875Q55.734375 28.9375 53.8125 29.203125Q52.734375 29.359375 52.28125 29.5625Q51.84375 29.75 51.59375 30.125Q51.34375 30.5 51.34375 30.96875Q51.34375 31.671875 51.875 32.140625Q52.40625 32.609375 53.4375 32.609375Q54.453125 32.609375 55.234375 32.171875Q56.03125 31.71875 56.40625 30.953125Q56.6875 30.34375 56.6875 29.1875L56.6875 28.546875ZM62.6875 33.75L61.0625 33.75L61.0625 19.4375L62.8125 19.4375L62.8125 24.546875Q63.9375 23.140625 65.65625 23.140625Q66.609375 23.140625 67.46875 23.53125Q68.328125 23.921875 68.875 24.625Q69.421875 25.3125 69.734375 26.296875Q70.046875 27.28125 70.046875 28.40625Q70.046875 31.078125 68.734375 32.53125Q67.421875 33.984375 65.578125 33.984375Q63.734375 33.984375 62.6875 32.453125L62.6875 33.75ZM62.671875 28.484375Q62.671875 30.34375 63.171875 31.1875Q64.015625 32.53125 65.421875 32.53125Q66.578125 32.53125 67.40625 31.53125Q68.25 30.53125 68.25 28.546875Q68.25 26.515625 67.4375 25.5625Q66.640625 24.59375 65.5 24.59375Q64.34375 24.59375 63.5 25.59375Q62.671875 26.59375 62.671875 28.484375ZM78.859375 33.75L78.859375 32.21875Q77.65625 33.984375 75.578125 33.984375Q74.65625 33.984375 73.859375 33.640625Q73.0625 33.28125 72.671875 32.75Q72.296875 32.21875 72.140625 31.4375Q72.03125 30.921875 72.03125 29.796875L72.03125 23.375L73.78125 23.375L73.78125 29.125Q73.78125 30.5 73.890625 30.984375Q74.0625 31.671875 74.59375 32.078125Q75.140625 32.46875 75.921875 32.46875Q76.71875 32.46875 77.40625 32.0625Q78.109375 31.65625 78.390625 30.96875Q78.6875 30.265625 78.6875 28.9375L78.6875 23.375L80.4375 23.375L80.4375 33.75L78.859375 33.75ZM82.03125 33.75L82.03125 19.4375L83.78125 19.4375L83.78125 33.75L82.03125 33.75ZM92.84375 32.46875Q91.859375 33.296875 90.953125 33.640625Q90.046875 33.984375 89.015625 33.984375Q87.3125 33.984375 86.390625 33.15625Q85.46875 32.3125 85.46875 31.015625Q85.46875 30.25 85.8125 29.625Q86.171875 29.0 86.734375 28.625Q87.296875 28.234375 88.0 28.03125Q88.515625 27.90625 89.5625 27.765625Q91.6875 27.515625 92.6875 27.171875Q92.703125 26.8125 92.703125 26.703125Q92.703125 25.640625 92.203125 25.1875Q91.53125 24.59375 90.203125 24.59375Q88.953125 24.59375 88.359375 25.03125Q87.78125 25.46875 87.5 26.578125L85.78125 26.34375Q86.015625 25.234375 86.546875 24.5625Q87.078125 23.875 88.09375 23.515625Q89.109375 23.140625 90.453125 23.140625Q91.78125 23.140625 92.609375 23.453125Q93.4375 23.765625 93.828125 24.25Q94.21875 24.71875 94.375 25.4375Q94.46875 25.890625 94.46875 27.0625L94.46875 29.40625Q94.46875 31.859375 94.578125 32.515625Q94.6875 33.15625 95.03125 33.75L93.1875 33.75Q92.921875 33.203125 92.84375 32.46875ZM92.6875 28.546875Q91.734375 28.9375 89.8125 29.203125Q88.734375 29.359375 88.28125 29.5625Q87.84375 29.75 87.59375 30.125Q87.34375 30.5 87.34375 30.96875Q87.34375 31.671875 87.875 32.140625Q88.40625 32.609375 89.4375 32.609375Q90.453125 32.609375 91.234375 32.171875Q92.03125 31.71875 92.40625 30.953125Q92.6875 30.34375 92.6875 29.1875L92.6875 28.546875ZM97.046875 33.75L97.046875 23.375L98.625 23.375L98.625 24.953125Q99.234375 23.84375 99.75 23.5Q100.265625 23.140625 100.875 23.140625Q101.765625 23.140625 102.6875 23.703125L102.078125 25.34375Q101.4375 24.953125 100.796875 24.953125Q100.21875 24.953125 99.75 25.3125Q99.296875 25.65625 99.09375 26.265625Q98.8125 27.203125 98.8125 28.3125L98.8125 33.75L97.046875 33.75ZM103.984375 37.75L103.796875 36.09375Q104.375 36.25 104.796875 36.25Q105.390625 36.25 105.734375 36.046875Q106.09375 35.859375 106.3125 35.515625Q106.484375 35.25 106.859375 34.203125Q106.90625 34.046875 107.015625 33.765625L103.078125 23.375L104.96875 23.375L107.125 29.390625Q107.546875 30.53125 107.875 31.78125Q108.1875 30.578125 108.59375 29.421875L110.8125 23.375L112.578125 23.375L108.625 33.921875Q108.0 35.640625 107.640625 36.28125Q107.171875 37.15625 106.5625 37.546875Q105.96875 37.953125 105.125 37.953125Q104.609375 37.953125 103.984375 37.75ZM119.359375 30.65625L121.109375 30.375Q121.25 31.421875 121.921875 31.984375Q122.59375 32.53125 123.796875 32.53125Q125.0 32.53125 125.578125 32.046875Q126.171875 31.546875 126.171875 30.890625Q126.171875 30.296875 125.65625 29.953125Q125.296875 29.71875 123.859375 29.359375Q121.921875 28.859375 121.171875 28.515625Q120.4375 28.15625 120.046875 27.53125Q119.65625 26.890625 119.65625 26.125Q119.65625 25.4375 119.96875 24.84375Q120.296875 24.25 120.84375 23.859375Q121.25 23.5625 121.953125 23.359375Q122.671875 23.140625 123.484375 23.140625Q124.703125 23.140625 125.625 23.5Q126.546875 23.84375 126.984375 24.453125Q127.421875 25.046875 127.59375 26.046875L125.875 26.28125Q125.75 25.484375 125.1875 25.046875Q124.625 24.59375 123.609375 24.59375Q122.390625 24.59375 121.875 25.0Q121.359375 25.390625 121.359375 25.921875Q121.359375 26.265625 121.578125 26.546875Q121.78125 26.828125 122.25 27.015625Q122.515625 27.109375 123.796875 27.453125Q125.671875 27.953125 126.40625 28.28125Q127.140625 28.59375 127.5625 29.203125Q127.984375 29.796875 127.984375 30.703125Q127.984375 31.578125 127.46875 32.359375Q126.953125 33.140625 125.984375 33.5625Q125.015625 33.984375 123.796875 33.984375Q121.78125 33.984375 120.71875 33.140625Q119.65625 32.296875 119.359375 30.65625ZM130.07812 21.453125L130.07812 19.4375L131.84375 19.4375L131.84375 21.453125L130.07812 21.453125ZM130.07812 33.75L130.07812 23.375L131.84375 23.375L131.84375 33.75L130.07812 33.75ZM133.14062 33.75L133.14062 32.328125L139.75 24.75Q138.625 24.796875 137.76562 24.796875L133.53125 24.796875L133.53125 23.375L142.01562 23.375L142.01562 24.546875L136.39062 31.125L135.3125 32.328125Q136.48438 32.234375 137.53125 32.234375L142.32812 32.234375L142.32812 33.75L133.14062 33.75ZM150.17188 30.40625L151.98438 30.640625Q151.5625 32.21875 150.39062 33.109375Q149.23438 33.984375 147.42188 33.984375Q145.15625 33.984375 143.8125 32.59375Q142.48438 31.1875 142.48438 28.65625Q142.48438 26.03125 143.82812 24.59375Q145.17188 23.140625 147.32812 23.140625Q149.40625 23.140625 150.71875 24.5625Q152.04688 25.96875 152.04688 28.546875Q152.04688 28.703125 152.03125 29.015625L144.29688 29.015625Q144.39062 30.71875 145.26562 31.625Q146.14062 32.53125 147.4375 32.53125Q148.40625 32.53125 149.07812 32.03125Q149.76562 31.515625 150.17188 30.40625ZM144.39062 27.5625L150.1875 27.5625Q150.07812 26.265625 149.53125 25.609375Q148.6875 24.59375 147.34375 24.59375Q146.14062 24.59375 145.3125 25.40625Q144.48438 26.203125 144.39062 27.5625ZM163.42188 37.953125Q161.96875 36.125 160.96875 33.671875Q159.96875 31.203125 159.96875 28.5625Q159.96875 26.234375 160.71875 24.109375Q161.59375 21.640625 163.42188 19.1875L164.6875 19.1875Q163.5 21.21875 163.125 22.09375Q162.53125 23.4375 162.1875 24.90625Q161.76562 26.734375 161.76562 28.578125Q161.76562 33.265625 164.6875 37.953125L163.42188 37.953125ZM167.0625 37.71875L167.0625 23.375L168.67188 23.375L168.67188 24.71875Q169.23438 23.9375 169.9375 23.546875Q170.65625 23.140625 171.67188 23.140625Q173.0 23.140625 174.01562 23.828125Q175.03125 24.515625 175.54688 25.765625Q176.07812 27.0 176.07812 28.484375Q176.07812 30.078125 175.5 31.359375Q174.9375 32.625 173.84375 33.3125Q172.75 33.984375 171.54688 33.984375Q170.67188 33.984375 169.96875 33.609375Q169.28125 33.234375 168.82812 32.671875L168.82812 37.71875L167.0625 37.71875ZM168.65625 28.625Q168.65625 30.625 169.46875 31.578125Q170.28125 32.53125 171.4375 32.53125Q172.60938 32.53125 173.4375 31.546875Q174.28125 30.5625 174.28125 28.46875Q174.28125 26.5 173.45312 25.515625Q172.64062 24.515625 171.51562 24.515625Q170.39062 24.515625 169.51562 25.578125Q168.65625 26.625 168.65625 28.625ZM185.17188 30.40625L186.98438 30.640625Q186.5625 32.21875 185.39062 33.109375Q184.23438 33.984375 182.42188 33.984375Q180.15625 33.984375 178.8125 32.59375Q177.48438 31.1875 177.48438 28.65625Q177.48438 26.03125 178.82812 24.59375Q180.17188 23.140625 182.32812 23.140625Q184.40625 23.140625 185.71875 24.5625Q187.04688 25.96875 187.04688 28.546875Q187.04688 28.703125 187.03125 29.015625L179.29688 29.015625Q179.39062 30.71875 180.26562 31.625Q181.14062 32.53125 182.4375 32.53125Q183.40625 32.53125 184.07812 32.03125Q184.76562 31.515625 185.17188 30.40625ZM179.39062 27.5625L185.1875 27.5625Q185.07812 26.265625 184.53125 25.609375Q183.6875 24.59375 182.34375 24.59375Q181.14062 24.59375 180.3125 25.40625Q179.48438 26.203125 179.39062 27.5625ZM189.04688 33.75L189.04688 23.375L190.625 23.375L190.625 24.953125Q191.23438 23.84375 191.75 23.5Q192.26562 23.140625 192.875 23.140625Q193.76562 23.140625 194.6875 23.703125L194.07812 25.34375Q193.4375 24.953125 192.79688 24.953125Q192.21875 24.953125 191.75 25.3125Q191.29688 25.65625 191.09375 26.265625Q190.8125 27.203125 190.8125 28.3125L190.8125 33.75L189.04688 33.75ZM202.84375 29.953125L204.5625 30.171875Q204.28125 31.96875 203.10938 32.984375Q201.95312 33.984375 200.25 33.984375Q198.125 33.984375 196.82812 32.59375Q195.53125 31.203125 195.53125 28.609375Q195.53125 26.921875 196.07812 25.671875Q196.64062 24.40625 197.78125 23.78125Q198.92188 23.140625 200.26562 23.140625Q201.95312 23.140625 203.01562 24.0Q204.09375 24.859375 204.40625 26.421875L202.6875 26.6875Q202.45312 25.640625 201.82812 25.125Q201.20312 24.59375 200.32812 24.59375Q199.0 24.59375 198.17188 25.546875Q197.34375 26.5 197.34375 28.546875Q197.34375 30.640625 198.14062 31.59375Q198.9375 32.53125 200.23438 32.53125Q201.26562 32.53125 201.95312 31.90625Q202.65625 31.265625 202.84375 29.953125ZM213.17188 30.40625L214.98438 30.640625Q214.5625 32.21875 213.39062 33.109375Q212.23438 33.984375 210.42188 33.984375Q208.15625 33.984375 206.8125 32.59375Q205.48438 31.1875 205.48438 28.65625Q205.48438 26.03125 206.82812 24.59375Q208.17188 23.140625 210.32812 23.140625Q212.40625 23.140625 213.71875 24.5625Q215.04688 25.96875 215.04688 28.546875Q215.04688 28.703125 215.03125 29.015625L207.29688 29.015625Q207.39062 30.71875 208.26562 31.625Q209.14062 32.53125 210.4375 32.53125Q211.40625 32.53125 212.07812 32.03125Q212.76562 31.515625 213.17188 30.40625ZM207.39062 27.5625L213.1875 27.5625Q213.07812 26.265625 212.53125 25.609375Q211.6875 24.59375 210.34375 24.59375Q209.14062 24.59375 208.3125 25.40625Q207.48438 26.203125 207.39062 27.5625ZM217.0625 33.75L217.0625 23.375L218.65625 23.375L218.65625 24.859375Q219.79688 23.140625 221.95312 23.140625Q222.89062 23.140625 223.67188 23.484375Q224.46875 23.8125 224.85938 24.359375Q225.25 24.90625 225.40625 25.65625Q225.5 26.15625 225.5 27.375L225.5 33.75L223.73438 33.75L223.73438 27.4375Q223.73438 26.359375 223.53125 25.828125Q223.32812 25.296875 222.79688 24.984375Q222.28125 24.671875 221.57812 24.671875Q220.45312 24.671875 219.64062 25.390625Q218.82812 26.09375 218.82812 28.078125L218.82812 33.75L217.0625 33.75ZM230.90625 32.171875L231.15625 33.734375Q230.42188 33.890625 229.82812 33.890625Q228.875 33.890625 228.34375 33.59375Q227.82812 33.28125 227.60938 32.796875Q227.39062 32.296875 227.39062 30.71875L227.39062 24.75L226.10938 24.75L226.10938 23.375L227.39062 23.375L227.39062 20.8125L229.14062 19.75L229.14062 23.375L230.90625 23.375L230.90625 24.75L229.14062 24.75L229.14062 30.8125Q229.14062 31.5625 229.23438 31.78125Q229.32812 31.984375 229.53125 32.125Q229.75 32.25 230.14062 32.25Q230.42188 32.25 230.90625 32.171875ZM233.07812 21.453125L233.07812 19.4375L234.84375 19.4375L234.84375 21.453125L233.07812 21.453125ZM233.07812 33.75L233.07812 23.375L234.84375 23.375L234.84375 33.75L233.07812 33.75ZM237.03125 33.75L237.03125 19.4375L238.78125 19.4375L238.78125 33.75L237.03125 33.75ZM248.17188 30.40625L249.98438 30.640625Q249.5625 32.21875 248.39062 33.109375Q247.23438 33.984375 245.42188 33.984375Q243.15625 33.984375 241.8125 32.59375Q240.48438 31.1875 240.48438 28.65625Q240.48438 26.03125 241.82812 24.59375Q243.17188 23.140625 245.32812 23.140625Q247.40625 23.140625 248.71875 24.5625Q250.04688 25.96875 250.04688 28.546875Q250.04688 28.703125 250.03125 29.015625L242.29688 29.015625Q242.39062 30.71875 243.26562 31.625Q244.14062 32.53125 245.4375 32.53125Q246.40625 32.53125 247.07812 32.03125Q247.76562 31.515625 248.17188 30.40625ZM242.39062 27.5625L248.1875 27.5625Q248.07812 26.265625 247.53125 25.609375Q246.6875 24.59375 245.34375 24.59375Q244.14062 24.59375 243.3125 25.40625Q242.48438 26.203125 242.39062 27.5625ZM251.35938 30.65625L253.10938 30.375Q253.25 31.421875 253.92188 31.984375Q254.59375 32.53125 255.79688 32.53125Q257.0 32.53125 257.57812 32.046875Q258.17188 31.546875 258.17188 30.890625Q258.17188 30.296875 257.65625 29.953125Q257.29688 29.71875 255.85938 29.359375Q253.92188 28.859375 253.17188 28.515625Q252.4375 28.15625 252.04688 27.53125Q251.65625 26.890625 251.65625 26.125Q251.65625 25.4375 251.96875 24.84375Q252.29688 24.25 252.84375 23.859375Q253.25 23.5625 253.95312 23.359375Q254.67188 23.140625 255.48438 23.140625Q256.70312 23.140625 257.625 23.5Q258.54688 23.84375 258.98438 24.453125Q259.42188 25.046875 259.59375 26.046875L257.875 26.28125Q257.75 25.484375 257.1875 25.046875Q256.625 24.59375 255.60938 24.59375Q254.39062 24.59375 253.875 25.0Q253.35938 25.390625 253.35938 25.921875Q253.35938 26.265625 253.57812 26.546875Q253.78125 26.828125 254.25 27.015625Q254.51562 27.109375 255.79688 27.453125Q257.67188 27.953125 258.40625 28.28125Q259.14062 28.59375 259.5625 29.203125Q259.98438 29.796875 259.98438 30.703125Q259.98438 31.578125 259.46875 32.359375Q258.95312 33.140625 257.98438 33.5625Q257.01562 33.984375 255.79688 33.984375Q253.78125 33.984375 252.71875 33.140625Q251.65625 32.296875 251.35938 30.65625ZM267.57812 26.6875Q267.57812 24.15625 268.09375 22.609375Q268.625 21.046875 269.65625 20.21875Q270.6875 19.375 272.25 19.375Q273.40625 19.375 274.26562 19.84375Q275.14062 20.296875 275.70312 21.171875Q276.26562 22.046875 276.59375 23.3125Q276.92188 24.5625 276.92188 26.6875Q276.92188 29.203125 276.39062 30.75Q275.875 32.296875 274.84375 33.15625Q273.82812 34.0 272.25 34.0Q270.17188 34.0 269.0 32.515625Q267.57812 30.71875 267.57812 26.6875ZM269.39062 26.6875Q269.39062 30.21875 270.20312 31.390625Q271.03125 32.546875 272.25 32.546875Q273.45312 32.546875 274.28125 31.375Q275.10938 30.203125 275.10938 26.6875Q275.10938 23.15625 274.28125 22.0Q273.45312 20.828125 272.23438 20.828125Q271.01562 20.828125 270.29688 21.859375Q269.39062 23.15625 269.39062 26.6875ZM279.5625 33.75L279.5625 31.75L281.5625 31.75L281.5625 33.75L279.5625 33.75ZM291.20312 33.75L289.4375 33.75L289.4375 22.546875Q288.8125 23.15625 287.78125 23.765625Q286.75 24.359375 285.92188 24.671875L285.92188 22.96875Q287.40625 22.28125 288.5 21.296875Q289.60938 20.296875 290.0625 19.375L291.20312 19.375L291.20312 33.75ZM295.57812 26.6875Q295.57812 24.15625 296.09375 22.609375Q296.625 21.046875 297.65625 20.21875Q298.6875 19.375 300.25 19.375Q301.40625 19.375 302.26562 19.84375Q303.14062 20.296875 303.70312 21.171875Q304.26562 22.046875 304.59375 23.3125Q304.92188 24.5625 304.92188 26.6875Q304.92188 29.203125 304.39062 30.75Q303.875 32.296875 302.84375 33.15625Q301.82812 34.0 300.25 34.0Q298.17188 34.0 297.0 32.515625Q295.57812 30.71875 295.57812 26.6875ZM297.39062 26.6875Q297.39062 30.21875 298.20312 31.390625Q299.03125 32.546875 300.25 32.546875Q301.45312 32.546875 302.28125 31.375Q303.10938 30.203125 303.10938 26.6875Q303.10938 23.15625 302.28125 22.0Q301.45312 20.828125 300.23438 20.828125Q299.01562 20.828125 298.29688 21.859375Q297.39062 23.15625 297.39062 26.6875ZM307.53125 33.75L307.53125 31.75L309.53125 31.75L309.53125 33.75Q309.53125 34.859375 309.14062 35.53125Q308.75 36.21875 307.90625 36.578125L307.40625 35.828125Q307.96875 35.59375 308.23438 35.109375Q308.5 34.640625 308.53125 33.75L307.53125 33.75ZM318.57812 26.6875Q318.57812 24.15625 319.09375 22.609375Q319.625 21.046875 320.65625 20.21875Q321.6875 19.375 323.25 19.375Q324.40625 19.375 325.26562 19.84375Q326.14062 20.296875 326.70312 21.171875Q327.26562 22.046875 327.59375 23.3125Q327.92188 24.5625 327.92188 26.6875Q327.92188 29.203125 327.39062 30.75Q326.875 32.296875 325.84375 33.15625Q324.82812 34.0 323.25 34.0Q321.17188 34.0 320.0 32.515625Q318.57812 30.71875 318.57812 26.6875ZM320.39062 26.6875Q320.39062 30.21875 321.20312 31.390625Q322.03125 32.546875 323.25 32.546875Q324.45312 32.546875 325.28125 31.375Q326.10938 30.203125 326.10938 26.6875Q326.10938 23.15625 325.28125 22.0Q324.45312 20.828125 323.23438 20.828125Q322.01562 20.828125 321.29688 21.859375Q320.39062 23.15625 320.39062 26.6875ZM330.5625 33.75L330.5625 31.75L332.5625 31.75L332.5625 33.75L330.5625 33.75ZM344.8125 32.0625L344.8125 33.75L335.35938 33.75Q335.34375 33.109375 335.5625 32.53125Q335.92188 31.5625 336.71875 30.625Q337.51562 29.6875 339.01562 28.453125Q341.35938 26.546875 342.17188 25.4375Q343.0 24.3125 343.0 23.3125Q343.0 22.265625 342.25 21.546875Q341.5 20.828125 340.29688 20.828125Q339.03125 20.828125 338.26562 21.59375Q337.5 22.359375 337.5 23.703125L335.6875 23.515625Q335.875 21.5 337.07812 20.4375Q338.29688 19.375 340.34375 19.375Q342.39062 19.375 343.59375 20.515625Q344.79688 21.65625 344.79688 23.34375Q344.79688 24.203125 344.4375 25.046875Q344.09375 25.875 343.28125 26.796875Q342.46875 27.703125 340.57812 29.3125Q338.98438 30.640625 338.53125 31.109375Q338.09375 31.578125 337.79688 32.0625L344.8125 32.0625ZM346.57812 30.0L348.42188 29.84375Q348.625 31.1875 349.375 31.875Q350.125 32.546875 351.1875 32.546875Q352.45312 32.546875 353.32812 31.59375Q354.20312 30.640625 354.20312 29.046875Q354.20312 27.546875 353.35938 26.6875Q352.51562 25.8125 351.15625 25.8125Q350.29688 25.8125 349.60938 26.203125Q348.9375 26.578125 348.54688 27.203125L346.89062 26.984375L348.28125 19.625L355.40625 19.625L355.40625 21.3125L349.6875 21.3125L348.92188 25.15625Q350.20312 24.25 351.625 24.25Q353.5 24.25 354.78125 25.5625Q356.07812 26.859375 356.07812 28.890625Q356.07812 30.84375 354.9375 32.25Q353.5625 34.0 351.1875 34.0Q349.23438 34.0 347.98438 32.90625Q346.75 31.8125 346.57812 30.0ZM358.53125 33.75L358.53125 31.75L360.53125 31.75L360.53125 33.75Q360.53125 34.859375 360.14062 35.53125Q359.75 36.21875 358.90625 36.578125L358.40625 35.828125Q358.96875 35.59375 359.23438 35.109375Q359.5 34.640625 359.53125 33.75L358.53125 33.75ZM369.57812 26.6875Q369.57812 24.15625 370.09375 22.609375Q370.625 21.046875 371.65625 20.21875Q372.6875 19.375 374.25 19.375Q375.40625 19.375 376.26562 19.84375Q377.14062 20.296875 377.70312 21.171875Q378.26562 22.046875 378.59375 23.3125Q378.92188 24.5625 378.92188 26.6875Q378.92188 29.203125 378.39062 30.75Q377.875 32.296875 376.84375 33.15625Q375.82812 34.0 374.25 34.0Q372.17188 34.0 371.0 32.515625Q369.57812 30.71875 369.57812 26.6875ZM371.39062 26.6875Q371.39062 30.21875 372.20312 31.390625Q373.03125 32.546875 374.25 32.546875Q375.45312 32.546875 376.28125 31.375Q377.10938 30.203125 377.10938 26.6875Q377.10938 23.15625 376.28125 22.0Q375.45312 20.828125 374.23438 20.828125Q373.01562 20.828125 372.29688 21.859375Q371.39062 23.15625 371.39062 26.6875ZM381.5625 33.75L381.5625 31.75L383.5625 31.75L383.5625 33.75L381.5625 33.75ZM386.70312 21.3125L386.70312 19.625L395.96875 19.625L395.96875 20.984375Q394.59375 22.4375 393.25 24.859375Q391.90625 27.265625 391.1875 29.8125Q390.65625 31.609375 390.5 33.75L388.70312 33.75Q388.73438 32.0625 389.35938 29.671875Q390.0 27.28125 391.1875 25.0625Q392.375 22.828125 393.70312 21.3125L386.70312 21.3125ZM397.57812 30.0L399.42188 29.84375Q399.625 31.1875 400.375 31.875Q401.125 32.546875 402.1875 32.546875Q403.45312 32.546875 404.32812 31.59375Q405.20312 30.640625 405.20312 29.046875Q405.20312 27.546875 404.35938 26.6875Q403.51562 25.8125 402.15625 25.8125Q401.29688 25.8125 400.60938 26.203125Q399.9375 26.578125 399.54688 27.203125L397.89062 26.984375L399.28125 19.625L406.40625 19.625L406.40625 21.3125L400.6875 21.3125L399.92188 25.15625Q401.20312 24.25 402.625 24.25Q404.5 24.25 405.78125 25.5625Q407.07812 26.859375 407.07812 28.890625Q407.07812 30.84375 405.9375 32.25Q404.5625 34.0 402.1875 34.0Q400.23438 34.0 398.98438 32.90625Q397.75 31.8125 397.57812 30.0ZM409.53125 33.75L409.53125 31.75L411.53125 31.75L411.53125 33.75Q411.53125 34.859375 411.14062 35.53125Q410.75 36.21875 409.90625 36.578125L409.40625 35.828125Q409.96875 35.59375 410.23438 35.109375Q410.5 34.640625 410.53125 33.75L409.53125 33.75ZM420.57812 26.6875Q420.57812 24.15625 421.09375 22.609375Q421.625 21.046875 422.65625 20.21875Q423.6875 19.375 425.25 19.375Q426.40625 19.375 427.26562 19.84375Q428.14062 20.296875 428.70312 21.171875Q429.26562 22.046875 429.59375 23.3125Q429.92188 24.5625 429.92188 26.6875Q429.92188 29.203125 429.39062 30.75Q428.875 32.296875 427.84375 33.15625Q426.82812 34.0 425.25 34.0Q423.17188 34.0 422.0 32.515625Q420.57812 30.71875 420.57812 26.6875ZM422.39062 26.6875Q422.39062 30.21875 423.20312 31.390625Q424.03125 32.546875 425.25 32.546875Q426.45312 32.546875 427.28125 31.375Q428.10938 30.203125 428.10938 26.6875Q428.10938 23.15625 427.28125 22.0Q426.45312 20.828125 425.23438 20.828125Q424.01562 20.828125 423.29688 21.859375Q422.39062 23.15625 422.39062 26.6875ZM432.5625 33.75L432.5625 31.75L434.5625 31.75L434.5625 33.75L432.5625 33.75ZM437.84375 30.4375L439.53125 30.28125Q439.75 31.46875 440.34375 32.015625Q440.95312 32.546875 441.90625 32.546875Q442.71875 32.546875 443.32812 32.1875Q443.9375 31.8125 444.32812 31.1875Q444.71875 30.5625 444.98438 29.515625Q445.25 28.453125 445.25 27.359375Q445.25 27.25 445.23438 27.015625Q444.70312 27.84375 443.79688 28.375Q442.89062 28.890625 441.8125 28.890625Q440.04688 28.890625 438.8125 27.609375Q437.57812 26.3125 437.57812 24.203125Q437.57812 22.03125 438.85938 20.703125Q440.15625 19.375 442.07812 19.375Q443.48438 19.375 444.64062 20.125Q445.79688 20.875 446.39062 22.265625Q447.0 23.65625 447.0 26.296875Q447.0 29.046875 446.39062 30.671875Q445.79688 32.296875 444.625 33.15625Q443.45312 34.0 441.875 34.0Q440.1875 34.0 439.125 33.0625Q438.0625 32.125 437.84375 30.4375ZM445.04688 24.125Q445.04688 22.609375 444.23438 21.71875Q443.4375 20.828125 442.29688 20.828125Q441.125 20.828125 440.25 21.796875Q439.39062 22.75 439.39062 24.265625Q439.39062 25.640625 440.20312 26.5Q441.03125 27.34375 442.25 27.34375Q443.46875 27.34375 444.25 26.5Q445.04688 25.640625 445.04688 24.125ZM448.57812 26.6875Q448.57812 24.15625 449.09375 22.609375Q449.625 21.046875 450.65625 20.21875Q451.6875 19.375 453.25 19.375Q454.40625 19.375 455.26562 19.84375Q456.14062 20.296875 456.70312 21.171875Q457.26562 22.046875 457.59375 23.3125Q457.92188 24.5625 457.92188 26.6875Q457.92188 29.203125 457.39062 30.75Q456.875 32.296875 455.84375 33.15625Q454.82812 34.0 453.25 34.0Q451.17188 34.0 450.0 32.515625Q448.57812 30.71875 448.57812 26.6875ZM450.39062 26.6875Q450.39062 30.21875 451.20312 31.390625Q452.03125 32.546875 453.25 32.546875Q454.45312 32.546875 455.28125 31.375Q456.10938 30.203125 456.10938 26.6875Q456.10938 23.15625 455.28125 22.0Q454.45312 20.828125 453.23438 20.828125Q452.01562 20.828125 451.29688 21.859375Q450.39062 23.15625 450.39062 26.6875ZM461.21875 37.953125L459.96875 37.953125Q462.875 33.265625 462.875 28.578125Q462.875 26.734375 462.46875 24.9375Q462.125 23.46875 461.53125 22.125Q461.15625 21.234375 459.96875 19.1875L461.21875 19.1875Q463.0625 21.640625 463.9375 24.109375Q464.6875 26.234375 464.6875 28.5625Q464.6875 31.203125 463.67188 33.671875Q462.67188 36.125 461.21875 37.953125Z" fill-rule="nonzero"/></svg>